<svg xmlns="http://www.w3.org/2000/svg" width="42" height="37.754" viewBox="0 0 42 37.754"><g fill-rule="evenodd" clip-rule="evenodd" fill="#8BC03F"><path d="M1.784 16.222a80.46 80.46 0 0 1 1.367-.861c.146-.091.306-.24.454-.234.832.032 1.333.529 1.428 1.508.286-.072.649-.056.798-.226.188-.213.226-.575.28-.881.037-.212-.01-.438-.018-.658l-.195.016-.353.912c-.855-.144-.319-1.49-1.321-1.215-.548.15-1.297-.487-1.648.64l-.13-.885-.221.013c.026.271.07.541.072.811a.771.771 0 0 1-.119.427c-.034.05-.217-.003-.333-.009-.113-.005-.266-.06-.332-.006-.354.284-.547.103-.75-.194-.15-.221-.347-.412-.522-.615l-.15.128 1.02 1.808c.264-.19.463-.344.673-.479zm7.383 11.427c.667-.776 1.429-.684 2.338-.298.052-.583-.111-.829-.687-.683a6.298 6.298 0 0 1-.988.148c-.376.035-.638-.047-.779-.223a.631.631 0 0 0 .113-.492.863.863 0 0 0-.147-.354c.043-.127.089-.255.128-.365-.177-.143-.32-.352-.462-.351-.207.003-.412.155-.617.243.015.035.022.066.034.099-.196.065-.398.124-.516.258a9.699 9.699 0 0 0-1.064 1.452c-.187.314-.05.648.258.868.294.21.694.175.942-.103.18-.203.313-.448.485-.66.018-.021.042-.041.062-.062.012.062.024.126.037.185.101.453.586.662.863.338zm13.494-6.175c-.09-.453-.254-.871-.78-.447-.622.503-1.088.429-1.587-.209l.132 1.451-.243.439c.554-.082 1.108-.167 1.498-.227-.11-.349-.11-.349.98-1.007zm-4.319 2.463l-1.421-1.393-.248.275 1.469 1.338.2-.22zm-1.91 4.177c-.165.23-.325.46-.493.684-.158.211-.325.416-.488.623 1.136-.383 1.402-.792.981-1.307zm19.44-4.885c-.58-.075-.832.081-.708.661.069.323.095.66.113.992.042.769-.368 1.055-1.097.773a41.076 41.076 0 0 1-.362-.143c-.149.172-.363.307-.366.449-.006.206.139.416.22.626.671-.271 1.088.097 1.468.573.033.043.152.017.369.031l-.637-.637c.357-.055.603-.086.845-.131.453-.084.679-.561.367-.85-.751-.693-.631-1.451-.212-2.344zm5.617-3.22l.488-.755c-1.67.292-1.932.562-1.762 1.668.556-.159 1.109-.317 1.785-.513-.298-.234-.427-.336-.511-.4zm-14.991 1.769c-.325.071-.618.295-.923.461l.109.18 1.335.145c-.241-.376-.431-.805-.521-.786zm10.319-3.445c.223.173.447.342.664.518.205.166.404.34.605.511-.341-1.15-.74-1.43-1.269-1.029zm2.166 4.396l.055-.206-1.482-.406c.38.987.902.806 1.427.612z"/><path d="M35.303 6.644c-.313-.777-.545-1.586-.835-2.372C33.073.498 29.691-.385 26.969.137c-3.033.582-5.194 2.406-6.804 4.964-.37.587-.739 1.175-1.129 1.748a2.298 2.298 0 0 1-.48.485c-.505.397-.734.916-.58 1.528.103.409-.006.699-.245.994-.674.832-1.511 1.472-2.405 2.042a.662.662 0 0 1-.364.076c-.98-.038-1.495.443-1.7 1.405-.136.638-.354 1.294-.694 1.844a11.926 11.926 0 0 1-3.401 3.546c-.112.078-.252.153-.384.161-1.131.073-1.523.432-1.688 1.561-.166 1.133-.617 2.099-1.594 2.768-.454.311-.89.646-1.329.978-.219.165-.426.213-.715.144-.856-.203-1.698.322-1.777 1.145-.104 1.084-.495 2.072-.848 3.082-.352 1.006-.637 2.034-.799 2.556-.281 3.134 1.25 5.524 3.691 6.261.684.207 1.42.324 2.133.33 1.472.013 2.945-.123 4.417-.113 1.39.009 2.496-.402 3.16-1.699a.602.602 0 0 1 .285-.243 94.937 94.937 0 0 1 2.399-1.007c.814-.324 1.643-.505 2.541-.362.897.143 1.592-.491 1.682-1.403.019-.19.115-.442.26-.54.712-.482 1.44-.94 2.167-1.399.006.277.133.533.652.717l-.888.098.005.222c.271-.017.543-.051.813-.042.145.003.309.05.421.135.049.035-.011.217-.021.332-.009.113-.068.264-.019.331.271.364.083.55-.222.741-.227.143-.424.332-.635.5l.123.156 1.844-.953c-.178-.271-.324-.475-.452-.69a92.291 92.291 0 0 1-.81-1.398c-.085-.149-.229-.313-.217-.462.002-.031.016-.053.02-.084.092-.057.18-.119.271-.176.211-.129.49-.182.743-.205.763-.07 1.303-.48 1.425-1.221.114-.684.465-1.207.938-1.67a6.528 6.528 0 0 1 2.862-1.652c.792-.218 1.276-.852 1.149-1.602-.144-.846.084-1.563.553-2.25.553-.811 1.074-1.645 1.631-2.454.078-.114.264-.199.41-.213 1.079-.107 1.662-1.026 1.35-2.055-.121-.396-.189-.873-.089-1.263.423-1.635.985-3.237.962-4.961-.001-.137.145-.304.266-.409.635-.552.736-1.308.32-2.028a14.754 14.754 0 0 1-.87-1.789zm-5.462 12.104c-.056.083-.118.163-.175.241-.671-.292-.82-.219-1.309.287-.301.311-.693.561-1.087.749-.503.238-.745.554-.603.984.121.369.437.527.85.47.226-.011.433-.071.624-.171-.13.604-.247 1.201-.401 1.787-.025.1-.215.167-.34.227-.295.142-.575.304-.854.465a2.6 2.6 0 0 1 .284-.355c.121-.127.311-.187.471-.277l-.137-.229-1.623.916c-.223.258-.521.594-.809.943-.047.057-.071.178-.041.237.018.035.05.069.087.097-.48.471-.917.988-1.254 1.613-.289.533-.651.821-1.19 1.061-1.778.785-3.381 1.832-4.625 3.364a.533.533 0 0 1-.322.176c-.756.083-1.475.289-2.179.544-.259-.349-.615-.389-1.238-.27l.219.67a109.83 109.83 0 0 1-1.876.776c-.635.257-1.053.74-1.407 1.303-.079.125-.24.275-.37.281-1.5.072-3.002.123-4.504.165-.302.008-.605-.044-.907-.077-1.736-.191-2.364-1.715-2.153-2.912.126-.719.39-1.415.616-2.115a44.4 44.4 0 0 1 .706-2.002.63.63 0 0 1 .296-.323c1.491-.694 2.818-1.644 3.883-2.871.579-.665.871-1.577 1.304-2.371.09-.165.2-.351.352-.446a16.765 16.765 0 0 0 2.921-2.32c.074.171.169.333.278.489-.158.259-.267.534-.284.798a.746.746 0 0 0 .583.801.715.715 0 0 0 .848-.505c.121-.436.366-.69.793-.825a.713.713 0 0 0 .5-.887c-.089-.357-.428-.576-.832-.538-.483.045-.995.383-1.367.821l-.222-.459a13.132 13.132 0 0 0 2.594-3.969c.052-.125.191-.241.318-.307.425-.222.828-.473 1.217-.738a.909.909 0 0 0 .396.53c.407.27.73.663 1.113.974.107.086.368.152.428.094.1-.098.19-.295.176-.428.31-.063.531-.322.587-.743.059-.451.292-.765.673-1 .436-.271.546-.687.306-1.067-.221-.349-.651-.437-1.07-.198-.732.417-1.151 1.038-1.31 1.712a4.881 4.881 0 0 0-.515-.45 12.341 12.341 0 0 0 1.777-1.764c.563-.685.939-1.454.996-2.357a.773.773 0 0 1 .138-.351c.492-.765 1.007-1.517 1.484-2.291.912-1.482 2.1-2.651 3.719-3.331 1.104-.463 2.234-.561 3.385-.149.796.287 1.369.821 1.694 1.584.328.769.586 1.568.88 2.352.092.245.208.486.315.728-.043-.041-.09-.08-.13-.121-.122-.125-.176-.318-.26-.48l-.233.128c.274.533.55 1.065.855 1.655l.048.044c-.033.461-.205.935-.294 1.401a3.022 3.022 0 0 0-.047.475c-.009.28-.058.492-.343.669-.172.106-.234.432-.287.671-.051.227-.057.412-.367.426-.203.008-.36.064-.492.142-.146-.062-.287-.311-.69-1.037-.455.073-.88.222-.476.764.48.64.389 1.103-.268 1.578l1.44-.077a.87.87 0 0 0 .19.104l.256.154-.012-.095c.023.003.04.013.063.015l.234.02c-.095.721-.187 1.417-.282 2.114-.007.052-.035.119-.076.147-.775.543-1.13 1.409-1.636 2.16z"/><path d="M25.425 18.493c-.417-.093-.765.109-.895.546-.149.503-.312.948-.871 1.188a.669.669 0 0 0-.263.209c-.018-.236-.115-.491-.094-.709.004-.047-.318-.124-.462-.178l.12 1.499a.746.746 0 0 0 .286-.176.999.999 0 0 0 .124.601c.231.385.681.525 1.041.272.854-.597 1.354-1.436 1.565-2.367.044-.482-.179-.801-.551-.885zM13.72 28.936c-.343-.161-.715-.045-.937.296a2.335 2.335 0 0 1-.236.318l.131-.558c-.438.188-.63.396-.699.613-.072-.028-.136-.052-.231-.097-.354-.169-.751-.07-.958.237-.212.313-.184.739.138.97.307.219.671.359 1.011.533.951.011 1.871-.535 2.156-1.328.151-.417.003-.805-.375-.984zm6.059-4.884c-.279-.014-.549.137-.671.469-.147.406-.458.616-.824.771-.172.074-.364.105-.527.192-.324.174-.487.446-.394.823.091.37.339.566.716.572.926.014 2.196-.98 2.423-1.889.116-.458-.183-.889-.723-.938zm9.65-14.119c.026.271-.013.547-.012.821.001.425.272.733.668.77.376.036.69-.197.786-.592.031-.125.042-.256.063-.384l.042-.007c-.06-.485-.052-.992-.202-1.447-.105-.323-.377-.641-.658-.847-.331-.242-.815-.084-1.037.231-.228.326-.165.663.147 1.011a.825.825 0 0 1 .203.444zm-.231 4.442c-.371.087-.611.437-.529.863.071.376-.035.556-.416.645a.702.702 0 0 0-.539.854c.09.406.439.641.872.585.849-.111 1.548-.862 1.619-1.855-.02-.103-.039-.334-.107-.55-.139-.437-.494-.639-.9-.542zm-5.825-5.774c.079-.033.263-.078.409-.177.427-.285.833-.598 1.256-.887.313-.212.442-.565.31-.903-.132-.334-.495-.555-.837-.454-.756.223-1.386.655-1.828 1.31-.315.464.021 1.065.69 1.111zM23.79 23.2c-.313-.13-.678-.088-.811.202-.229.496-.619.795-1.01 1.128-.255.218-.27.539-.105.834.163.291.422.437.761.382.26-.042.521-.179.76-.366l.562.36c-.548-.509.3-.654.282-.843l-.339-.049c.198-.284.335-.604.364-.913.005-.327-.134-.599-.464-.735zm-6.177 5.47c-.366-.22-.735-.1-1.047.287-.093.116-.295.14-.438.222-.249.143-.581.244-.705.461-.102.178-.028.555.108.742.15.207.46.299.608.387.867-.01 1.338-.421 1.687-1.01.257-.432.164-.863-.213-1.089zm-6.967 3.575c-.202-.107-.529-.091-.76-.011-.386.134-.739.363-1.107.55-.319.162-.476.424-.429.773s.261.57.619.625c.537.082 1.722-.534 1.957-1.015.037-.076.058-.161.124-.353-.108-.16-.204-.46-.404-.569z"/></g></svg>