<svg xmlns="http://www.w3.org/2000/svg" width="450.527" height="241.369" viewBox="0 0 450.527 241.369"><path fill-rule="evenodd" clip-rule="evenodd" fill="#E45028" d="M88.635 55.399c-.349-.211 8.641-10.13 6.157-15.938-.63-6.703-10.428-6.732-14.557-15.129-5.058-10.734 4.009-17.62 11.399-16.585 8.091.823 16.464 8.521 18.599 16.604.917 4.871 1.853 10.732-3.647 17.428-4.208 6.782-16.747 12.21-17.951 13.62z"/><path fill-rule="evenodd" clip-rule="evenodd" fill="#F9B43B" d="M166.258 26.605c-.229-.048 2.804-7.127.375-9.796-1.589-3.506-6.913-1.654-10.716-5.409-4.743-4.843-1.104-10.296 3.099-11.145 4.544-1.098 10.521 1.471 13.184 5.437 1.405 2.46 3.003 5.453 1.265 10.124-1.022 4.47-6.816 9.796-7.207 10.789zm224.721 59.18c.297.081 1.074-10.269 5.551-12.002 4.004-3.249 9.104 2.208 15.854.002 8.514-2.941 7.587-11.706 3.184-15.277-4.649-4.078-13.218-4.619-18.76-1.469-3.148 2.105-6.85 4.732-7.67 11.402-1.538 5.994 1.99 15.914 1.841 17.344z"/><path fill-rule="evenodd" clip-rule="evenodd" fill="#E45028" d="M413.539 222.698c.139.273 8.389-5.729 12.708-3.484 5.132.927 4.508 8.214 10.716 11.858 7.951 4.496 13.864-1.771 13.553-7.338-.1-6.071-5.489-12.824-11.587-14.965-3.699-1.016-8.161-2.113-13.692 1.518-5.514 2.662-10.53 11.612-11.698 12.411z"/><path fill-rule="evenodd" clip-rule="evenodd" fill="#F9B43B" d="M47.977 223.166c.022.232-7.637-.575-9.47 2.533-2.881 2.555.46 7.094-2.005 11.836-3.227 5.961-9.511 4.094-11.563.328-2.39-4.018-1.7-10.486 1.302-14.201 1.936-2.068 4.323-4.479 9.3-4.196 4.573-.345 11.372 3.619 12.436 3.7z"/><path fill-rule="evenodd" clip-rule="evenodd" fill="#E45028" d="M50.721 113.398c-.063.44-14.106-4.43-18.943.528-6.559 3.467-2.304 13.354-9.06 21.062-8.732 9.633-19.717 3.403-21.894-4.482-2.7-8.502 1.488-20.194 8.795-25.76 4.565-2.982 10.133-6.401 19.365-3.686 8.756 1.375 19.773 11.72 21.737 12.338z"/></svg>