<svg xmlns="http://www.w3.org/2000/svg" width="48" height="30.317" viewBox="0 0 48 30.317"><g fill="#F9B43B"><path d="M20.475 5.926l.494.482c.582.569 1.246.883 1.869.883a1.63 1.63 0 0 0 1.36-.702c.25-.359.204-.811.155-1.048-.075-.361-.247-.635-.498-.79-.427-.265-.852-.399-1.263-.399-.448 0-1.089.167-1.652.916.185-.029.37-.062.552-.079l.042.273-.78.062-.279.402zm-7.481 3.139l-.699-.837-.605.908c-.037.054-.087.112-.136.171-.243.292-.61.734-.387 1.289.173.429.431.801.659 1.129.079.114.158.227.233.342l.342.448 1.325-.239.16-.444c.019-.052.049-.109.078-.167.142-.29.381-.774.1-1.253-.23-.394-.516-.716-.792-1.028a11.97 11.97 0 0 1-.278-.319zm18.189 1.217l2.492-2.583-.654-.563c-.055-.048-.119-.113-.184-.176-.295-.291-.55-.541-.949-.541l-.238.003-.191.113c-.535.314-.982.715-1.385 1.099-.557.527-.113 1.083.21 1.488.097.122.21.263.323.41l.576.75zM16.737 8.547c.315 0 .521-.147.861-.392.122-.087.269-.193.436-.302l.986-.647-1.403-1.027a19.486 19.486 0 0 0-.838-.599 7.096 7.096 0 0 1-1.084-.101c.311 0 .622.004.933.005-.068-.042-.135-.085-.205-.126l-.2-.113h-.219c-.404 0-.64.251-.913.543-.055.058-.109.118-.155.162l-.606.575.866.875c.076.078.157.157.235.236.182-.143.458-.196.838-.154-.206.125-.301.359-.419.557.116.107.229.216.353.318l.242.19h.292z"/><path d="M6.683 12.869c-.062.327-.124.659-.197.995l-.35 1.597h4.374l.22.533.102-.533H28.01a1.053 1.053 0 0 0-.151.44c.08.081.159.162.238.246l.512-.686h15.08l-.114-1.772a9.156 9.156 0 0 0-.054-.694c-.437-3.416-2.178-6.204-5.325-8.523-3.564-2.625-8.234-4.07-13.149-4.07-1.776 0-3.563.2-5.313.594l-.582.157.113.256a.8.8 0 0 0-.159.505c.01.18.083.318.174.425l-.053.021.108.43c.018.069.042.141.068.213l.019.054-.186-.35-.25.065c.009.197-.011.41-.005.609.154-.045.313-.08.47-.119l.007.506.608-.145a21.647 21.647 0 0 1 6.481-.54l-.813.767 1.225 1.255c.315.33.643.671 1.038 1l.382.3h.466c.463 0 .771-.212 1.154-.474.115-.079.252-.172.406-.269l1.632-1.016-1.057-.791c2.099.605 4.022 1.534 5.653 2.735.16.118.304.24.454.36-.555.152-1.062.897-1.065.905l-.234.448.268.407c.268.403.568.764.859 1.113l.741.899.048-.039c-.192-.484-.326-1.001-.691-1.389-.103-.11-.038-.377-.051-.571l.197-.051 1.15 1.514 1.051-.864a8.899 8.899 0 0 1 1.47 3.506h-5.209c.072-.056.143-.112.208-.166.076-.062.151-.126.227-.176l.931-.611-2.454-1.999-2.379 2.061.992.573c.089.052.178.116.268.179.063.045.133.092.203.139h-7.494l1.725-2.227-1.203-1.258a1.215 1.215 0 0 1-.061.294c-.059.187.255.502.415.746.089.137.216.249.419.477-.878-.263-.936-.307-1.246-.976-.193-.416-.376-.838-.562-1.258l-.422.644c-.051.078-.117.156-.182.234-.246.301-.583.713-.545 1.253.037.516.355.891.612 1.192.069.083.142.164.198.247l.441.633H18.77l.864-.85c.323-.313.658-.637.963-1.005.428-.517.068-1.023-.194-1.393-.088-.125-.195-.274-.306-.445l-.644-.993-.699.955-.343.463c-.327.437-.584.783-.811 1.176-.343.596.133 1.057.418 1.332.057.055.114.109.156.156l.552.604h-9.36c.103-.527.214-1.026.374-1.48.704-1.993 2.073-3.627 4.309-5.145.655-.444 1.36-.847 2.111-1.207l.01-.001-.003-.003a19.35 19.35 0 0 1 2.453-.968l.422-.135-.495-2.6-.534.166c-2.018.624-3.849 1.488-5.442 2.57a17.624 17.624 0 0 0-1.994 1.572l-.202.253.055.276c.004.059.012.114.021.166l-.311-.274c-1.189 1.183-2.044 2.46-2.634 3.869l-1.423.409.1.299 1.19-.392c-.035.091-.081.177-.113.27-.277.786-.427 1.589-.577 2.395zm18.633-.945c.099-.485 1.085-1.1 1.519-.943.096.034.176.342.133.485-.154.505-.691.831-1.484.875-.046-.105-.196-.279-.168-.417z"/><path d="M18.757 1.756l-.009.003.002.004zm25.115 27.825l.463.736c.242-.171.476-.297.643-.482.053-.059-.082-.405-.12-.404-.293.013-.584.079-.986.15zm.786-9.351c-.769-.087-1.122.218-1.101.876.728.15.665-.609 1.101-.876zm-10.184 2.815c.032.1.066.199.099.298l1.603-.528-.08-.237c-.542.154-1.083.311-1.622.467zm1.479-5.722c-.173.074-.309.236-.454.356.17.069.34.187.517.198a.637.637 0 0 0 .437-.182c.059-.059.025-.332-.03-.355-.14-.056-.336-.075-.47-.017zm-8.577 3.881l-.493 1.176c.676.088.566-.543.772-.861.022-.036-.191-.219-.279-.315zm2.183-10.63c.022.192.144.394.276.545.07.08.254.059.387.083.014-.162.013-.326.045-.483.047-.224.117-.442.184-.68h-.711c-.073.195-.2.374-.181.535zm-2.162-2.418l.392-1.692c-.593.261-.815 1.045-.392 1.692zm-11.451 2.273c.242-.172.476-.297.643-.483.053-.059-.082-.406-.12-.404-.292.013-.583.08-.985.15l.462.737zm13.143-1.602c-.488-.455-.678-.467-1.246-.099l.268.51.978-.411zM0 11.548l.013.178c.25.167.501.332.95.629-.035-.377-.011-.775-.087-.794-.274-.074-.582-.019-.876-.013zm9.129 4.622a2.18 2.18 0 0 1-.051-.047c-.002.018 0 .031-.002.047h.053zm-7.464-4.476c.416.248.875.128 1.324.099l.027-.247c-.442-.029-.885-.056-1.327-.084l-.024.232zm27.026 6.232v-1.268c-.078.003-.156.006-.235.011l.094 1.285.141-.028zM9.933 1.098L8.978 0l-.143.136.992 1.067.106-.105zm36.638 3.344v.676l1.326.282.103-.31-1.429-.648z"/><path d="M43.439 19.361l-.075-1.169h-1.171c-.299 0-.599.01-.973.021-.601.019-1.198.024-1.649-.029a12.298 12.298 0 0 0-1.469-.093c-.421 0-.82.033-1.207.086h-7.406a9.105 9.105 0 0 0-.397-.009l-1.567.009h-.071l-1.64.01v.002h-.35c-1.891.008-3.956.011-6.364.011l-12.334-.008-.051 1.195c-.108 2.549.884 5.131 2.723 7.084 1.844 1.958 4.374 3.107 6.941 3.152a527.698 527.698 0 0 0 17.227.025c2.682-.04 5.315-1.249 7.225-3.316 1.311-1.418 2.185-3.176 2.492-4.994l.043.039.082-1.008-.013.001a7.93 7.93 0 0 0 .004-1.009zm-17.408-.593c.062.164.095.317.126.472a3.532 3.532 0 0 0-.209-.471.402.402 0 0 1-.051-.169l-.01-.219.144.387zm12.966 5.87c-1.447 1.567-3.426 2.483-5.429 2.514-5.604.085-11.427.077-17.145-.025-1.899-.034-3.783-.896-5.167-2.367-1.085-1.153-1.781-2.583-1.987-4.069l9.831.006c2.408 0 4.464-.004 6.353-.012v.002l.477-.003.176-.001.959.006-.01-.012 2.107-.012c.25 0 .469.02.773.07h6.76l.095-.011c.641-.144 1.363-.166 2.197-.087l.631.056c.381.028.824.038 1.285.027-.189 1.405-.856 2.78-1.906 3.918z"/></g></svg>