<svg xmlns="http://www.w3.org/2000/svg" width="73" height="85.875" viewBox="0 0 73 85.875"><g fill-rule="evenodd" clip-rule="evenodd" fill="#F9B43B"><path d="M10.708 60.967l2.087-.408c.2-.034.268-.148.235-.334l-.533-3.403c.293-.169.602-.34.928-.486.069-.026.138-.052.209-.064a.858.858 0 0 1 .195-.063l.249-.087c.083-.029.169-.044.266-.076l.364 3.021c.033.023.063.019.067.047-.026.019-.037.037-.052.038l.055.402.043-.008.007.043c.002.015-.024.033-.049.053l.03.171c.03.17.178.263.335.235l2.11-.367c.199-.035.27-.135.235-.336a148.827 148.827 0 0 1-.711-4.34c-.243-1.647-.414-3.307-.583-4.951-.001-.089-.042-.155-.111-.216a.323.323 0 0 0-.229-.049l-1.925.336c-.185.032-.256.133-.238.32l.394 3.442-1.316.288c.028-.006.059.004.074.001 0 0-.004.059-.047.067-.043.007-.074-.003-.076-.018l-.036-.036-.554.11-.365-3.446c-.013-.16-.166-.279-.351-.247l-1.818.36c-.185.031-.253.146-.238.32l.994 9.417c.033.187.169.296.355.264zm1.957-2.001l.005.028-.07.012-.005-.027.07-.013zm.155-3.919c-.002-.014.01-.031.024-.034l.047.021-.071.013zm.004-.237l.014-.002c.014-.003.011-.016.025-.018 0 0 .017.011.019.025-.014.002-.012.016-.009.03l-.049-.035zm.202.406l-.008-.042.029-.005.007.042-.028.005zm.733-.009l-.007-.043.028-.005.008.043-.029.005zm.396.166c-.024.033-.036.051-.064.057l-.06-.006c-.015.003-.017-.012-.031-.009 0 0-.015.002-.018-.011l.002-.075c.045.008.09.013.119.009l.1-.018c-.013.002-.024.019-.048.053zm-.008-.719l.026-.02.062.02.003.015-.091-.015zm.301.713l-.06-.005c.029-.006 0 0-.061-.019l.02-.049.128-.021.012.071s-.011.018-.039.023zm.018-.401l.005.029-.071.012-.005-.029.071-.012zm-.049-.446s-.013.003-.019-.026l.072-.013-.035.049s-.015.003-.018-.01zm.383 3.296c-.014.002-.042.008-.073-.002-.002-.015.024-.033.049-.053l.057-.011.007.044c-.014.003-.028.005-.04.022zm-.054-2.252c.028-.006.057-.01.074.002-.012.017-.007.045-.033.064l-.041-.066zm.13 3.193l-.017-.012.012-.016.015-.003c.028-.005.059.003.062.018-.026.021-.041.022-.054.024l-.015.003-.003-.014zm1.027-.09c-.022-.039.006-.133.004-.147.002.015.007.043.024.056.021.04.026.067.043.079l-.071.012zm.38.83l-.007-.042.042-.008c.003.015.016.012.047.021a.226.226 0 0 1-.082.029zm.109-.386c-.031-.011-.045-.008-.045-.008-.014.003-.028.006-.048-.021-.002-.015.009-.031.023-.034l.072-.012c.002.015.019.025.033.024l-.035.051zm.058-.26l-.029.005c-.019-.025-.036-.037-.024-.055-.002-.015-.031-.009-.059-.005-.003-.014.021-.048.073-.086l.039-.036c.014-.002.025-.02.038-.035l.038.053c.005.027-.007.044-.033.063-.026.019-.036.051-.016.076-.016.002-.03.005-.027.02zm.251.177l.012.071-.029.005-.013-.07.03-.006zm-.037.461a.552.552 0 0 1-.136.068l-.016-.012c-.003-.015-.02-.027-.02-.027l-.007-.042c-.002-.015.012-.017.012-.017-.003-.015.011-.017.026-.02.014-.002.042-.008.06.005.031.01.048.021.076.017l.005.028zm-.068-4.1l.052.299c-.041.022-.103.004-.107-.025l-.044-.256.099-.018zm-.207 2.357l.042-.009c-.014.003-.011.018-.011.018l-.012.017c-.011.016-.009.03-.006.045l.045.008.015-.002c-.002-.015.012-.019.012-.019.025-.019.038-.036.052-.038.014-.003.031.009.048.021.002.015.017.013.034.024l-.017.076c-.031-.01-.059-.004-.102.003l-.057.01c.002.015-.012.016-.04.021-.033-.023-.038-.053-.058-.078-.002-.015-.021-.041-.043-.082.042-.007.067-.025.098-.015zm-.177.5c.017.013.048.022.062.019.028-.005.043-.007.076.017-.015.002-.012.016-.01.03-.011.017-.025.02-.054.023a.23.23 0 0 1-.122-.021l.048-.068zm-.036-.375l.005.028-.091-.014c-.005-.029.021-.048.062-.069l.024.055zm-.135-.271l.014-.003c-.002-.014-.002-.014.011-.016l.018.011s.002.015.016.012l.003.015-.052.04c-.003-.015-.003-.015-.019-.027-.017-.012-.017-.012.009-.032zm-.118.167l.05.034.012.073c-.042.007-.057.009-.068.027l-.008-.044c-.02-.026-.024-.055-.034-.111.014-.002.031.008.048.021zm-.112-2.418c.002.015.016.011.019.025 0 0 .017.013.031.01-.044.081-.047.067-.078.058-.014.003-.016-.012-.021-.04-.006-.029.005-.046.049-.053zm.036 1.727c.003.015-.019.062-.062.069.007-.046.033-.064.062-.069zm-.016 1.001c.025-.019.057-.01.073.003.014-.003.023-.034.03-.078l.064.032.008.042-.023.033-.029.005c-.028.005-.041.021-.054.024-.012.018-.026.02-.041.022-.029.005-.045-.007-.062-.02-.015.003-.02-.025-.053-.049l.087-.014zm-.085.441c-.071.013-.103.004-.112-.055.014-.001.031.01.062.019.001.015.018.027.05.036zm-.136-1.622c.017.012.036.038.038.053l.008.042-.072.013-.018-.1.044-.008zm-.098 2.896l-.058.01c-.057.011-.138-.034-.143-.063-.002-.015.007-.044.031-.078a.287.287 0 0 0 .214.05c-.02.048-.03.079-.044.081zm-.17-.718l-.023.032c-.014.002-.071.013-.05-.034l.073.002zm-.063-.871l.026-.021.031.011-.026.019-.031-.009zm.156-2.231l.004-.059.029-.006-.004.059-.029.006zm.054-.699l-.036.05-.16.013-.01-.057.012-.017.143-.024c.02.026.036.037.051.035zm-.141-2.326l.084.06c-.015.003-.048-.021-.095-.043-.031-.009-.064-.032-.066-.047l.077.03zm-.019 3.602s.014-.003.048.021c.016.012.033.023.036.038l-.028.005-.012.017-.07.012-.044-.079.07-.014zm-.198 2.912c.045.008.076.018.091.015.028-.006.026-.02.055-.024.012-.018.026-.02.041-.021l.014-.003.005.029a.342.342 0 0 1-.113.107c-.042.007-.081.044-.119.079-.034-.022-.026-.142.026-.182zm-.205.008c-.028.004-.064-.033-.012-.071.031.008.06.004.06.004a.172.172 0 0 1 .09.015l-.138.052zm.086-8.284l.01.057-.042.008-.01-.058.042-.007zm-.074 3.538c.017.012.031.009.046.007l.033.022c-.011.017-.026.02-.026.02-.012.017-.026.02-.041.021a.175.175 0 0 1-.083.028l-.057.01c-.017-.011-.031-.009-.063-.018l.016-.076c.072-.012.103-.002.131-.008l.044-.006zm-.16-3.278l.005.029-.042.007-.005-.028.042-.008zm-.043.258l.01.057-.029.005-.01-.057.029-.005zm-.029 5.484l.062.018.002.015c.003.015.003.015-.026.02l-.085.015c-.005-.03.02-.048.047-.068zm-.15-4.909l-.114.02-.005-.028.114-.021.005.029zm-.123-.199l.005.027-.1.018-.005-.028.1-.017zm-.111 2.737c.043-.009.074.002.093.026l-.113.02.02-.046zm-.092-3.568c.002.015.016.012.033.023l-.062.069c-.017-.012-.067-.048-.072-.076l.101-.016zm-.286 3.251c.033.024.064.034.093.028.028-.004.054-.024.078-.058.002.015.031.009.06.005-.078.057-.1.105-.111.12-.009.032-.064.057-.175.09-.031-.008-.033-.022-.041-.064-.006-.03.084-.104.096-.121zm-.454-.245l.034.024-.029.004-.031-.009.026-.019zm-.01.62l.012-.017.014-.002c.012-.018.024-.035.038-.037l.072-.013.002.015c.028-.004.1-.017.084-.104.007.043.072.076.143.063 0 0 .012-.017.026-.019l.085-.016c-.025.02-.068.115-.063.145-.022-.041-.053-.05-.082-.046a.241.241 0 0 0-.121.065c.034.023.064.034.093.029.028-.006.028-.006.025-.02l.029-.006c.057-.009.105.01.157.06l.01.059-.185.032c-.048-.021-.113-.055-.186-.056-.077-.018-.11-.039-.129-.065l-.087.001c-.003-.027.021-.061.063-.068zm-.229-.387l.114-.02.017.011c.002.015.017.013.02.027l-.036.05c-.028.005-.062-.019-.123-.037l.011-.018-.003-.013zm-.082.118c.003.015.019.025.022.04.004.029-.045.082-.068.113-.012.018-.026.02-.024.034l-.055-.063c-.027-.069-.042-.066.014-.09.066-.041.094-.047.094-.047.003.015.003.015.017.013zm-.164-.354c.029-.006.074.002.124.036 0 0-.012.019-.009.031-.012.017-.009.031-.009.031.017.012-.015.003-.076-.016-.031-.01-.048-.021-.051-.036l-.005-.028c.017.013.014-.001.026-.018zm-.156.454l-.006-.028.072-.013.004.028-.07.013zm-.019-.189l.086-.016c-.019.063-.059.085-.118.08-.002-.014.007-.044.032-.064zm-2.042 5.055c-.071.013-.13.01-.167-.027-.005-.029.007-.046.036-.051.057-.011.102-.003.162.002l.01.056c-.026.018-.041.02-.041.02zm-.19-6.912l.023-.033.014-.003-.007.045-.03-.009zm.195 5.677l.028-.004.007.043-.028.005-.007-.044zm.056.154l-.031-.01.026-.019.031.009-.026.02zm.111.802l-.013-.07.028-.005.013.071-.028.004zm.132.507c-.012.016-.009.029-.007.044-.009.032-.006.046-.001.073l-.027-.155.042-.008c-.01.032-.01.032-.007.046zm.168-1.146c-.017-.013-.031-.01-.06-.004-.014.002-.017-.013-.021-.041l.072-.012c.016.012.031.009.031.009.004.028.007.043-.022.048zm.067-1.643c-.026.021-.052.039-.064.055-.012.018-.026.021-.041.022-.016-.012-.038-.052-.072-.075a.284.284 0 0 0-.072-.076l.219-.096s.002.015.033.023.034.023.039.053c.004.028-.005.058-.042.094zm.145-4.224l-.029.005-.152-.032-.015-.087.063-.055.058-.01c.016.012.019.025.023.055a.046.046 0 0 0 .01.057c.031.01.051.036.054.05l-.012.017zm.676 5.741c-.014.002-.028.006-.031-.009.026-.019.024-.033.021-.048.014-.003.016.012.034.024.016.011.019.025.005.027l-.029.006zm.182.116l.017.011s.002.015.017.013l-.057.01.023-.034zm-.098-1.407l-.036.049-.071.013-.007-.043.114-.019zm-.112.959c.014-.003.014-.003.026-.02.06.005.079.03.083.059s-.019.063-.07.101c0 0-.005-.028-.024-.054-.003-.015-.02-.026-.022-.041-.005-.029.007-.045.007-.045zm-.091-1.365l.046.007-.027.02-.033-.024.014-.003zm.034.787c-.052.039-.078.058-.09.074l-.071.013a.327.327 0 0 1 .082-.117c.03-.004.077.016.079.03zm-.215-.903l.012-.016s.012-.019.026-.021c.028-.005.057-.01.073.002l.008.043c-.012.018-.052.039-.109.049l-.028.005-.01-.059.028-.003zm-.03 1.857c.029-.006.057-.01.055-.024.011-.018.026-.02.026-.02-.033.063-.108.137-.152.144-.014.003-.042.008-.044-.005-.029.004-.046-.008-.06-.006.004-.06.028-.094.085-.104.028-.005.045.008.059.006.002.015.017.011.031.009zm-.178-1.865a.309.309 0 0 0 .112-.034l.002.015.017.013.002.015c-.014.002-.045-.008-.088 0-.042.007-.088 0-.117.005l.072-.014zm-.036 2.24c.031.01.06.004.088-.001.031.01.062.02.067.047.002.015-.01.031-.036.051l-.128.021c-.002-.014-.016-.011-.016-.011-.015.003-.017-.012-.02-.026-.004-.028.019-.063.045-.081zm-1.578-7.29c-.043.007-.074-.002-.093-.027l-.025-.144c.014-.002.026-.019.041-.021.028-.005.054-.023.083-.028l.007.043s-.012.017-.009.03c.005.028.02.025.036.037.016.012.045.007.05.036-.052.039-.075.072-.09.074zm.176.248l-.012-.07.043-.008.012.071-.043.007zm.167-.557c.028-.006.052-.038.087-.09l.114-.02.007.044c.003.013.017.011.045.006l.085-.015a.626.626 0 0 0 .141-.038l.085-.016c.042-.007.097-.032.125-.037l.029-.005s.218-.009.275-.019c.063.019.093.028.126.052l-.036.05c-.014.003-.042.007-.059-.004l-.048-.021c-.228.04-.387.053-.487.07-.1.017-.146.011-.16.013-.015.003-.054.023-.097.031l-.095.047a.686.686 0 0 1-.253-.016c.06-.023.086-.042.116-.032zm12.81 5.392l.446 1.714c.043.169.159.237.329.207l2.153-.375c.005-.001.008-.004.012-.004.034.066.068.136.108.22.07-.088.199-.183.186-.245-.016-.071-.044-.14-.071-.208a.309.309 0 0 0-.01-.153l-1.449-3.977a.266.266 0 0 0 .087-.12c.2-.6.658-.725 1.267-.716-.106-.345-.257-.448-.552-.23a3.874 3.874 0 0 1-.53.315c-.239.124-.42.114-.544.007l-.172-.475-.01-.192c-.024-.007-.046-.018-.07-.026l-.136-.373a33.68 33.68 0 0 0-.616-1.509c-.14-.299-.302-.638-.47-.932-.298-.447-.706-.847-1.269-.792-.304.022-.59.072-.824.158-.321.1-.622.227-.925.338a.328.328 0 0 0-.184.208c-.27 1.148-.538 2.311-.776 3.469a35.896 35.896 0 0 0-.445 2.59 97.522 97.522 0 0 0-.397 3.536c.006.203.15.355.335.322l2.118-.324c.142-.025.229-.114.248-.264l.085-1.366 2.076-.803zm-.241-1.471l-.005-.029.042-.008.005.029-.042.008zm.025-.693l.007-.046.028-.005-.004.06-.031-.009zm.188 1.669l-.01-.057.042-.007.01.056-.042.008zm.054-1.552c-.014.003-.011.018-.009.032l-.105-.012c.012-.017.012-.017.009-.031l.024-.033c.043-.008.074.003.088-.001.004.029.004.029-.007.045zm-.095-.292c-.029.006-.058.011-.083.03l-.055-.064c.028-.005.068-.027.114-.02l.214-.037c.005.028-.044.081-.087.089-.044.008-.089 0-.103.002zm.094-.133l-.081-.045-.01-.056.1-.019.019.025c.002.015.02.027.024.057l-.029.004c-.012.016-.012.016-.026.019l.003.015zm.125.801l.012.072-.057.01-.013-.071.058-.011zm.003.439l.07-.1c.003.015.019.026.048.021.033.022.05.034.053.049.005.028-.031.079-.08.132a.418.418 0 0 1-.15-.018c.038-.035.047-.067.059-.084zm-.023.709l.199-.035.008.044-.143.025c-.003-.014-.019-.027-.064-.034zm.161.678l-.01-.058.1-.018.01.058-.1.018zm.046-1.007l.085-.015.02.114c-.062-.018-.095-.042-.105-.099zm.132 1.269l-.031-.096c.017.011.03.009.076.015l.093.028-.138.053zm1.112-1.206l-.057.011-.005-.029.057-.011.005.029zm-.503-.192c.012.071.02.114.037.126l.064.032c.014-.002.028-.004.047.021-.054.024-.081.042-.083.029-.012.016-.04.021-.083.028-.085.015-.146-.077-.151-.106l.107-.062c.043-.005.055-.024.062-.068zm-.049-.873l.088-.001.002.015-.085.016-.005-.03zm-.33-.882a.232.232 0 0 0-.071.101c-.009.031-.05.052-.104.076.066.047.115.068.157.061.043-.008.076.017.112.055-.028.004-.04.021-.054.023l-.2.034c-.111-.127-.163-.176-.17-.22-.007-.042-.017-.012.135-.156l.143-.024c.013-.002.03.009.052.05zm-.169.72c.004-.002.002-.003.006-.004a.15.15 0 0 1-.002.022l-.016-.002c-.003-.014-.003-.014.012-.016zm.062 1.119l-.071.013-.004-.029.071-.012.004.028zm-.009 1.118l-.01-.057c.059.005.087 0 .095.042l-.085.015zm.117.597l.021-.048c.026-.02.053-.039.064-.054.033.022.066.047.071.074l-.156.028zm.158-.865l.101-.017c.002.014.007.042-.006.045-.01.031-.024.033-.021.048-.017-.013-.031-.01-.05-.035-.017.002-.021-.027-.024-.041zm.258 1.482c.002.015.002.015-.008.032a.675.675 0 0 1-.189-.158l.143-.025c.007.044.03.083.067.134-.016.003-.013.017-.013.017zm.678-1.336c-.006.044.043.08.137.108-.05.053-.059.083-.054.111.002.015.019.025.041.066.036.038.053.05.07.063.054.137.087.248.116.332.029.082.063.193.117.332-.023.034-.038.036-.066.041-.042.008-.164-.09-.17-.133l-.005-.028c.012-.018.01-.032.007-.046a.194.194 0 0 1-.119-.096c-.01-.058-.031-.098-.037-.126-.017-.012-.031-.01-.05-.035-.015.002-.031-.011-.033-.023-.031-.01-.034-.024-.05-.036l-.05-.035.014-.002-.002-.015.015-.002-.035-.2-.085.015c-.026.02-.04.021-.069.026a.694.694 0 0 1-.173.017c.144-.099-.127-.14-.189-.158l-.022-.129a.116.116 0 0 1 .019-.062c.012-.017.009-.03.007-.045-.003-.015-.003-.015.012-.017.014-.003.026-.021.023-.034.01-.031-.053-.05-.093-.027.011-.018.006-.046.011-.105-.007-.043.03-.078.116-.093a.156.156 0 0 0 .094-.047s-.002-.013-.033-.022a.209.209 0 0 0-.064-.034c-.036-.038-.041-.064-.017-.1-.065-.032-.095-.041-.065-.032-.016-.011-.033-.023-.035-.037-.015-.087.157-.189.244-.204a.876.876 0 0 1 .226.034l.02.114-.064-.033c-.085.015-.125.037-.116.093l.025.143.048.021c.026-.02.05-.053.087-.089l.085-.104c.074.091.087.163.061.181-.028.006-.038.037-.033.064.005.028.024.054.06.093.085.102.102.202.074.295zm-1.326-3.059c.042-.007.09.014.124.037-.078.057-.147.084-.226.054l-.013-.07.115-.021zm-.056-.239c.007.042-.004.059-.061.068l.061-.068zm-.053.111l.028-.005s.019.026.034.023c.005.028-.038.036-.081.043l-.005-.028c-.003-.014.009-.031.024-.033zm.084 1.159a.21.21 0 0 0 .043.082c.006.032.02.047.033.061a.136.136 0 0 1-.002.021l-.13.022-.015-.085c-.041-.067-.077-.104-.123-.11-.014.003-.044-.008-.047-.021.069-.026.145-.011.241.03zm-.162-.588s0 .088-.032.152l-.058-.165.029-.005c.002.013.017.011.017.011.014-.003.03.009.044.007zm-.08-.455c-.028.005-.03-.01-.047-.021-.017-.013-.017-.013-.019-.025.056-.011.085-.016.087-.002l-.021.048zm-.006-.72l.005.028-.091-.014-.005-.027.091.013zm-.082.969c.015-.002.031.011.046.008l.012.07-.085.015c-.018-.011-.046-.006-.075-.001-.007-.043.017-.076.057-.099.014-.003.028-.005.045.007zm-.06-1.78l-.086.015-.019-.026s-.002-.015.007-.045c.057-.012.091.013.098.056zm-.102-.246l.005.026-.1.019-.005-.029.1-.016zm-.052.963c-.014.003-.011.017-.011.017l.005.028-.086.016-.01-.057.102-.004zm-.111.797c.102-.002.167.03.196.113l-.015.003.008.043-.128.021c-.051-.034-.042-.066-.003-.102l-.086.015c-.007-.044.001-.074.028-.093zm.004 1.204l.01.058-.042.008-.01-.059.042-.007zm-.52.473l-.005-.029.072-.013.005.029-.072.013zm.046-4.797a.108.108 0 0 1-.076-.017c-.008-.042.019-.062.047-.066a.235.235 0 0 1 .135.02c-.011.018-.011.018-.009.031.002.015-.01.03-.021.048-.031-.01-.048-.021-.076-.016zm.033 3.137s.031.009.059.005c.016.012.033.023.036.038l-.085.015-.01-.058zm.061 2.633l-.019-.025.041-.022.019.027-.041.02zm.027-2.206l-.005-.029.114-.021.005.029-.114.021zm.238 1.367l-.034-.022-.057.01c.038-.036.064-.056.093-.062.006.029.011.057-.002.074zm-.063-3.059l-.048-.021.041-.021.033.023-.026.019zm-.067-1.486c.026-.02.054-.024.064-.056.042-.007.076.017.083.06.003.015-.021.048-.047.066l-.085.015c-.018-.011-.034-.022-.037-.037-.004-.028.007-.045.022-.048zm.047 2.21c.005.028-.049.052-.072.013l.072-.013zm-.33-3.071a.412.412 0 0 0 .124-.051l-.021.048c.008.042.039.052.086.073-.026.02-.037.035-.052.038l-.185.032-.034-.023c.017-.077.04-.11.082-.117zm-.141-.138c-.015.002-.026.02-.038.036-.023.033-.035.051-.032.064l-.057.011c-.005-.029-.005-.029-.022-.041l-.01-.057.159-.013zm-.147.085l.005.028-.036-.039-.008-.041.039.052zm-.064-.37l.02.113-.043.007-.02-.113.043-.007zm-.043.257c.01.057 0 .088-.009.118l-.051-.035-.015-.085c.003.014.031.009.075.002zm-.003 3.364c.083.22.151.442.22.666l.204.67-1.064.214.299-2.416c.124.287.233.576.341.866zm-.634-.61l.023-.12.031.009-.022.121-.032-.01zm.136-1.829s.012-.018.055-.025a.123.123 0 0 1 .043.082c-.028.005-.04.021-.057.01l-.071.013-.027-.07.057-.01zm-.03 1.341c.017.012.033.023.036.037 0 0 .017.013.019.027l-.022.12c-.104.077-.149.07-.215-.051.042-.094.108-.136.182-.133zm-.189-1.422l.014-.003-.007.046-.031-.01.024-.033zm-.553 1.213l.077.016c-.009.031-.023.034-.054.025-.029.004-.026.019-.026.019l-.005-.028c-.003-.015-.006-.029.008-.032zm-.468-2.356l.015.084-.057.011-.015-.085.057-.01zm-.396 7.766c.014-.003.014-.003.025-.021.057-.009.088 0 .093.028l.012.071-.026.021-.107-.025-.01-.059c-.002-.014.013-.015.013-.015zm-.25-.34l-.048-.02-.004-.029c.058.004.076.016.052.049zm.016-4.967c-.005-.028.083-.117.073-.087a.642.642 0 0 1 .04.229c-.028.004-.108-.113-.113-.142zm.188.319l.03.172-.057.01-.027-.156.054-.026zm.084 5.714c-.04.022-.068.027-.085.015-.005-.027.019-.062.061-.068.029-.006.096.041.11.04l-.086.013zm.05-.39c-.011.018-.023.034-.038.037-.072.012-.146-.079-.148-.093.114-.02.178-.076.206-.166a.245.245 0 0 0 .065.032c.014-.004.031.008.047.02l.01.058-.095.046c-.024.033-.052.037-.047.066zm.217.403l-.095-.041c-.002-.015.023-.034.075-.073.045.008.064.033.069.063-.014.001-.026.019-.049.051zm.097-.957c.002.014.002.014-.011.018-.015.002-.029.005-.031-.01a.104.104 0 0 1 .016-.075c.034.022.05.034.026.067zm.093-6.891l.042-.007a.412.412 0 0 0-.041.184l-.032-.186s.017.011.031.009zm-.01 4.247l.057-.009.018.1a.226.226 0 0 1-.023.12c-.031-.01-.049-.035-.057-.076a.584.584 0 0 1 .005-.135zm.223 3.384c-.031-.01-.06-.004-.06-.004-.017-.013-.031-.01-.064-.033a.108.108 0 0 0 .055-.024l.028-.005c-.002-.015.012-.018.026-.02l.034.023c.005.029.007.043-.019.063zm.041-1.108c-.011.017-.026.02-.039.021-.115.02-.204-.067-.21-.11-.005-.028.008-.12.122-.141.029-.004.152.033.184.042.004.029.024.056.042.082 0 0 .005.028.043.08l-.142.026zm.172-1.543c-.025.019-.04.021-.071.012-.014.003-.036-.037-.046-.095.004-.06.023-.121.042-.184a.617.617 0 0 0 .051-.215.29.29 0 0 1 .006-.133c.012-.104.004-.147.084-.278a.538.538 0 0 0 .088-.251s.002-.073.023-.209c.024-.196.054-.361.044-.331.004-.06.014-.09.026-.107.026-.019.036-.05.033-.064.014-.003.021-.049.04-.11.016-.075.015-.163.026-.269.015-.003.038-.036.062-.069a.218.218 0 0 1 .062-.068l.076.016a4.194 4.194 0 0 0-.091.323c.005.029-.002.073-.009.119a.475.475 0 0 1-.122.228l.03.171c-.051.214-.116.681-.121.652l-.03.166c-.047.066-.069.115-.063.144a.56.56 0 0 0-.06.245 1.066 1.066 0 0 1-.043.259c-.013.013-.039.033-.037.048zm.078 1.205l-.012-.07.157-.027.012.07-.157.027zm5.007-8.04l.262 3.025c.135 1.533.292 2.769.466 4.192.079.706.161 1.427.254 2.129.029.171.166.28.336.25l.186-.032c.167.101.378.179.661.222l-.349-.275 1.427-.249c.185-.031.268-.149.25-.336l-.295-1.92.268.315c.055-.228.081-.326.095-.39.186.027.33.05.55.083-.45-.661-.685-.861-1.027-.752l-.369-2.4.424.714-.079.276c.065-.056.101-.102.152-.152l.292.492s.012-.017.026-.02c.029-.005.055-.024.069-.027l.03.01.07-.026c-.05.053-.102.091-.154.13l1.647 2.798.028-.006.002.015-.014.003.318.562c.079.117.175.159.317.135l1.874-.37c.186-.032.268-.149.233-.349-.186-1.069-.375-2.153-.549-3.238l-.072.012.024-.034-.031-.009.071-.013-.005-.029c-.002-.013-.017-.011-.032-.008l-.099.018c-.072.013-.114.02-.145.011-.026.019-.041.021-.055.023l-.028.006.023-.035-.034-.022c.1-.018.171-.03.183-.047.012-.018.055-.024.097-.032l.072-.013c-.037-.212-.061-.43-.098-.642-.037-.216-.074-.429-.097-.646a54.406 54.406 0 0 1-.329-2.622l.209.039c-.433-.163.019-.443-.036-.548-.075.02-.144.035-.215.055-.044-.464-.093-.927-.128-1.39-.027-.157-.169-.294-.34-.264l-1.131.166.119-.159c-.156-.237-.349-.439-.55-.073-.238.433-.523.5-.957.251l.414.798-.037.309.249-.147.366 3.248-1.722-2.887-.017-.013c-.339-.513-.841-.866-1.476-.712l-1.361.281c-.177.045-.248.146-.233.319zm2.767 7.788l-.015-.085.143-.026.015.086-.143.025zm-.861-2.244c.045.007.087 0 .147.004l.048.021c-.045-.007 0 0 .14.05l-.285.049-.05-.124zm.438-3.22l-.007-.042c-.017-.013-.005-.029.006-.046.029-.005.06.005.108.025a.162.162 0 0 1-.107.063zm.028 3.534l-.143.024-.013-.068.143-.025.013.069zm.271-1.897l.01.058-.143.024-.01-.058.143-.024zm-.211-.199l-.014-.086.1-.018.015.087-.101.017zm.006-.469l-.01-.058.143-.024.01.058-.143.024zm-.103-1.099c-.014.003-.025.018-.025.018s-.015.003-.041.023a.272.272 0 0 1-.048-.11c.062.019.098.057.114.069zm-.004 1.66c-.002.074-.054.111-.143.025l.143-.025zm-.113.534l.01.057-.1.018-.01-.058.1-.017zm-.038.373l-.143.025c-.007-.043.017-.077.055-.114l.088.089zm-.028.681l-.106.063-.01-.058.077-.057.039.052zm-.202-.993l-.015-.085c.133.005.169.044.105.099l-.09-.014zm-.037-.213l-.013-.072c.023-.033.079-.057.135-.067l.005.028c.02.026.039.052.043.081l-.17.03zm-.037-1.815c.042-.008.085-.016.133.006-.052.038-.097.031-.133-.006zm.031.772l.01.058-.114.02-.01-.057.114-.021zm.025 1.655l.017.1-.114.02-.017-.099.114-.021zm.368 1.611l-.095-.042c-.002-.014-.005-.028.021-.047-.002-.015.026-.02.083-.03l.008.044a.275.275 0 0 1-.017.075zm.037-.462l.086-.015.018.101-.086.015-.018-.101zm.067 1.399l-.017-.101.085-.014.017.1-.085.015zm.066-2.656l.086-.015.02.113-.086.015-.02-.113zm.076 2.793l-.018-.1a.315.315 0 0 1 .148.002.412.412 0 0 1-.13.098zm.143-3.815c-.047-.021-.072-.077-.096-.132.122.025.143.065.096.132zm.971.345l-.008-.043.1-.019.008.044-.1.018zm.021-.386c-.002-.014.01-.031.007-.044l.034.022c.003.015.019.026.005.029l.007.042-.015.002c-.019-.026-.036-.036-.038-.051zm.417 1.719c-.016-.012-.019-.025-.007-.042.042-.008.076.016.1.07-.031-.008-.062-.018-.076-.016-.014.003-.017-.012-.017-.012zm.077.443c-.045-.007-.023-.054.018-.061l.064.031c-.04.022-.068.027-.082.03zm.104.348l-.01-.057c.057-.01.103-.003.139.035-.054.024-.097.032-.129.022zm.095-.221l-.038-.053.097-.032.036.039-.095.046zm-.024-.304l.021-.048.074.002-.019.062-.076-.016zm.714.139c-.035.051-.075.072-.099.104a.26.26 0 0 1-.076.073.27.27 0 0 1-.069-.062c-.037-.038-.07-.063-.075-.091l.029-.005c.028-.005.028-.005.04-.021l.014-.003c.031.009.034.023.036.038.002.015.02.025.036.037l.026-.019s.015-.003.026-.02l.028-.005c.016.002.044-.004.084-.026zm-.066-1.986l.009-.031.029-.006-.021.05-.017-.013zm-.168 2.498l-.074-.091.059.005c.091.013.088-.002.125.037l-.11.049zm.177-.165l.109-.048c.06.006.093.028.098.058l.008.042a.26.26 0 0 1-.205.006l-.01-.058zm.166.28l.055-.023.12.184-.055.024-.12-.185zm.008.382l-.079-.12c.092.029.126.053.079.12zm.202.992c-.009.03-.049.053-.106.063.023-.035.016-.076-.017-.099a.165.165 0 0 0 .054-.025l.028-.004.138-.055a.16.16 0 0 1-.047.067c.026-.018.014-.002-.05.053zm.319-.452s-.02-.025-.034-.023c0 0-.014.003-.032-.009l.071-.102.118.083-.123.051zm.459-.565l.074.002-.161.176-.039-.053c.143-.025.141-.039.126-.125zm.171.557c-.04.022-.05.054-.059.084l-.017-.011.015-.003a.173.173 0 0 1 .059-.084l.017.011-.015.003zm-.35-.232l.071-.013v.089l-.073-.003.002-.073zm.034.273l.014-.002c.014-.003.042-.008.04-.022.029-.005.06.004.088-.001l-.012.017a.163.163 0 0 0-.114.021l-.042.096-.014.003-.002-.015.042-.097zm-.043-.08c-.012.017-.026.02-.056.024-.028.005-.045-.008-.024-.056.034.023.048.022.062.02l.018.012zm-.068-.972c-.028.006-.059-.005-.104-.012l.075-.071c.048.021.056.063.029.083zm-.078-2.308l.007.044-.029.004-.007-.043.029-.005zm-.154 1.144c.021.041.024.054-.002.073-.03-.009-.05-.035-.072-.074l.017.011.057-.01zm-.12-.523l.059.004-.033.064-.062-.019.036-.049zm-.062 2.008l.024-.033c.04-.021.055-.024.066-.041.015-.002.041-.022.081-.044l.017.012c-.015.003-.012.018-.012.018l.012.071c.022.04.086.073.21.11-.081.043-.135.066-.171.029a.224.224 0 0 1-.075-.09c-.046-.007-.074-.001-.088 0-.043.008-.074-.001-.103.004l.039-.036zm.043.243c.012-.019.009-.033-.008-.044l-.004-.027c-.014.002-.017-.013-.017-.013a.182.182 0 0 1-.043-.079c.031.009.062.018.076.015l.058-.01.06.093-.026.019-.023.034c-.023.032-.038.035-.038.035-.012.018-.052.039-.121.066.048-.055.088-.074.086-.089zm-.384.243s-.017-.013-.062-.019l-.003-.015-.014.002s-.015.003-.031-.009a.51.51 0 0 1 .147-.084c.057-.011.083-.03.095-.047a.426.426 0 0 0 .152-.056l-.284.228zm.215-1.213l.058.079-.053.038-.072-.075.067-.042zm-.1.018l-.109.049-.129.021c-.009.031-.022.032-.035.05l-.034-.023c-.029.005-.045-.007-.067-.046.028-.006.043-.008.055-.024l.114-.021c.002.015-.01.03-.01.03.012-.016.041-.021.041-.021l.028-.005.109-.048.037.038zm-.485-.591l.046.094-.071.013-.015-.085.04-.022zm-.042 1.358c-.031-.01-.045-.007-.045-.007-.014.003-.029.006-.031-.009-.028.005-.057.011-.062-.019l.135-.067c-.022.048-.014.089.003.102zm-.008-.13l-.1.017-.012-.071.1-.018.012.072zm-.095-.292l-.056.01-.013-.072.057-.01.012.072zm-.046-1.36l-.111.034-.022-.039.109-.05.024.055zm-.048-.108l-.04.021c-.014.003-.028.006-.04.021-.074-.002-.122-.021-.132-.079a.602.602 0 0 1 .212.037zm-.254.647l-.014.002c-.012.016-.024.033-.038.036l-.015.003c-.012.017-.026.02-.026.02l-.015-.085c.028-.006.06.005.119.009l-.011.015zm-.024-.555l-.164.073-.022-.04.149-.071.037.038zm-.097-.217l.015.086c-.085.015-.136-.021-.144-.064l.129-.022zm-.167.219h.088l-.042.094-.077-.016.031-.078zm-.081.206c-.027.02-.041.021-.041.021s-.017-.012-.063-.019c-.014.003-.017-.012-.031-.009-.015.002-.028.004-.045-.007.055-.024.081-.044.09-.075.045.008.08.031.113.055l-.023.034zm-.085-.822l-.032-.01c-.002-.014-.02-.025-.035-.038.011-.016.009-.03.009-.03s.014-.002.04-.021l.036-.05c-.003-.015.012-.018.021-.049a.642.642 0 0 0 .058.167l-.097.031zm.037-.462l.01.057-.057.011-.01-.058.057-.01zm-.16-.413l.075.016-.163.161-.036-.038c.144-.025.139-.054.124-.139zm-.189.179l.015.086-.072.013-.014-.086.071-.013zm-1.258-1.323l-.021.048-.09-.014-.007-.042.118.008zm-.386-.021l.007.043.257-.045-.009.031a.232.232 0 0 1-.107.063c-.028.004-.042.007-.045-.008-.014.002-.031-.009-.062-.018l-.034-.024.003.015-.114.02-.01-.058.114-.019zm-.058 3.125l.043.08a.339.339 0 0 1-.138.054c-.007-.045.017-.077.095-.134zm-.111-3.168c.007.042-.002.073-.04.109-.002-.013-.019-.025-.036-.037l-.01-.058.086-.014zm-.238-.693a.123.123 0 0 1 .043.079l-.093-.027c.009-.03.021-.047.05-.052zm-.05.728l.007.043-.085.015-.007-.044.085-.014zm10.099 5.512c.626-.198 1.385-.565 1.96-1.312a6.289 6.289 0 0 0 1.302-3.399c.106-1.502-.165-2.805-.656-3.777-.493-.972-1.485-1.695-2.779-1.616a6.96 6.96 0 0 0-2.097.526l-.96.415c.029-.032.059-.063.084-.096-.044-.034-.088-.066-.132-.101l-.26.329-.099.042c-.137.054-.19.165-.181.312l-.174.221c-.067.198-.16.462-.242.728-.014.043.001.118.031.146.038.034.11.051.162.042.105-.019.222-.127.326-.271l.95 8.043c.03.17.166.279.337.249l1.482-.258c.314-.054.622-.138.946-.223zm-3.097-5.717c.002.014.002.014-.026.019-.016-.012-.014.003-.026.02l-.062-1.283c.039.053.11.129.104.175a2.6 2.6 0 0 1-.019.312.594.594 0 0 1 .01.145c.013.159.026.319.039.39l.017.101c-.008.026-.016.072-.037.121zm.066-3.17l-.034-.024-.002-.015.047.022-.011.017zm.235 6.496l.002.013c.002.015.002.015.017.013l.003.014c-.029.004-.079-.03-.022-.04zm.042-2.035l-.085.015-.02-.114c.063.02.124.038.191.085a.094.094 0 0 1-.086.014zm.052-4.342l-.005-.029c-.014.003-.017-.011-.019-.025l-.003-.015.028-.004s.014-.003.026-.021a.23.23 0 0 1 .155.048c-.014.001-.068.026-.182.046zm2.991 7.983l-.043.008c.015-.003.026-.02.041-.021.011-.018.026-.02.026-.02.015-.003.031.009.036.037a.108.108 0 0 1-.06-.004zm.819-5.416c-.031-.01-.045-.007-.064-.032 0 0 .014-.002.013-.017L38.52 50a.155.155 0 0 1 .157.06c.021.026.023.055.042.067a.127.127 0 0 1 .021.041l.123.037c.006.027-.007.045-.032.064l-.044.007c-.011.016-.025.019-.054.022-.086.015-.182-.114-.187-.144-.003-.014-.004-.026.01-.03.012-.017.01-.031.007-.046-.002-.012-.004-.027-.019-.025zm.264-.339c-.002-.015.007-.047.045-.082.028-.004.028-.004.06.004a.072.072 0 0 1 .045.007c.003.015-.012.017-.009.031l-.048.067c-.051.039-.082.03-.093-.027zm-.015 2.778c-.023.033-.023.033-.053.038l-.009-.056c.013-.002.042-.008.072.001.004.015-.01.017-.01.017zm.033-1.577c-.016-.012-.016-.012-.03-.01l.023-.032.071-.013c.003.015.003.015.018.012.005.027-.007.045-.036.05s-.042.007-.046-.007zm.076 1.53l.024-.034c.019.026.021.039.009.057-.031-.01-.033-.023-.033-.023zm.033-1.755c-.018-.011-.021-.039-.029-.083l.055-.023c.014-.004.042-.008.06.004.002.014.019.025.034.038l.012.057c-.015.003-.025.02-.04.021l-.073.013c-.001-.001-.017-.012-.019-.027zm.07 1.251l-.036-.037-.005-.028c.014-.003.026-.02.026-.02.013-.003.025-.019.04-.021l.064.032a.226.226 0 0 1-.089.074zm.173-1.204c.018.026.026.068.002.101-.017-.01-.035-.036-.069-.06 0 0 .012-.017.026-.02.014-.003.027-.018.041-.021zm-.02-.453a.282.282 0 0 1 .109-.048c.002.015.018.025.007.043l.008.043-.084.029a.05.05 0 0 1-.019-.026c-.003-.015-.003-.015-.021-.041zm-.054.201l-.031-.009-.002-.015.046.008-.013.016zm-.017.575l.085-.014c.015-.003.017.012.031.009.015-.002.017.013.02.025l.002.015-.015.003-.01.017-.015.003-.013.018-.028.004c-.033-.025-.052-.051-.057-.08zm.174 1.086c-.038.036-.104-.011-.11-.04-.004-.027.012-.104.038-.123-.02-.026.015-.003.082.045.047.021.079.044.094.041-.056.01-.094.047-.104.077zm-.012-.408l-.032-.024c-.031-.008-.034-.022-.036-.037-.003-.015-.006-.029.006-.045.015-.003.012-.018.01-.032.014-.002.014-.002.025-.019.046.007.078.03.082.044.002.015.002.015-.013.018l.004.015c.016.012.03.01.059.004 0 0 .018.012.02.025.014-.002.016.013.019.027l-.144.024zm.145-.687c-.043.008-.154.042-.156.027.011-.017.006-.045.002-.073-.004-.015.006-.047.032-.064l.057-.01.036.037c.002.015.021.04.05.035l.009.043-.03.005zm-.082-2.071a.078.078 0 0 1 .031-.078c.002.015.018.025.038.051l.01.057c-.057.01-.074-.002-.079-.03zm.229 3.588c-.085.016-.119-.009-.129-.065-.005-.028.006-.045.033-.065l.114-.02c.014-.002.044.007.047.021l.036.038.008.042c-.055.025-.082.044-.109.049zm.126-.8l-.015-.085.027-.005.015.084-.027.006zm.114 1.169c-.002-.014-.002-.014.01-.03l-.005-.028.085-.015.01.056-.1.017zm.254-2.174c.027-.006.045.007.051.036-.044.007-.073.013-.075-.002l.024-.034zm-.258-1.144l.015-.003c.027-.005.041-.008.058.004l.008.044c-.025.02-.059-.005-.093-.028l.012-.017zm-.047 1.505l.028-.004c.1-.018.152.031.158.061.002.015-.023.033-.051.053-.042.008-.055.025-.055.025-.027.005-.045-.008-.076-.018l-.017-.1c.016-.003.013-.017.013-.017zm.016.262c-.015.003-.012.018-.012.018l-.012.016.003.015-.033-.023c.014-.004.025-.021.054-.026zm-.106.063s.002.015.029.009c.015-.002.029-.004.032.01.002.015-.008.045-.03.079-.012.017-.021.048-.015.091l-.042.008c-.079-.031-.11-.04-.117-.083l-.032-.185c-.003-.015-.004-.029.01-.032.022-.032.022-.032.018-.062-.003-.014-.005-.028-.021-.04-.017-.013-.02-.026-.041-.067.013-.016.04-.021.055-.023l.014-.004c.001.014.016.012.03.01l.015-.003c.009.056.039.141.095.292zm-.179-2.039c.041-.007.07-.013.087-.002l.013.072c-.015.002-.025.02-.04.022-.043.007-.074-.002-.074-.002-.02-.026-.033-.023-.036-.038-.004-.029.021-.046.05-.052zm-.12-.685c.006.028.019.026.053.05a.197.197 0 0 1-.062.068c-.043.009-.062-.018-.067-.047.009-.03.047-.067.076-.071zm-.226-.121l-.036-.039c-.002-.014-.02-.026-.034-.023l.053-.039c.028-.004.058-.009.09.015l-.073.086zm-.292-.495c.026-.018.036-.049.062-.068a.627.627 0 0 0 .207-.079l.013.071c.003.027.021.039.023.054.015.086-.08.132-.18.149-.044.008-.129.021-.144-.064l.019-.063zm-.211.816c.012-.017.023-.033.053-.038l.058-.011c.029.01.033.024.035.039l.033.022c.003.015.034.024.063.02s.031.009.033.023c.013.07-.097.119-.127.109-.015-.085-.077-.104-.182-.114.025-.018.037-.035.034-.05zm-.191-.759l.009.057-.027.006-.011-.058.029-.005zm.022.804l.086-.015.034.022c-.038.036-.047.067-.062.069l-.085.016-.016-.012s-.004-.014-.018-.011c-.007-.043.02-.061.061-.069zm-.119.74a.13.13 0 0 0 .092-.06s.017.012.031.009c0 0 .017.012.02.025l.019.114-.038.037c-.09-.015-.138-.036-.14-.051.009-.031-.011-.056-.046-.093a.102.102 0 0 0 .062.019zm-.146-.915c.015-.003.015-.003.017.012.006.027-.009.03-.023.033a.219.219 0 0 1-.09-.013c.022-.034.051-.038.096-.032zm-.827-2.22s.015-.003.031.009c.015-.002.031.01.059.005l.005.027c.002.015.005.029.02.027l.005.028-.1.018a.28.28 0 0 1-.103.003.335.335 0 0 1 .083-.117zm-.06.244l.1-.017c.005.028.008.043.024.055.017.011.019.025.024.055.002.015-.052.038-.119.08a.128.128 0 0 1-.059-.093c-.008-.044.002-.074.03-.08zm-.74.644l.157-.027-.009.118-.159.015.011-.106zm-1.508 7.621l.09.014-.011.017-.074-.003-.005-.028zm.072.325a.057.057 0 0 0-.021-.04c.045.008.087 0 .116-.005l.128-.022c-.009.031.01.057.03.083.021.041.041.066.043.081.003.014-.021.048-.045.081a.225.225 0 0 0-.065.129c-.033-.024-.067-.047-.09-.102a.69.69 0 0 0-.073-.163c-.001 0-.018-.013-.023-.042zm.283.613c-.012.016-.041.021-.069.025-.042.007-.15-.019-.121-.022.028-.005.057-.01.069-.026.025-.02.054-.023.068-.026.046.006.077.016.091.014-.015.001-.027.017-.038.035zm.138-.891c-.042.007-.097.031-.154.041-.002-.014-.005-.028-.019-.026l-.005-.029c-.01-.057.028-.093.099-.104.028-.004.136.021.148.092a.232.232 0 0 0-.069.026zm.064-7.898c-.007-.044.005-.06.023-.123l.086-.015c.012.071.02.115.005.117l.008.043c-.043.008-.117.005-.122-.022zm.363 5.709c-.029.005-.04.021-.055.023-.002-.014-.019-.025-.024-.055-.015.003-.018-.011.006-.045l.086-.015c.031.009.064.032.069.062-.013.003-.042.007-.082.03zm.374 1.813c-.014.003-.028.006-.059-.003l-.01-.058c.071-.011.091.014.069.061zm.015-1.603l-.012-.07c-.002-.015.035-.051.085-.104l.114-.02-.369-3.388c-.031-.009-.062-.018-.067-.047-.007-.042-.063-.106-.139-.21a.375.375 0 0 0 .151-.144l.014-.003-.031-.261c.193-.076.414-.158.663-.246.484-.173.833-.188 1.083.235.234.416.399.77.47 1.434 0 0 .011-.031.045-.082.134.007.198.039.203.068.015.084-.083.116-.125.124a.084.084 0 0 1-.08-.03c-.014.002-.03-.01-.049-.037.025.319.017.688-.02 1.076-.035.3-.111.622-.211.978-.185.708-.605 1.163-1.434 1.468l-.073-.589-.015.003c-.071.013-.119-.008-.158-.062a.193.193 0 0 1-.045-.093zM13.359 63.797l-.001.002.004-.001z"/><path d="M15.688 71.941c.275.569.852.674 1.304.316.3-.214.454-.682.556-1.022-.002-.015 0 0 .482-1.7l.346 3.083c.011.146.18.277.337.25l2.074-.317a.29.29 0 0 0 .236-.335l-1.463-8.147a1.528 1.528 0 0 0-.633-1.02c-.285-.2-.639-.213-.981-.152l-.613.106a.218.218 0 0 0-.108.048l.007.044c-.012.016-.009.03-.009.03.008.043-.019.063-.059.084l-.047-.021-.017-.012c.005.027-.009.03-.004.06l-.056.184.156-.027c.442-.076.881-.167 1.302-.285l.008.132c-.551.125-1.033.224-1.489.303l-1.003 4.361-1.647-3.386-.002-.015a1.457 1.457 0 0 0-.356-.437 11.09 11.09 0 0 1-.991.129l-.062-.02c-.029.005-.068.026-.097.032l-.057.01c-.027.019-.041.021-.052.039a1.884 1.884 0 0 1-.468.095c-.117.007-.335.015-.715.111l-.006-.205c.072.074.105.099.108.113.014-.003.014-.003.026-.02-.003-.015.009-.031.035-.051.026-.019.086-.015.165.016.094-.134.228-.127.361-.121.087 0 .162 0 .204-.007.058-.01.11-.048.154-.129.292-.007.468-.009.525-.019.15.018.266.013.38-.008.115-.02.229-.039.34-.073a1.163 1.163 0 0 0-.496-.162c.028-.003.058.004.063.031.002.015-.009.032-.019.063l-.085.015s-.017-.012-.022-.041c-.002-.015.009-.03.009-.03.013-.003.027-.007.05-.037a1.39 1.39 0 0 0-.464.021l-.071.012.05.035c-.014.003-.028.006-.045-.006s-.02-.026-.02-.026l-1.118.238c-.184.047-.254.148-.236.336l.184 1.48c.041.065.039.141.04.229l.356 2.889.577 4.658c.03.172.18.277.352.247l2.002-.392-.67.116c.016-.077.096-.12.139-.128.014-.002.046.008.091.014a.234.234 0 0 0 .088-.001l.385-.066a.28.28 0 0 1 .117-.006.318.318 0 0 0 .086-.264l-.212-1.476-.029.004-.012-.071c.015-.003.012-.017.026-.019l-.206-1.434.092.189.827 1.565zm4.399-1.222c.015-.003.031.01.037.038l-.1.017c.024-.033.049-.053.063-.055zm-.997-.165c.028-.005.045.008.062.02 0 0 .014-.003.047.021l-.035.051c-.012.017-.023.033-.038.036-.042.007-.06-.005-.077-.016-.016-.013-.031-.01-.033-.024.007-.047.031-.08.074-.088zm-1.641-7.234s-.015.003-.018-.011c-.014.002-.031-.01-.047-.021.016-.076.151-.144.19-.091l.009.057-.134.066zm.588-.248c.011-.017-.005-.029-.024-.055.031.009.06.004.105.011.107.026.3.036.3.036l-.381.008zm.546 4.576a.127.127 0 0 1-.041.021l-.002-.014-.033-.024.038-.035c.043-.008.074.001.082.044l-.044.008zm.123-1.828l-.071.012c-.041.021-.069.026-.088.001.014-.003.029-.006.038-.036l.024-.033c.058.003.092.027.097.056zm-.161-.752c.005.029.019.026.05.035l-.035.051-.057.01c-.034-.024-.053-.05-.058-.078l.1-.018zm-.217 3.138l-.014.002c-.014.002-.028.005-.025.02l-.017-.013c-.014.003-.017-.011-.02-.025-.005-.029.019-.061.059-.083l.017.099zm-.176-2.953l.105.013.015.084a.303.303 0 0 1-.136.068.105.105 0 0 1-.076-.017c.069-.026.105-.074.092-.148zm-1.977 4.002l-.01-.057.072-.013.01.057-.072.013zm.679 2.967l-.01-.057.029-.006.012.072-.031-.009zm-.049-.197c-.005-.028.007-.044.035-.05l.01.057-.045-.007zm.34-.411c-.017-.013-.093-.028-.127-.053a.077.077 0 0 1 .031-.078c.017.012.048.021.067.047l.053.05-.024.034zm.135-1.67l-.029.006.007.043c.015-.002.017.012.02.025a.137.137 0 0 0-.002.075c-.009.029-.021.047-.063.054-.057.011-.089.001-.108-.024-.017-.013-.021-.04-.026-.069-.01-.058.044-.168.119-.24.064.032.098.055.103.084.002.014-.009.029-.021.046zm.017-.913l.007.043-.128.022-.008-.043.129-.022zm-.258-.469c.072-.012.119.009.126.052.003.015.005.028-.01.03 0 0-.014.003-.012.017l.003.015c-.028.005-.055.024-.083.029-.042.007-.085.015-.102.002-.003-.014-.022-.039-.036-.036.033-.065.072-.102.114-.109zm-.198.975l.085-.016.018.013.014-.002c.017.012.033.022.036.037.005.029-.007.044-.047.066l-.064.055c-.042.008-.093-.028-.1-.069-.003-.015.021-.048.058-.084zm-.085.353c.043-.008.107.025.162.089-.099.017-.154.04-.17.029l-.057.01-.051-.036c-.038.036.073-.085.116-.092zm-.093.309l-.029.006c-.011.017-.025.019-.054.024l-.018-.012-.01-.059c.016 0 .106.012.111.041zm-.069 1.29c.048.021.109.04.209.022l.015.086-.038.035a.11.11 0 0 1-.076-.016c-.031-.01-.062-.019-.078-.031-.06-.004-.107-.024-.17-.042-.002-.015.033-.065.062-.07.028-.005.045.008.076.016zm-.138-1.048c-.002-.015-.002-.015.026-.02.014-.002-.009.03-.023.033l-.003-.013zm-.02-.79l-.043.008-.054.024-.058-.078c.057-.01.114-.02.137-.054.017.012.031.009.034.023l.051.036-.067.041zm-.158-.736l.164-.072c.036.038.058.078.034.111l-.028.005c-.012.017-.026.02-.055.024a.418.418 0 0 1-.122-.022l-.047-.022a.146.146 0 0 1 .054-.024zm-.127-.728c.034.023.037.038.037.038l.016.012c.015-.002.017.012.017.012l-.021.048-.114.02c-.005-.029-.005-.029-.021-.04-.017-.013-.022-.042-.027-.069l.113-.021zm-.127.449c.008.043-.002.073-.03.079l-.031-.009-.022-.041-.062-.02.145-.009zm-4.413-3.918l.034.024-.071.013.037-.037zm-.012.268l.042-.096.015.085-.057.011zm.904 4.688l-.043.009-.022-.129.043-.008.022.128zm-.253-1.203l.05.035.008.042-.058-.077zm.141.813l.043-.008.029.172-.042.008-.03-.172zm.057.666c.026-.021.038-.037.036-.052l.017.101c-.074-.002-.093-.029-.053-.049zm.058.077l.094.454c-.079-.031-.105-.099-.106-.188.009-.03.004-.059-.006-.116a.21.21 0 0 0-.043-.082c.04-.019.064-.053.061-.068zm.515 3.715c-.022-.04-.035-.111-.061-.182-.005-.026-.029-.082-.042-.152-.013-.072-.005-.117 0-.163a1.789 1.789 0 0 0-.021-.379 2.123 2.123 0 0 0-.086-.322c-.032-.096-.077-.192-.111-.304a4.586 4.586 0 0 1-.107-.362l-.131-.579c.005.028.02.025.031.009s.038-.036.062-.068a.301.301 0 0 0 .053-.201l-.07-.399.133.007.082.969.105.863.271 1.055-.108.208zm1.077-.982a.2.2 0 0 1-.152-.031.35.35 0 0 1 .107-.063c.028-.006.047.021.052.051l.005.028c-.014.001-.014.001-.012.015zm.047-6.984l.1-.018.006.029-.101.017-.005-.028zm.106 6.517c-.042.007-.059-.005-.064-.032l-.005-.028c.015-.003.012-.018.012-.018l.072-.013.017.012.005.029c.002.014-.011.031-.037.05zm.155-5.946c-.015.002-.028.004-.059-.005l.012-.017-.002-.015c.015-.002.015-.002.012-.016.014-.002.03.009.109.039l-.072.014zm.1-.692l-.114.02a.475.475 0 0 1 .057-.098c.012-.018.038-.036.047-.068l.012.072c.002.014.007.043-.002.074zm.509 7.224s.014-.002.045.007c0 0 .031.011.045.008a.315.315 0 0 1-.062.069l.01.058.033.022c.015-.002.029-.005.046.007l.002.015-.029.006c-.071.012-.102.003-.092-.028.009-.031-.01-.057-.061-.094l-.004-.027c-.002-.015.024-.035.067-.043zm-.192-.935c.071-.013.076.016.081.045.007.043-.001.074-.044.081-.085.016-.119-.009-.126-.051-.008-.043.045-.067.089-.075zm7.08.324l2.118-.325c.143-.024.23-.113.248-.263l.085-1.367 2.078-.801.446 1.714c.044.168.159.236.33.207l2.153-.375c.186-.033.286-.212.225-.392l-2.108-5.787a34.218 34.218 0 0 0-.616-1.509c-.14-.299-.301-.639-.47-.932-.298-.447-.706-.847-1.269-.792a3.1 3.1 0 0 0-.824.158c-.32.1-.622.226-.925.338a.327.327 0 0 0-.184.207 123.346 123.346 0 0 0-.776 3.47 35.804 35.804 0 0 0-.446 2.59 100.554 100.554 0 0 0-.397 3.535c.003.206.146.356.332.324zm4.287-4.227l-.005-.029.042-.007.005.028-.042.008zm.026-.695l.007-.045.028-.005-.005.06-.03-.01zm.188 1.671l-.01-.057.043-.008.01.058-.043.007zm.053-1.552c-.014.002-.012.017-.009.03l-.105-.011c.012-.016.012-.016.009-.03l.023-.035c.043-.007.075.003.088 0 .006.03.006.03-.006.046zm-.095-.292c-.028.005-.057.01-.083.029l-.055-.063c.029-.006.068-.026.114-.021l.214-.037c.005.029-.045.082-.088.089-.042.007-.088 0-.102.003zm.095-.134l-.081-.043-.01-.058.1-.017.019.026c.002.013.019.025.024.054l-.029.006c-.012.016-.012.016-.026.018l.003.014zm.124.801l.012.072-.056.01-.013-.071.057-.011zm.003.44l.071-.1c.003.015.019.026.048.021.034.021.05.034.053.049.005.028-.031.079-.081.132a.399.399 0 0 1-.15-.019c.038-.035.047-.066.059-.083zm-.023.71l.2-.034.007.043-.143.024c-.002-.015-.019-.026-.064-.033zm.162.677l-.01-.057.1-.019.01.058-.1.018zm.045-1.007l.085-.016.02.114c-.061-.017-.095-.041-.105-.098zm.133 1.269l-.032-.098c.017.012.031.009.076.017l.093.028-.137.053zm.123-1.314l-.07.013-.005-.028.071-.013.004.028zm-.074-1.103c-.002-.015-.002-.015.012-.017.029-.005.04-.021.04-.021.035.022.051.034.054.049l-.015.003c-.015.003-.077-.017-.091-.014zm.064 2.222l-.01-.058c.059.005.087-.001.095.042l-.085.016zm.533 1.213c.003.015.003.015-.008.031a.67.67 0 0 1-.189-.157l.143-.025a.34.34 0 0 0 .067.136c-.015.002-.013.015-.013.015zm.46-2.254l.005.029-.057.01-.005-.028.057-.011zm-.034.14l.02.114-.064-.033c-.085.015-.125.036-.116.093l.025.143.047.021c.026-.019.05-.053.088-.089l.084-.103c.075.09.087.161.061.18-.029.006-.038.037-.033.066.005.027.024.054.06.091.091.103.109.202.081.295-.006.044.043.08.136.108-.049.053-.058.084-.053.111.002.015.019.026.041.066a.44.44 0 0 0 .07.062c.054.138.087.25.116.332.029.085.063.195.117.332-.023.034-.038.037-.066.042-.042.007-.163-.09-.17-.133l-.005-.029c.012-.016.009-.029.007-.044a.2.2 0 0 1-.12-.096c-.01-.058-.032-.099-.037-.128-.017-.012-.031-.009-.05-.035-.015.003-.03-.009-.033-.023-.031-.008-.033-.022-.05-.034l-.05-.035.015-.003-.003-.014.015-.003-.035-.2-.085.015c-.026.02-.04.022-.069.027a.566.566 0 0 1-.173.015c.144-.098-.127-.139-.189-.157l-.022-.129a.101.101 0 0 1 .019-.061c.011-.018.009-.031.007-.046s-.002-.015.012-.017c.014-.003.026-.02.024-.034.009-.03-.053-.05-.093-.028.011-.017.006-.045.011-.104-.007-.042.031-.079.116-.094a.148.148 0 0 0 .094-.047s-.002-.013-.033-.023a.2.2 0 0 0-.064-.032c-.037-.038-.042-.066-.018-.101-.064-.033-.095-.041-.064-.033-.017-.011-.033-.021-.036-.036-.015-.086.157-.19.243-.205a.943.943 0 0 1 .222.036zm-.425-1.175l.002.015-.086.015-.005-.028.089-.002zm-.1.942c.042-.008.055-.023.061-.07.013.072.02.114.037.127l.064.033c.014-.003.028-.006.047.02-.054.024-.08.045-.083.03-.011.018-.04.021-.083.029-.085.015-.146-.077-.15-.105l.107-.064zm-.058.847c.003.015.008.043-.006.046-.01.031-.024.033-.022.048-.016-.012-.031-.009-.05-.035-.014.003-.02-.026-.022-.041l.1-.018zm-.258.883l.021-.047c.026-.021.052-.038.064-.056.034.022.066.047.072.075l-.157.028zm-.002-3.554a.242.242 0 0 0-.071.1c-.009.032-.05.053-.104.076.067.047.115.069.158.062.043-.007.076.016.112.055-.028.005-.04.021-.054.023l-.199.035c-.111-.128-.163-.177-.17-.22s-.017-.012.134-.156l.143-.024c.013-.004.029.008.051.049zm-.23-.225c.042-.008.09.014.124.038-.078.056-.147.083-.226.054l-.013-.072.115-.02zm-.056-.24c.007.042-.004.06-.062.069l.062-.069zm-.055.112l.029-.005s.02.026.034.023c.005.028-.038.035-.081.044l-.005-.029c-.003-.014.009-.031.023-.033zm.085 1.16c.005.028.024.054.043.08.008.043.027.07.043.082l-.142.024-.015-.086c-.041-.066-.077-.104-.123-.11-.014.002-.044-.007-.047-.021.069-.026.146-.01.241.031zm-.162-.588s.001.089-.032.153l-.058-.166.029-.005c.002.014.017.011.017.011.014-.002.031.01.044.007zm-.079-.455c-.028.004-.03-.011-.047-.022s-.017-.011-.02-.025c.057-.01.085-.016.088-.001l-.021.048zm-.007-.72l.005.029-.091-.015-.005-.028.091.014zm-.081.969c.014-.002.031.01.045.007l.013.072-.085.016c-.017-.013-.046-.008-.074-.003-.007-.043.016-.076.057-.098.013-.003.027-.006.044.006zm-.061-1.781l-.085.015-.019-.026s-.002-.014.007-.046c.057-.01.09.014.097.057zm-.101-.247l.004.029-.099.017-.005-.028.1-.018zm-.053.964c-.014.003-.011.018-.011.018l.005.028-.085.015-.01-.058.101-.003zm-.111.797c.103-.003.167.03.196.114l-.015.002.008.042-.128.023c-.05-.036-.041-.067-.003-.103l-.086.016c-.007-.042.002-.074.028-.094zm.004 1.204l.01.058-.043.007-.01-.057.043-.008zm-3.021 3.23c-.04.021-.068.026-.085.015-.005-.028.018-.062.061-.07.029-.004.096.043.111.04l-.087.015zm.669-.206c-.031-.009-.059-.005-.059-.005-.017-.012-.031-.009-.065-.032.015-.003.029-.005.055-.024l.029-.005c-.003-.015.012-.017.026-.02l.033.024c.005.029.007.044-.019.062zm.292-1.446l-.012-.071.157-.027.012.071-.157.027zm1.541-1.105l-.005-.028.071-.013.005.028-.071.013zm.046-4.796a.12.12 0 0 1-.076-.016c-.007-.044.019-.063.047-.067a.224.224 0 0 1 .136.021c-.012.016-.012.016-.01.029.003.015-.009.031-.021.048-.031-.008-.048-.021-.076-.015zm.032 3.138s.031.009.06.004c.017.012.034.023.036.037l-.085.015-.011-.056zm.062 2.633l-.019-.027.04-.021.02.026-.041.022zm.027-2.209l-.005-.028.114-.02.005.028-.114.02zm.238 1.368l-.034-.022-.057.01c.038-.036.064-.056.093-.061.005.029.01.058-.002.073zm-.063-3.058l-.048-.021.041-.021.034.023-.027.019zm-.067-1.486c.025-.02.054-.024.063-.055.043-.008.077.016.084.058.002.015-.021.049-.047.068l-.085.016c-.017-.013-.034-.024-.036-.039-.005-.029.006-.046.021-.048zm.046 2.21c.005.029-.049.054-.072.012l.072-.012zm-.329-3.072a.423.423 0 0 0 .124-.051l-.021.047c.007.044.039.053.085.074-.026.02-.037.036-.052.038l-.185.032-.034-.023c.017-.076.041-.109.083-.117zm-.141-.137c-.015.003-.026.02-.038.036-.023.033-.035.051-.032.065l-.057.01c-.005-.029-.005-.029-.022-.041l-.01-.057.159-.013zm-.147.084l.005.029-.036-.037-.008-.044.039.052zm-.065-.371l.02.114-.043.008-.02-.114.043-.008zm-.043.258c.01.058 0 .087-.009.119l-.051-.036-.014-.085c.003.015.031.01.074.002zm-.002 3.364c.083.221.151.444.219.668l.205.67-1.064.213.299-2.416c.124.286.232.575.341.865zm-.634-.609l.023-.121.031.009-.022.121-.032-.009zm.136-1.83s.012-.018.054-.025a.123.123 0 0 1 .043.082c-.028.005-.04.021-.057.009l-.071.013-.026-.068.057-.011zm-.03 1.341c.017.012.033.024.036.039 0 0 .016.011.019.025l-.023.121c-.104.077-.149.07-.215-.051.042-.094.109-.135.183-.134zm-.189-1.421l.014-.003-.007.045-.031-.009.024-.033zm-.553 1.213l.077.016c-.01.031-.024.034-.055.024-.028.005-.026.02-.026.02l-.005-.029c-.002-.015-.005-.029.009-.031zm-.018 3.014a.615.615 0 0 0 .05-.214.295.295 0 0 1 .006-.134c.011-.104.004-.147.084-.279a.528.528 0 0 0 .088-.249s.001-.074.022-.21c.024-.195.054-.361.044-.332.004-.059.014-.09.026-.106.026-.02.036-.05.033-.064.014-.003.021-.048.039-.11.016-.075.015-.164.027-.269.014-.002.038-.037.061-.068a.227.227 0 0 1 .062-.07l.076.016c-.056.187-.084.279-.09.325.005.028-.002.072-.009.117a.486.486 0 0 1-.122.229l.029.17c-.05.215-.115.683-.121.653l-.03.167c-.047.067-.068.115-.063.143a.562.562 0 0 0-.06.246 1.032 1.032 0 0 1-.044.258c-.012.016-.038.034-.035.049-.026.021-.041.021-.071.013-.014.003-.036-.036-.046-.094a.94.94 0 0 1 .044-.187zm-.041 1.623c.005.028.024.054.043.081 0 0 .005.027.043.081l-.142.024c-.011.017-.026.02-.04.021-.115.021-.203-.067-.21-.11-.005-.029.009-.119.123-.139a.845.845 0 0 1 .183.042zm-.245-1.998a.226.226 0 0 1-.023.12c-.031-.009-.049-.035-.057-.077a.565.565 0 0 1 .005-.133l.057-.011.018.101zm-.065-4.338l.042-.007a.424.424 0 0 0-.041.184l-.032-.185s.017.011.031.008zm-.093 6.891c.002.014.002.014-.011.017-.015.003-.029.004-.031-.01a.107.107 0 0 1 .016-.076c.033.023.05.036.026.069zm-.007-7.549l.015.085-.057.011-.015-.085.057-.011zm-.041 8.453c-.015.003-.026.021-.049.053l-.095-.042c-.003-.014.023-.033.075-.072.045.006.064.032.069.061zm-.135-.52l.01.057-.094.046c-.023.033-.052.039-.047.068-.012.015-.023.032-.038.035-.072.012-.146-.077-.148-.092.114-.02.178-.075.206-.168a.21.21 0 0 0 .064.033c.014-.002.031.008.047.021zm-.219-.168c.014-.003.014-.003.025-.019.057-.011.089-.001.094.027l.012.072-.026.019-.107-.025-.01-.057c-.003-.014.012-.017.012-.017zm-.046-4.985l.029.171-.057.01-.027-.156.055-.025zm-.115-.408a.639.639 0 0 1 .04.229c-.028.005-.108-.113-.113-.142-.006-.028.082-.117.073-.087zm-.089 5.055l-.048-.021-.004-.027c.058.002.075.014.052.048zm7.574.972l1.482-.258c.314-.055.622-.138.945-.224.626-.196 1.386-.564 1.96-1.311a6.297 6.297 0 0 0 1.303-3.399c.106-1.502-.166-2.806-.658-3.777-.493-.972-1.485-1.696-2.778-1.616-.666.058-1.4.229-2.097.526l-1.367.591c-.137.053-.191.165-.18.311l1.052 8.907c.031.172.167.28.338.25zm.39-.714c-.012.018-.04.022-.069.027-.042.008-.149-.019-.122-.023.029-.005.057-.01.069-.026.025-.02.054-.024.069-.027.045.008.076.017.09.014-.013.002-.025.018-.037.035zm.881-1.269l-.01-.058c.071-.013.09.013.069.063a.118.118 0 0 1-.059-.005zm1.447.717l-.042.008c.014-.003.025-.02.04-.022a.05.05 0 0 1 .026-.019c.014-.002.031.01.036.036-.016.003-.03.006-.06-.003zm.819-5.416c-.031-.01-.045-.008-.064-.032 0 0 .014-.002.012-.017l.027-.005a.16.16 0 0 1 .158.06c.019.026.024.056.041.066a.104.104 0 0 1 .021.041l.124.037c.005.028-.007.045-.033.064l-.042.008c-.011.016-.026.019-.055.023-.085.015-.182-.115-.187-.144-.002-.014-.005-.028.01-.031.012-.017.009-.031.006-.045-.001-.013-.004-.028-.018-.025zm.264-.34c-.002-.014.007-.045.045-.08.028-.006.028-.006.059.003a.06.06 0 0 1 .045.008c.002.014-.012.017-.009.03l-.047.067c-.052.039-.083.03-.093-.028zm-.016 2.779c-.024.034-.024.034-.052.039l-.01-.056a.163.163 0 0 1 .074 0c.003.015-.012.017-.012.017zm.034-1.578c-.017-.011-.017-.011-.031-.008l.024-.033.071-.013c.003.014.003.014.017.013.005.026-.007.044-.036.049-.028.004-.042.006-.045-.008zm.075 1.531l.024-.034c.019.027.021.04.009.056-.03-.01-.033-.022-.033-.022zm.033-1.754c-.017-.012-.021-.041-.029-.084l.054-.024c.015-.003.043-.007.06.005.002.015.019.026.036.038l.01.058c-.014.002-.026.019-.041.021l-.072.012c.001-.001-.016-.011-.018-.026zm.071 1.25l-.036-.037-.005-.028c.014-.003.025-.021.025-.021.014-.001.026-.019.041-.021l.064.032a.22.22 0 0 1-.089.075zm.172-1.205c.02.027.027.069.003.103-.017-.011-.036-.037-.069-.061 0 0 .012-.018.026-.02s.026-.019.04-.022zm-.02-.451a.28.28 0 0 1 .11-.05c.002.015.019.027.007.043l.007.044-.083.028c-.017-.011-.019-.025-.019-.025-.003-.014-.003-.014-.022-.04zm-.053.201l-.031-.01-.002-.015.045.007-.012.018zm-.018.575l.085-.016c.015-.003.017.012.031.01.015-.003.017.012.02.026l.002.014-.015.003-.011.017-.015.002-.012.018-.029.005a.144.144 0 0 1-.056-.079zm.175 1.085c-.038.037-.105-.012-.11-.04-.005-.027.011-.104.038-.123-.02-.026.014-.002.082.045.047.021.081.043.095.042-.058.009-.096.046-.105.076zm-.013-.408l-.033-.024c-.031-.009-.034-.023-.037-.038-.002-.014-.004-.027.007-.044.014-.003.012-.018.009-.032.014-.002.014-.002.026-.018.045.005.079.03.081.044.003.014.003.014-.011.016l.002.015c.017.013.031.01.06.006 0 0 .016.012.019.025.014-.003.017.012.019.026l-.142.024zm.146-.687c-.043.008-.155.041-.157.027.012-.016.007-.045.001-.074-.002-.015.007-.044.032-.064l.057-.01.037.038c.002.015.021.04.05.035l.008.044-.028.004zm-.083-2.072a.08.08 0 0 1 .031-.078c.002.015.019.025.038.052l.01.059c-.056.008-.074-.004-.079-.033zm.229 3.589c-.086.015-.12-.009-.13-.065-.004-.028.007-.046.033-.064l.114-.021c.015-.003.045.008.048.022l.036.037.008.042c-.054.024-.08.045-.109.049zm.125-.801l-.015-.084.028-.006.015.085-.028.005zm.115 1.169c-.002-.013-.002-.013.01-.028l-.005-.029.085-.016.01.057-.1.016zm.254-2.173c.028-.005.045.007.05.035-.042.009-.071.013-.073-.002l.023-.033zm-.259-1.144l.015-.002c.028-.006.042-.007.059.004l.007.043c-.026.019-.059-.004-.093-.028l.012-.017zm-.046 1.506l.028-.005c.1-.019.153.032.158.06.002.015-.023.035-.05.053-.043.008-.054.024-.054.024-.029.005-.045-.007-.076-.016l-.018-.101c.015-.001.012-.015.012-.015zm.017.26c-.015.003-.012.018-.012.018l-.012.018.002.014-.034-.024c.015-.003.027-.02.056-.026zm-.107.064s.002.014.03.01c.015-.003.029-.006.032.009.002.015-.007.045-.03.08-.012.016-.021.047-.014.09l-.043.007c-.079-.03-.109-.04-.117-.083l-.032-.185c-.003-.015-.005-.028.009-.03.023-.034.023-.034.019-.063-.003-.015-.005-.029-.022-.041-.016-.011-.019-.025-.041-.065.012-.017.04-.022.054-.024l.014-.002c.002.015.017.012.031.009l.014-.003c.011.057.04.139.096.291zm-.179-2.039c.042-.008.071-.013.088-.001l.013.071c-.015.003-.026.019-.041.021-.042.008-.073-.002-.073-.002-.02-.025-.034-.023-.036-.038-.006-.028.021-.046.049-.051zm-.12-.686c.005.029.019.027.053.05-.023.034-.035.052-.061.07-.043.007-.063-.019-.067-.048a.124.124 0 0 1 .075-.072zm-.226-.12l-.036-.038a.032.032 0 0 0-.034-.024l.052-.038c.028-.005.057-.01.091.014l-.073.086zm-.292-.494c.026-.019.036-.05.062-.067a.574.574 0 0 0 .206-.082l.013.072c.005.027.021.038.024.053.015.087-.08.133-.18.149-.042.008-.128.023-.143-.063l.018-.062zm-.21.815c.012-.017.023-.033.052-.038l.058-.01c.03.008.033.022.035.037l.034.023c.002.015.034.023.062.02.029-.005.031.01.034.022.012.07-.097.12-.127.11-.015-.085-.078-.104-.182-.115.024-.017.036-.034.034-.049zm-.191-.759l.01.057-.028.005-.01-.057.028-.005zm.022.804l.086-.016.034.023c-.038.036-.047.067-.062.069l-.085.016-.017-.013s-.002-.014-.017-.012c-.008-.04.018-.06.061-.067zm-.121.74a.134.134 0 0 0 .093-.061s.016.012.031.011c0 0 .017.011.019.025l.02.113-.038.036c-.09-.015-.139-.034-.141-.049.01-.031-.01-.057-.045-.095.016.013.048.023.061.02zm-.144-.915c.014-.002.014-.002.017.013.005.027-.009.029-.024.032-.028.006-.06-.005-.09-.013.023-.033.052-.037.097-.032zm-.827-2.22s.014-.003.031.009c.014-.003.031.009.06.005l.005.028c.002.014.005.028.019.026l.005.029-.099.017c-.029.005-.057.011-.103.004a.301.301 0 0 1 .082-.118zm-.061.246l.101-.018c.005.027.007.042.024.055.017.012.02.025.024.054.003.015-.052.038-.119.08a.133.133 0 0 1-.06-.093c-.008-.043.002-.074.03-.078zm-.74.642l.157-.028-.009.12-.16.013.012-.105zm-.453 1.445c.192-.076.413-.159.662-.247.484-.172.833-.189 1.084.237.234.414.398.768.47 1.431 0 0 .009-.03.044-.08.134.005.198.038.203.066.015.086-.083.117-.125.124a.08.08 0 0 1-.079-.029c-.015.002-.031-.01-.05-.035.026.317.017.688-.019 1.074a6.525 6.525 0 0 1-.212.978c-.185.708-.605 1.163-1.433 1.469l-.074-.59-.014.002c-.071.013-.119-.008-.157-.06-.02-.027-.039-.052-.046-.095l-.012-.071c-.002-.015.035-.051.085-.104l.114-.02-.369-3.387c-.031-.011-.062-.02-.067-.049-.007-.041-.063-.105-.14-.21a.382.382 0 0 0 .151-.144l.015-.003-.031-.257zm-.206 3.958l.085-.016c.031.01.064.034.069.062-.014.003-.043.009-.083.03-.028.005-.04.021-.055.024-.002-.015-.019-.026-.024-.056-.014.004-.016-.011.008-.044zm-.269-5.755l.086-.016c.013.072.02.114.005.117l.008.042c-.043.008-.117.006-.122-.022-.006-.042.005-.06.023-.121zm-.166 7.901c.029-.005.136.021.148.092 0 0-.028.005-.068.026-.043.009-.098.032-.155.042-.002-.015-.005-.029-.019-.026l-.005-.028c-.01-.058.028-.093.099-.106zm-.247.352l.128-.022c-.009.03.01.057.029.083.022.041.041.066.043.081.003.015-.021.047-.044.081a.217.217 0 0 0-.065.128.215.215 0 0 1-.091-.102.712.712 0 0 0-.073-.163s-.017-.012-.021-.041c-.003-.014-.005-.027-.022-.039a.414.414 0 0 0 .116-.006zm-.076-.267l-.012.018-.074-.002-.005-.028.091.012zm-.398-7.685s.014-.003.026-.019c.043-.008.105.011.155.046-.015.003-.068.027-.183.047l-.005-.028c-.014.002-.017-.013-.019-.026l-.002-.015.028-.005zm-.396 3.124c.002.015.002.015-.025.02-.018-.013-.015.002-.026.02l-.062-1.282c.039.052.11.128.103.173a2.38 2.38 0 0 1-.019.312.663.663 0 0 1 .01.146c.013.159.026.318.038.39l.018.101c-.009.027-.016.073-.037.12zm.065-3.169l-.033-.024-.003-.013.048.02-.012.017zm.172 4.361c.063.02.125.037.191.085a.093.093 0 0 1-.085.015l-.086.015-.02-.115zm.063 2.134l.003.015c.003.014.003.014.016.011l.003.015c-.029.004-.079-.031-.022-.041zm7.418 1.337c.032.185.18.277.352.248l5.946-1.358c.183-.047.251-.161.222-.333l-.313-1.796a.295.295 0 0 0-.35-.233l-3.786.777-.136-1.196 3.051-.957c.152-.055.22-.17.192-.327l-.258-1.482c-.027-.157-.192-.26-.35-.232l.244 1.396-.058.01-.243-1.396-2.91.669-.104-1.2 3.848-1.098c.169-.044.236-.158.221-.332l-.253-1.703c-.029-.173-.181-.278-.365-.245l-5.812 1.291c-.171.029-.241.13-.24.307.117 1.595.261 3.185.465 4.779.195 1.536.408 3.013.637 4.411zm4.807-6.301a.125.125 0 0 0-.074-.001l-.023-.143.074-.072a.274.274 0 0 1 .122.023l.02.114-.044.08c-.015.003-.046-.006-.075-.001zm.064.958l.048.096c.001.015-.011.031-.02.062-.012.018-.023.034-.044.082l-.063-.356c.041.065.063.104.079.116zm-2.935-3.366c.001.015-.008.046-.022.049l-.015.002-.045-.006-.078-.031c-.01-.058.017-.076.059-.083a.31.31 0 0 1 .136.02l-.035.049zm.282.113l-.1.017s-.016-.012-.018-.026c-.006-.027.005-.045.018-.063l.011-.016.015-.002c.015-.003.012-.018.026-.021.058-.009.075.017.081.046.007.043-.003.06-.033.065zm.056.651l-.008-.043.028-.006.008.044-.028.005zm2.034-1.045l-.011-.071.027-.005.013.07-.029.006zm.01-1.133l.008.044-.028.006-.008-.044.028-.006zm-1.108.298l.01.057-.114.02-.01-.056.114-.021zm-.356.823l.033.025c.018.012.033.023.035.038l-.169.044c-.003-.029.035-.065.101-.107zm-.236.247c-.026.021-.055.025-.07.013l-.073.013-.04-.065c.025-.02.04-.022.055-.025.014-.002.028-.004.055-.023.043.005.066.045.073.087zm-.096-.379l-.006.046-.019-.012-.013.002-.005-.029.043-.007zm-.051-.461l.005.029-.057.009-.005-.029.057-.009zm-.221.669c.065.033.083.061.087.074l-.114.02.027-.094zm-.129-.828c.057-.01.091.014.096.043.002.013.004.027-.02.062-.012.017-.023.033-.018.062l-.011-.056c-.004-.029-.038-.053-.099-.058-.028.005-.055.024-.068.026.022-.048.062-.068.12-.079zm-.237-.091c.002.014.019.025.033.023-.043.007-.059-.005-.033-.023zm-.066.716l.029-.005c.027-.006.025-.019.039-.021l.029-.005a.108.108 0 0 0 .052-.039l-.059.084.002.015c.005.028.036.037.081.045l-.023.033-.015.003s.003.015-.025.019l-.17.03-.035-.023c.02-.064.055-.114.095-.136zm-.173.192l.044.08-.085.015c-.013.017-.027.019-.059.01-.003-.029.035-.065.1-.105zm-.123-.537c.041-.022.056-.025.032.009-.024.033-.051.054-.048.067-.009-.057.002-.074.016-.076zm-1.083 8.619l-.143.024-.015-.085.185-.032c-.025.02-.034.051-.027.093zm.468-.008l.156-.027.011.057-.156.027-.011-.057zm.615-4.058a.4.4 0 0 1-.125.037c-.031-.01-.058.01-.063.055a.168.168 0 0 1-.054-.049l.038-.036s.134.006.204-.007zm-.087-.336c-.004-.015.011-.018.025-.021l.015-.003.03.011c-.026.019-.04.021-.04.021-.009.031-.025.02-.03-.008zm.379 1.079c-.029.005-.058.01-.089 0l.019-.061c.031.009.065.032.07.061zm-.063-.107l.021-.047.086-.016c.003.029-.008.046-.022.048l-.085.015zm.033.185l.032.024c.015-.003.031.009.034.022l-.098.032c-.029.005-.055.024-.095.046l-.081-.045c.015-.002.025-.019.025-.019s.027-.021.055-.024a.312.312 0 0 0 .128-.036zm-.1.194l-.037.035-.072.013-.009-.057.118.009zm-.225.392l-.009-.057c-.003-.015-.006-.029.009-.031l.034-.05c.019.012.021.025.011.057-.013.017.008.042.026.068l-.071.013zm.057.077l-.042.008-.01-.058.041-.008.011.058zm.013-.265l-.159.013c.011-.017.023-.034.021-.048l.159-.014c.003.014-.006.047-.021.049zm-.102-.159a.232.232 0 0 1 .12.007c-.023.035-.053.039-.082.045l-.038-.052zm.156.384c.015-.003.026-.021.07-.027l.002.015c.002.015.005.028.018.025l-.094.046c-.017-.012-.017-.012-.02-.026-.014.003-.018-.011-.019-.025l.043-.008zm-.09-.514l-.009-.057c-.007-.043.019-.063.062-.07l.028.084-.081.043zm-.015-.173l-.043.007c-.029.006-.073 0-.138-.033l-.013-.072c-.008-.042.003-.147.074-.159.029-.006.046.007.06.005.018.011.034.022.065.032l.032.186-.037.034zm-.166.058l.071-.013c.003.015.019.025.035.038l-.018.062-.131.009c-.003-.014.008-.046.043-.096zm-.046.493l-.081-.045.098-.032c.002.015.038.052.076.104-.044.009-.074 0-.093-.027zm.055.829c.005.027.021.039.007.042l.009.043a.11.11 0 0 1-.075-.017c-.001 0 .017-.062.059-.068zm-.131-1.682s-.019-.026-.023-.055c-.031-.01-.021-.04.03-.079a.125.125 0 0 1 .074.09c-.012.018-.037.036-.081.044zm-.027-.156l-.003-.015c.015-.003.015-.003.026-.021.017.013.017.013.031.011l.018.012c-.024.032-.038.035-.072.013zm-.003-2.38c-.002-.014.013-.017.024-.033s.022-.033.037-.036c.021.04.024.055.013.072l-.074-.003zm-.005-.704l-.028.005c-.005-.028.008-.045.021-.048.003.015.005.028.02.026l-.013.017zm-.01 3.394l.038.053c-.026.019-.056.023-.1.018-.003-.015.047-.068.062-.071zm-.023.798l-.013.017c-.012.016-.012.016-.006.045l-.091-.015c-.002-.013.009-.029.034-.049 0 0 .03-.005.076.002zm.017.614c-.009.03-.022.032-.02.046-.013.018-.027.02-.069.027l-.025-.054a.27.27 0 0 1 .067-.042l.047.023zm-.145-1.18c-.003-.013.006-.044.061-.068.02.026.021.041.011.056l-.072.012zm.085.911c.008.043-.016.076-.058.098-.032-.023-.038-.052-.028-.083l.086-.015zm-.034 2.928l-.009-.058.112-.02.012.057-.115.021zm.241-.305a.18.18 0 0 1-.002.073.696.696 0 0 0-.204.007l-.022-.129.242-.042c0 .015.006.043-.014.091zm-.077-.443l-.01-.057.156-.027.01.057-.156.027zm.131-2.108c-.015.003-.015.003-.03-.009l-.015.002-.011-.058.028-.005s.015-.002.013-.017l.028-.005.026.069c-.009.018-.024.02-.039.023zm.048.183l.07-.012-.009.03-.061-.005v-.013zm.062 1.281l-.016-.085.085-.015-.046.066c-.012.017-.027.019-.023.034zm.146 1.017a.823.823 0 0 0-.108-.289.354.354 0 0 1 .106-.063c.084.059.091.278.002.352zm-.003-.69l-.012-.071.114-.02.013.072-.115.019zm.113-2.06l.085-.016.01.058-.086.015-.009-.057zm.091 1.628c-.043.008-.074-.001-.078-.029l.085-.016c-.014.003-.014.003-.012.017l.005.028zm.013-1.868l-.011-.057.073-.013c.006.03-.019.063-.062.07zm-.132-.755l-.085.016c-.017-.013-.046-.007-.077-.018.013-.015.037-.05.063-.069l.092-.061-.051-.034c-.015.003-.03-.009-.032-.023l.085-.015c.031.009.051.034.059.077.014-.002.025-.019.023-.033-.003-.014.009-.03.036-.035l.072-.013.021.114c-.175.104-.176.09-.206.094zm.996 2.176l-.033-.021-.002-.015.027-.005c-.002-.015.013-.017.026-.02.034.024.023.041-.018.061zm.677 1.015c-.01.03-.022.048-.02.063l-.198.034s-.021-.026-.027-.068a.28.28 0 0 1-.006-.117l.171-.03.083.059c.004.013.009.041-.003.059zm2.361.072c.015-.002.027-.019.021-.047l.059-.01c-.023.033-.05.052-.08.057zm-.07-.751l.149.02.007.041-.177.002.021-.063zm-1.616-.761l.016.012-.009.03-.029.005.022-.047zm-.035 1.577l-.1.018-.004-.029.099-.018.005.029zm-.032-1.037s.002.014-.011.031l-.021.047c-.043.008-.076-.016-.083-.058l.115-.02zm-.493-.37c.019.012.021.025.035.024.015-.003.015-.003.016.012l-.054.024.003-.06zm-.045.156c.017.011.019.025.019.025-.012.018-.009.032-.006.046l-.072.013c-.005-.03.018-.063.059-.084zm-.099.354l.027-.004.008.041-.043.009.008-.046zm-.14-.549c.028-.004.051-.038.049-.052l.041.066s-.012.017-.01.031c.003.015-.01.03-.021.048l-.07.013a.078.078 0 0 0-.053-.05c.014-.002.026-.019.064-.056zm-.036.213c.001.015.004.029-.011.031.003.014.005.028-.008.03 0 0 .002.015-.013.018l-.045-.094a.12.12 0 0 1 .077.015zm-.26.456l.034.023s.002.015-.013.018-.011.017-.011.017l-.039-.053.029-.005zm-.094-.542l-.085.015-.006-.027.087-.015.004.027zm-.075-.089l.006.028-.114.021-.005-.029.113-.02zm-.235.585l.053.049-.028.004-.039-.052.014-.001zm-.062.656l.013.071-.114.02-.013-.071.114-.02zm-.422.441c.025-.02.054-.024.08-.043a.582.582 0 0 1 .155-.042c-.013.018-.038.035-.062.07-.013.017-.059.083-.123.139-.006-.029-.089-.087-.12-.098.03-.004.041-.021.07-.026zm2.489-4.09l.009.042-.173.03-.007-.043.171-.029zm-1.704-1.186l.057-.011-.014.09-.062-.018.019-.061zm-.02-.115l-.026.018-.003-.013.029-.005zm-.089 0l.003.014-.014.003.011-.017zm-.128.61l-.115.02s.013-.017.007-.045c.009-.03.009-.03.005-.059l.114-.02.01.056c.002.014.006.029-.021.048zm.015-.163l-.099.016c-.02-.025-.036-.037-.039-.052 0 0 .015-.002.026-.02.031.01.033.024.065.033l.047.023zm-.092-.279c.047.021.043.08.003.102l-.081-.043.078-.059zm-.53.254l-.015-.086c.066.033.071.061.015.086zm-.157.102c-.002-.015.011-.018.011-.018l.027-.02c.016.012.047.021.09.014l.012.072-.027.005-.013.018c-.028.005-.061-.006-.074-.003l-.066-.047a.098.098 0 0 1 .04-.021zm-.009.882l.05.036c-.039.021-.064.04-.094.046-.057.01-.085.015-.112-.055l.156-.027zm-.159-.077c-.045.082-.077.147-.039.199l-.123.052c-.02-.027-.011-.058-.003-.103-.018-.012-.077-.017-.139-.035a.457.457 0 0 1 .106-.063.14.14 0 0 1 .08-.042l.058-.011c.032.009.032.009.06.003zm-.067-1.47l.013.071-.07.012-.013-.07.07-.013zm-.114.269l.013-.017c.027-.005.045.006.059.004.018.012.045.007.06.004l.018.1c-.013.018-.04.022-.054.024-.071.013-.12-.008-.127-.051-.007-.028.006-.045.031-.064zm.057.489l.085-.015.008.044-.042.007c-.059.011-.101.018-.135-.006-.03-.01-.047-.021-.053-.05.029-.004.12.01.137.02zm-.147.511c.018.011.033.023.062.019-.022.034-.052.039-.094.046-.015.003-.043.008-.084.029a.158.158 0 0 1 .028-.093l.07-.013.018.012zm-.039-1.74l-.06-.005-.002-.015.073.002-.011.018zm-.226-2.737l.029-.005-.003-.014.199-.035.008.043-.187.032-.011.017-.1.018c-.002-.015.025-.034.065-.056zm-.115-.319l.007.043-.027.006-.009-.043.029-.006zm.005 5.008s.017.012.046.008c-.025.019-.04.021-.035.05-.028.005-.04.021-.055.024l-.048-.021a.079.079 0 0 1 .032-.064c.03-.007.047.006.06.003zm-.088-4.64l.005.028-.042.008-.005-.029.042-.007zm-.164 8.841l.028-.005.01.057-.028.004-.01-.056-.129.022-.009-.058.128-.022.01.058zm-.139-8.817l.008.042-.3.052-.007-.041.299-.053zm-.229.464c.004.015-.011.017-.023.034-.011.017-.023.033-.02.048l-.058.011-.004-.029a.108.108 0 0 1-.024-.055l.129-.009zm-.042 8.366c-.022.033-.129.095-.17.029l.17-.029zm-.775-7.664l.014-.003-.009.031-.031-.01.026-.018zM55.84 45.964c-.188.14-.397.254-.605.361-.483.25-.786.069-.816-.479l-.014-.275c-.153-.046-.303-.144-.395-.105-.135.056-.228.212-.338.323.368.353.253.728.057 1.111-.017.032.034.102.087.245.088-.23.138-.365.225-.596.14.216.23.364.329.507.187.267.559.273.653-.011.229-.686.75-.828 1.447-.817-.122-.394-.294-.512-.63-.264zm1.083-12.544c.564-.558.751-1.271.835-2.108-.383.291-.867.303-.954.835-.055.339-.215.662-.303.999-.024.094.009.28.064.302.104.04.289.04.358-.028zm3.975 7.464l.918-.546c-.165-.2-.165-.2.372-.92-.179-.271-.399-.501-.629-.084-.272.494-.598.57-1.093.287l.474.913-.042.35zm3.745.356c.313-.055.73-.814.682-1.14-.025-.164.043-.354.106-.517.046-.115.154-.205.234-.307-.051-.038-.101-.075-.15-.114l-.816 1.031c-.076.227-.182.528-.276.832-.016.049.001.135.037.166.041.04.124.059.183.049zm-.519-.006l-1.152.29-.03.111 1.224.226c-.496-.187.019-.507-.042-.627zm-10.009-1.911l-.083.124.294.9c.171-.264.392-.511.354-.563-.142-.19-.371-.313-.565-.461zm5.91 2.853l-1.3-.531-.089.246 1.316.482.073-.197zm-4.089-1.153c.05-.048.097-.097.146-.146l-.821-.739-.136.139c.143.376.503.536.811.746zm-.866-3.889c.03-.01-.013-.24-.021-.348l-.928.513c.395.405.649-.062.949-.165zM53.499 49.32l.177.015c.04-.511.081-1.021.12-1.532-.062.002-.123.002-.185.002l-.112 1.515zm12.478-11.686c-.018-.402-.036-.806-.056-1.208l-.163.016.096 1.206.123-.014zm-63.744.787c-.18.133-.379.243-.578.345-.459.238-.749.066-.778-.458l-.013-.262c-.146-.044-.289-.138-.376-.101-.128.053-.217.201-.322.308.351.336.242.694.054 1.06-.016.032.033.097.083.234l.214-.568c.133.205.219.347.313.482.178.255.533.261.624-.011.219-.652.717-.79 1.381-.779-.116-.375-.281-.487-.602-.25zm6.803-4.237l-.029.106 1.167.215c-.471-.178.021-.483-.039-.597-.396.1-.748.19-1.099.276zm-7.91-1.66c-.135-.181-.353-.299-.539-.439l-.079.118.281.858c.163-.251.374-.487.337-.537zm1.406 11.247c-.037.038-.007.164.023.239.068.17.155.332.268.565.076-.095.217-.198.202-.266a2.4 2.4 0 0 0-.25-.598c-.012-.022-.192.006-.243.06zm-.206-10.064l.138-.139-.783-.706-.129.133c.136.358.48.511.774.712zm-.828-3.71c.03-.01-.012-.23-.019-.332l-.885.489c.376.386.618-.06.904-.157zM0 41.622l.168.014.115-1.461-.177.001L0 41.622zm17.776 7.056c-.135.245-.288.188-.473.063-.139-.09-.295-.154-.444-.229l-.056.108 1.005.796c.107-.17.184-.304.272-.431.19-.272.386-.542.582-.811.063-.086.119-.209.205-.24.484-.176.885-.01 1.168.528.147-.107.358-.182.403-.314.057-.166-.005-.383-.046-.569-.028-.131-.107-.249-.164-.372-.036.018-.073.036-.108.055l.012.604c-.522.117-.53-.777-1.039-.386-.278.214-.856.025-.792.75l-.281-.475-.124.059c.079.148.167.291.23.446a.475.475 0 0 1 .032.272c-.009.035-.126.048-.193.071-.064.024-.164.029-.189.075zm8.859-6.813c.494-.489.657-1.113.731-1.846-.335.254-.76.266-.836.731-.049.297-.188.58-.265.875-.021.083.008.246.056.264.091.036.253.036.314-.024zm-2.533 5.277l.258.788c.15-.231.343-.447.309-.492-.124-.166-.323-.274-.494-.403a6.77 6.77 0 0 0-.073.107zm1.669 1.382l.126-.128-.719-.648-.119.122c.126.329.442.468.712.654zm-.778-3.711l-.812.448c.345.355.568-.054.83-.144.027-.008-.011-.21-.018-.304zm9.522-.315l-.143.014.084 1.057.108-.013-.049-1.058zm4.467-14.792a2.702 2.702 0 0 1-.44.06l.429.027.011-.087z"/><path d="M39.704 29.839l.456.029-.061.547c-.195.013-.393.034-.589.054-.361 1.195-.719 2.391-1.1 3.575.051-.461.115-.934.182-1.416l.119-.896c.051-.403.109-.805.162-1.208-.588.034-1.167-.004-1.712-.328l.055-.515.459.029c-.956-.158-1.881-.528-2.792-.191l-.041.304c.194.008.385.027.568.076.168.045.114.928.194 1.763l-.925-.612-.022.167-.114.859c-.182 1.333-.37 2.711-.311 4.146l.005.138c.044 1.185.149 3.959 2.564 4.553.238.059.483.088.729.088 2.265 0 3.657-2.351 4.076-3.594 1.391-4.123 2.609-8.356 3.789-12.451l.377-1.31c.335-1.158.632-2.328.927-3.497a97.636 97.636 0 0 1 1.002-3.741c.354-1.187.578-1.563.706-1.671.566-.468 1.17-.742 1.449-.809.248.182.599.626.656.842.114.671.114 1.458.026 2.348.061 1.973.101 1.982.733 2.12-.265.692-.64 1.679-1.016 2.666l-.48-.78a705.88 705.88 0 0 1-1.246 5.522l2.037-.589.176.532-2.379.783c-.091.393-.183.794-.271 1.184-.821 3.564-1.672 7.249-2.441 10.897a84.366 84.366 0 0 0-.673 3.639c.949 1.015 1.854.877 2.435-.414.257-.572.505-1.156.669-1.758.076-.282.174-.485.288-.63.381-.032.702.156.954.572-1.14 1.004-1.734 2.09-1.162 3.674.271.753-.519 1.355-1.35 1.105-.443-.135-.878-.296-1.526-.514l.516 1.614c-.349-.21-.569-.269-.59-.368-.108-.546-.256-1.054-.53-1.449a289.71 289.71 0 0 0-.723 5.223l-.015.108c-.216 1.641-.666 5.055 2.623 7.022.947.566 1.948.853 2.974.853 1.533 0 3.026-.62 4.567-1.897 1.26-1.048 2.372-2.219 3.447-3.351.256-.27.504-.527.752-.785.089.021.167.049.269.063a9.89 9.89 0 0 0-.188-.147 39.05 39.05 0 0 1 1.289-1.286c.296-.279.591-.563.886-.849 1.289-1.242 2.507-2.416 3.854-3.164.461-.256 1.108-.426 1.861-.51l-2.447-2.293c-.332.338-.64.648-.947.958-.154-.497-.451-.999-.43-1.489.004-.088.02-.176.029-.265-.016.008-.033.015-.049.024-1.816 1.008-3.288 2.426-4.709 3.797l-.053.05-.001-.002a78.997 78.997 0 0 1-.798.768c-.801.756-1.555 1.548-2.282 2.314-1.039 1.096-2.021 2.13-3.095 3.021-.766.634-1.423.955-1.957.955-.281 0-.568-.089-.877-.272-.726-.435-.936-.951-.667-2.981l.014-.108c.428-3.248.879-6.596 1.531-9.825.137-.079.271-.154.307-.262.066-.189-.005-.436-.052-.65-.008-.041-.027-.079-.044-.118.736-3.458 1.54-6.96 2.322-10.352.719-3.12 1.463-6.346 2.151-9.536.493-2.291.596-4.207.313-5.856-.278-1.63-1.901-3.742-3.786-4.168a3.68 3.68 0 0 0-.8-.087c-1.874 0-3.649 1.348-4.149 1.76-1.141.942-1.641 2.382-2.021 3.658-.388 1.303-.722 2.624-1.047 3.902a102.247 102.247 0 0 1-.891 3.367l-.378 1.311a512.177 512.177 0 0 1-1.761 6.014zm9.287 10.203c.152.022.32.086.508.187l.002.043c-.242.054-.385-.08-.51-.23z"/><path d="M72.65 44.709c-.668-1.501-2.167-2.451-4.112-2.605a15.326 15.326 0 0 0-1.206-.048c-.792 0-1.791.07-2.809.309.971 1.019 1.464 2.347 1.758 3.841.333-.038.68-.063 1.051-.063.301 0 .598.013.883.037.466.036.676.167.694.172.01.062-.031.326-.342.731-.803 1.043-1.725 2.014-2.7 3.04-.967 1.017-1.967 2.069-2.872 3.227-1.568 2.007-3.102 4.081-4.583 6.085-2.118 2.864-4.308 5.827-6.602 8.587-2.664 3.204-5.745 6.353-9.419 9.628-3.683 3.284-8.332 4.632-13.685 3.977a205.935 205.935 0 0 1-14.848-2.383c-3.111-.614-5.078-2.685-6.188-6.513-1.678-5.791-1.573-11.696-1.209-17.216.191-2.904.419-5.808.648-8.711.37-4.69.748-9.535.961-14.333l.218-.296a1.028 1.028 0 0 0-.195-.233c.113-2.831.032-5.676-.061-8.444-.23-.542-.503-1.061-.917-1.5-.229-.244-.086-.836-.114-1.268l.438-.113.524.69c-.05-1.581-.093-3.177-.086-4.748.007-1.734.261-2.032.312-2.074 0 0 .092-.057.384-.057.407.001.675.001.927 2.288.282 2.558.547 5.116.808 7.675l2.176 2.865-.938 1.264c-.304-.278-.6-.566-.904-.842l.108 1.063.368 3.628-.435.55c-.073.216-.173.504-.264.793-.015.047.001.129.034.159.042.037.12.055.176.045.204-.036.451-.383.574-.7.057.559.112 1.117.17 1.676.016.151.027.305.039.459.056.729.125 1.635.544 2.509l.099.211c.407.88 1.255 2.711 3.208 2.711l.306-.017c1.584-.175 2.668-1.6 2.83-3.714.285-3.682.538-7.366.792-11.049.256-3.727.512-7.453.802-11.178.183-2.371.609-4.836.985-7.011.319-1.844.712-1.858 1.278-1.858h.013c.347.003.622.006.677 1.506.211 5.68.2 11.449.189 16.538-.004 2.014-.076 4.078-.146 6.075a326.057 326.057 0 0 0-.116 3.78c-.017.712-.041 1.687.469 2.597l.092.17c.179.333.454.829.857 1.272l.067-.145c.368.189.782.323 1.095.58.2.165.418.336.618.519.111.013.217.037.336.037l.238-.011c.646-.057 2.207-.464 2.769-3.001.461-2.093.894-4.323 1.399-7.232l.096-.557c-.649-.553-1.131-1.319-1.103-2.025l1.271 1.045.424-2.467c-.173.583-.418 1.113-1.378.988l1.094-2.61c.12.131.335.331.479.486l.51-2.97c.657-3.847 1.314-7.694 1.995-11.537.284-1.607.606-2.856 1.015-3.929.371-.975.887-.975 1.081-.975.066 0 .135.005.205.013.318.041.798.101.969 1.332.137.98.16 1.799.072 2.505-.285 2.292-.706 5.732-1.047 8.6a464.753 464.753 0 0 0-.425 3.67c-.055.496-.11.996-.112 1.463l-.022-.003-.379 2.782c-.147 1.076-.287 2.154-.431 3.231.651-.202 1.147-.129 1.135.699-.013.861.52.751 1.086.803.557.051 1.109.185 1.661.307.197-1.496.394-2.992.599-4.487l.653-4.813-.075-.01c.288-2.539.863-7.301 1.414-11.738.132-1.065.105-2.234-.08-3.571C41.138 2.118 39.496.36 37.012.048A5.29 5.29 0 0 0 36.3 0c-2.21 0-4.042 1.349-4.901 3.609-.502 1.319-.89 2.803-1.219 4.669-.2 1.127-.389 2.256-.585 3.384.025.39.025.787-.024 1.197-.015.125-.117.261-.248.379-.381 2.201-.766 4.4-1.142 6.602a3946.58 3946.58 0 0 1-.97 5.663c.008-.5.013-.999.014-1.498.008-4.279.016-9.036-.106-13.841a1.75 1.75 0 0 1-.035-1.269c-.016-.529-.032-1.059-.052-1.588-.181-4.877-3.366-5.429-4.784-5.44-2.911 0-4.692 1.766-5.295 5.249-.391 2.264-.835 4.83-1.033 7.392-.29 3.735-.547 7.474-.804 11.212l-.229 3.31-.07-.7c-.406-4.022-.811-8.044-1.254-12.062-.178-1.618-.651-5.917-4.991-5.927-2.169 0-4.76 1.076-4.78 6.201-.008 2.171.065 4.361.138 6.479.017.488.032.982.047 1.475-.348.223-.747.276-.823.745-.053.324-.205.632-.289.953-.023.09.009.268.062.288.098.038.275.038.341-.027.421-.416.618-.925.724-1.507.071 2.321.113 4.675.015 6.971-.207 4.846-.596 9.786-.972 14.564-.23 2.92-.46 5.84-.652 8.763a94.095 94.095 0 0 0-.216 5.897c1.2-.289 1.64-.983 1.416-2.325-.21-1.258.631-1.139 1.455-.867.07 2.396.07 2.396.746 2.543L4.769 63.16l-.498-.807-2.105-.95c.003 2.158.121 4.385.408 6.635l2.505-.725.177.531-2.6.856a37.608 37.608 0 0 0 1.091 5.166c1.539 5.31 4.675 8.467 9.32 9.386 1.328.262 2.656.51 3.981.746.098-.512.258-1.022.376-1.547a5.336 5.336 0 0 1 2.266 1.995c2.866.475 5.716.893 8.52 1.235 1.04.128 2.076.192 3.081.192 2.944 0 5.674-.554 8.186-1.611-.315-.171-.654-.3-.984-.445l.134-.275 1.154.444c-1.119-1.188.157-1.658.35-2.421.353-1.395 1.61.166 2.364-.767-.262-.316-.56-.681-.86-1.045l.113-.246c.271.139.575.236.805.426.334.273.744.566.874.938.104.295-.163.72-.271 1.114-1.244-.551-2.184-.285-2.788.696-.108.175-.037.469-.027.707.005.165.017.329.023.493a20.38 20.38 0 0 0 4.749-3.184 102.653 102.653 0 0 0 6.709-6.518 1.746 1.746 0 0 1-.662-.224c.015-.125.027-.252.04-.378l1.11.07a80.214 80.214 0 0 0 2.646-3.017c1.719-2.066 3.358-4.218 4.953-6.354.031-.195.122-.308.261-.352.516-.69 1.025-1.381 1.531-2.064 1.466-1.983 2.98-4.034 4.518-5.998.783-1.002 1.672-1.938 2.613-2.928 1.006-1.058 2.045-2.151 2.979-3.366 1.205-1.569 1.512-3.342.839-4.859zM29.849 28.114c.333.483.654.763.602.912-.134.383-.434.708-.668 1.058-.204-.195-.6-.423-.574-.579.065-.389.324-.745.64-1.391zm-14.074 9.641c.097-.239.346-.612.493-.597.366.036.855.16 1.044.426.547.771.047 2.009-.849 2.285-.458.142-.925.254-1.627.446.36-.997.625-1.788.939-2.56zM4.903 41.038c-.393-.024-.77-.284-1.147-.439.073-.06.144-.124.215-.19l.032.033.142-.024a6.368 6.368 0 0 1-.023-.146c.199-.183.404-.361.643-.463.297-.127.731-.085 1.041.041.094.038.157.401.125.628-.139.025-.291.096-.478.218l.128.151c-.215.122-.464.205-.678.191zm11.624 40.116l.509 1.113-3.429-.687c.671-1.999 1.344-2.223 4.389-1.269l-1.469.843zm31.935-7.144l-.021-.291c.48-.011.983-.099 1.43.021.123.033.083.683.142 1.297l-1.551-1.027zm16.009-17.166c-.539-.581-1.079-1.16-1.616-1.741l.232-.222 1.557 1.791-.173.172z"/><path d="M45.059 61.691c.208-.063.493-.29.518-.478.188-1.547-.394-2.871-1.282-4.263-.234.913-.966 1.523-.45 2.448.327.591.475 1.28.749 1.905.075.176.355.422.465.388zm13.307 9.989c.055.162.108.325.162.487l2.613-.861-.13-.392-2.645.766zm-5.049 2.439l.044-.402c-.352-.021-.702-.044-1.054-.066-.162.178-.323.354-.488.531.487.068.997-.029 1.498-.063zm-6.528-5.443l-.804 1.918c1.103.145.923-.884 1.259-1.406.036-.056-.312-.355-.455-.512z"/></g></svg>