<svg xmlns="http://www.w3.org/2000/svg" width="38.126" height="34.138" viewBox="0 0 38.126 34.138"><g fill="#F9B43B"><path d="M1.425 4.438c.175-.269.354-.537.535-.802.058-.086.109-.206.191-.24.462-.186.855-.038 1.147.473.139-.108.34-.189.38-.317.05-.163-.018-.37-.063-.55-.032-.125-.113-.236-.171-.355l-.103.058.032.583c-.501.131-.538-.734-1.019-.34-.261.216-.826.053-.741.752l-.287-.45-.118.062c.081.141.17.277.238.425a.448.448 0 0 1 .039.261c-.006.035-.119.051-.183.075-.063.025-.16.033-.183.078-.124.241-.273.19-.456.077-.136-.084-.29-.14-.436-.208l-.05.107c.331.246.663.489.998.737.098-.168.169-.3.25-.426zm14.36-.755l-.967.277-.023.095 1.043.156c-.424-.145.002-.431-.053-.528zm-8.04-.958c-.124-.157-.322-.254-.491-.373l-.067.106.275.753c.137-.228.317-.443.283-.486zm4.473 5.11c-.035.154-.075.307-.114.46.526-.486.571-.775.216-.953-.034.165-.065.332-.102.493zM7.999.47c.026-.011-.017-.204-.027-.294-.299.178-.528.314-.772.461.347.331.549-.072.799-.167zm5.893 26.997l1.128.37c.019-.056.038-.112.055-.169-.371-.137-.743-.273-1.115-.412l-.068.211zm-.619 5.269c.042-.007.084-.016.125-.024l-.174-.902c-.429.464-.193.697.049.926zm-3.518 1.169c.05.004.1.005.15.007l.06-1.301a8.625 8.625 0 0 1-.157.007l-.053 1.287zm19.68-24.287c-.015.03.031.087.08.205l.174-.509c.123.179.205.301.293.419.165.22.48.215.552-.028.175-.588.612-.724 1.202-.733-.113-.332-.263-.426-.541-.205a3.905 3.905 0 0 1-.502.323c-.401.225-.662.081-.705-.384l-.02-.23c-.131-.035-.26-.115-.337-.078-.112.052-.187.184-.278.282.323.288.236.609.082.938zm6.412-6.633c-.217.427-.488.499-.917.273.143.254.284.507.427.759-.008.102-.017.2-.024.301l.761-.49c-.145-.165-.145-.165.289-.789-.161-.226-.352-.415-.536-.054zm2.227 1.537l-.967.277-.023.095 1.043.156c-.424-.144.002-.43-.053-.528zm-8.04-.958c-.124-.156-.321-.253-.491-.373a6.056 6.056 0 0 0-.066.105l.275.754c.136-.227.316-.443.282-.486zm4.594 1.874l-1.114-.412-.069.211 1.129.37.054-.169zm-.121 3.237c-.035.154-.076.307-.114.46.526-.486.571-.775.216-.953-.033.165-.065.332-.102.493zm-1.68 1.83c.042-.007.083-.016.125-.024l-.175-.902c-.429.465-.194.697.05.926zm-1.693-5.926l.118-.129c-.239-.199-.478-.401-.716-.602-.036.042-.074.082-.111.122.133.313.443.438.709.609zm-.846-3.269c.026-.01-.017-.204-.026-.294-.299.177-.528.314-.771.461.344.332.547-.072.797-.167zm-12.57 26.686l.09-.001a4.228 4.228 0 0 0 4.134-4.311c-.049-2.28-1.943-4.136-4.223-4.136l-.09.001a4.195 4.195 0 0 0-2.958 1.313 4.178 4.178 0 0 0-1.174 2.999c.055 2.281 1.948 4.135 4.221 4.135zm.001-6.024c.958 0 1.766.779 1.8 1.735a1.805 1.805 0 0 1-1.717 1.864l-.077.002c-.337 0-.652-.1-.923-.264l.027-.04c-.114-.162-.247-.298-.38-.231a1.795 1.795 0 0 1-.528-1.232 1.804 1.804 0 0 1 1.75-1.833l.048-.001zm-8.76 5.163l.086-.001a3.096 3.096 0 0 0 1.935-.762c.156.193.39.304.601.438l.118-.13-.547-.458a3.112 3.112 0 0 0 .931-2.304c-.047-1.675-1.45-3.038-3.126-3.038l-.088.001a3.1 3.1 0 0 0-2.178.984 3.108 3.108 0 0 0-.859 2.231 3.15 3.15 0 0 0 3.127 3.039zm-.001-3.942v.124c.438 0 .69.25.692.686.002.438-.249.691-.699.696-.4 0-.636-.231-.702-.689.06-.459.297-.692.705-.692l.004-.125zm17.733.726l.063-.001a2.832 2.832 0 0 0 2-.893c.53-.56.811-1.284.789-2.042a2.873 2.873 0 0 0-2.951-2.769 2.868 2.868 0 0 0-2.753 2.896 2.865 2.865 0 0 0 2.852 2.809zm-.389-2.868c-.01-.07.105-.213.227-.364.053-.064.109-.136.167-.213.054.076.106.145.154.208.13.171.233.306.229.402-.003.106-.254.36-.334.369-.171-.03-.423-.259-.443-.402z"/><path d="M35.343 27.38c-.235-.027-.471-.055-.707-.071-1.23-.083-2.194-1.053-2.24-2.255-.048-1.236.861-2.283 2.113-2.436.218-.026.435-.063.65-.1.118-.021.235-.041.354-.06l.108-.017-.177-6.606-.048-.035a6.963 6.963 0 0 0-.187-.138c-.138-.099-.268-.192-.384-.303a1739.075 1739.075 0 0 0-4.186-3.944l-1.783-1.679-.702 1.844-.415-.674-2.158-.972.537.509c.728.688 1.454 1.379 2.18 2.068l2.042 1.938c.094.09.183.184.292.298l.01.011-3.958-.549c-4.08-.567-8.298-1.153-12.449-1.712-.65-.087-.962-.236-.977-.852-.004-.235-.116-.466-.227-.695-.801-1.667-2.157-2.586-3.92-2.657-.153-.007-.298.003-.445.009.209-.12.473-.165.781-.17-.114-.332-.263-.425-.541-.205a3.975 3.975 0 0 1-.502.323c-.402.226-.663.081-.705-.384l-.02-.23c-.131-.035-.26-.115-.337-.078-.112.051-.187.183-.278.282.263.234.25.492.154.757-.917.368-1.68 1.063-2.273 2.081-.13.225-.325.416-.427.419l-.072.001c-.272 0-.55-.052-.873-.111l-.272-.05.31-.379c.288-.354.561-.689.848-.999a23.123 23.123 0 0 1 6.878-5.103l.947.311.055-.169-.742-.274a27.758 27.758 0 0 1 5.265-1.853c.52-.127.8-.057 1.16.287 1.873 1.788 3.752 3.568 5.632 5.349l1.828 1.732.068-.018c.979-.262 1.469-.799 1.539-1.69l.006-.06-.044-.041a600.064 600.064 0 0 1-3.163-3.013c.12-.181.239-.362.361-.542.058-.086.108-.206.191-.239.461-.187.854-.038 1.147.473.139-.108.34-.189.379-.318.051-.162-.018-.369-.063-.549-.031-.125-.112-.235-.171-.354a3.379 3.379 0 0 1-.103.056c.012.203.021.406.031.583-.5.132-.537-.733-1.018-.339-.262.216-.826.052-.741.752l-.288-.45-.117.062c.081.141.17.277.238.425a.447.447 0 0 1 .039.261c-.002.012-.026.02-.046.027a332.387 332.387 0 0 1-3.525-3.432C19.188.428 18.293 0 17.21 0c-.462 0-.966.081-1.543.246-2.669.767-5.05 1.758-7.161 2.98l-.259-.217-.111.121a.73.73 0 0 0 .161.231c-3.38 2.003-6.063 4.61-8.096 7.884-.022.036-.06.07-.099.107-.022.021-.045.042-.066.064L0 11.454l.466 17.339-.001-.001.018.621.562.071-.385-.459.078-.17c.086.041.173.08.26.119.281.127.546.246.763.424l.272.22 1.048.138c1.313.172 2.627.344 3.939.525l2.977.414c-.069.063-.131.144-.197.216.323.288.236.608.081.938-.014.029.032.087.081.204l.173-.508c.124.179.205.3.293.418.165.221.48.215.552-.027.175-.589.612-.724 1.202-.734a.747.747 0 0 0-.11-.218c4.518.627 9.035 1.255 13.551 1.885l.101.014.051-.14c.077-.211.157-.43.218-.651.211-.775.512-.865.72-.865.21 0 .477.104.811.316-.535.425-.944.827-1.247 1.229l-.129.17 3.557.495c1.047.146 2.111.313 3.139.476l1.439.225.012.001h.011c.503-.013 1.005-.025 1.507-.04l.125-.004-.18-6.667-.415-.048zM6.35 26.073c-.031-.125-.112-.236-.171-.354l-.102.057.031.583c-.501.13-.538-.735-1.018-.339-.262.216-.826.052-.741.752l-.288-.45c-.039.02-.078.04-.117.062.081.141.17.276.238.424a.458.458 0 0 1 .039.262c-.007.036-.12.051-.184.076-.063.024-.16.032-.183.078-.048.094-.101.134-.157.152l-.213-.029c-.028-.015-.056-.027-.086-.046-.136-.084-.289-.14-.435-.208l-.051.106.113.083-.135-.019-.376-13.965.38.052c.411.058.8.111 1.196.146.298.027.421.139.524.478.565 1.872 1.863 2.994 3.752 3.247 1.792.235 3.303-.475 4.331-2.034.244-.37.417-.438.796-.382 3.601.515 7.265 1.022 10.808 1.514l3.017.419.027.004 1.084-.314.163.488.271.038 2.74.382 1.452.204.019.617c.021.731.043 1.423.039 2.12-.001.073-.135.241-.265.305-1.956.964-2.916 2.486-2.854 4.526.061 2.013 1.092 3.464 3.066 4.313.15.065.299.212.305.278.041.454.049.915.058 1.402l.009.414-1.566-.218-13.219-1.84-14.442-2.011c.162-.248.326-.494.492-.739.058-.086.108-.205.191-.238.461-.187.855-.038 1.147.472.139-.108.34-.189.38-.317.048-.164-.019-.371-.065-.551zm25.511 5.308l1.971 1.814-.16.177c-.984-.123-1.895-.271-1.813-1.963l.002-.028zM9.058 14.845a2.03 2.03 0 0 1-.783-.108l-.121-.041-.038.121c-.183.578-.443.92-1.133.886l.578-1.379-.062-.06a2.04 2.04 0 0 1-.64-1.377 2.077 2.077 0 0 1 .541-1.511c.374-.411.883-.65 1.435-.675l.091-.002c1.124 0 2.037.876 2.078 1.994a2.088 2.088 0 0 1-1.946 2.152zM7.4 8.476l.034.049-.057.016.023-.065zm4.242 22.522a3.968 3.968 0 0 1-.502.322c-.402.226-.663.081-.706-.384a8.364 8.364 0 0 0-.016-.183l1.326.185c-.034.019-.064.03-.102.06z"/></g></svg>