<svg xmlns="http://www.w3.org/2000/svg" width="60" height="60.178" viewBox="0 0 60 60.178"><g fill-rule="evenodd" clip-rule="evenodd" fill="#FFF"><path d="M38.164 48.505c.149.27.217.584.342.87.035.08.162.192.213.177.095-.029.225-.133.236-.219.086-.707-.18-1.311-.586-1.946-.107.417-.441.695-.205 1.118zm6.729 3.215l.84.378.167.271.341-.895c-.227-.049-.227-.049-.25-.854-.277-.091-.56-.131-.488.291.081.5-.105.733-.61.809zm3.295-3.127v1.179c.072.202.165.471.268.738.017.043.075.094.118.096a.224.224 0 0 0 .156-.069c.188-.213.061-.979-.155-1.18-.108-.102-.166-.273-.212-.423-.032-.106-.006-.229-.006-.345l-.169.004zm-.436 3.168l.986-.521c-.451.143-.267-.368-.377-.418l-.648.845c.014.031.026.062.039.094zm-7.489 3.283l.011.133.707.469c-.027-.281-.008-.577-.065-.592-.205-.054-.434-.015-.653-.01zm4.606-.709l1.193-.393-.059-.178-1.209.349.075.222zm-3.365.819c.309.184.651.095.986.073l.02-.184-.988-.063-.018.174zm-1.996-2.413c-.141.339-.25.6-.367.876.504.066.423-.404.576-.642.015-.025-.143-.162-.209-.234zm9.771-39.934c.43-.424.57-.966.635-1.602-.291.221-.659.231-.725.635-.043.258-.164.503-.23.759-.019.071.007.213.049.229.078.03.219.03.271-.021zm3.022 5.672l.697-.415c-.125-.152-.125-.152.282-.7-.136-.206-.303-.381-.478-.064-.207.375-.454.433-.83.218l.359.693c-.009.09-.02.179-.03.268zm2.845.271c.238-.042.555-.619.518-.866-.019-.125.033-.269.082-.393.034-.087.116-.156.178-.233l-.115-.086-.619.783c-.059.173-.139.402-.211.632-.012.037.002.103.027.126.033.03.096.045.14.037zm-.394-.004l-.876.22-.023.084c.31.057.62.115.931.171-.377-.141.015-.385-.032-.475zm-5.665 8.285a1.925 1.925 0 0 0-.2-.476c-.009-.018-.152.005-.193.048-.029.03-.006.13.02.19.054.135.123.264.213.451.059-.076.172-.159.16-.213zM47.87 15.629c.024-.008-.01-.183-.016-.265l-.704.39c.299.309.493-.047.72-.125zm-1.108 8.11l-.085 1.152.134.011.092-1.164-.141.001zm9.399-7.73l-.043-.918-.124.012c.023.306.049.611.073.917l.094-.011zm-26.17 2.636a5.967 5.967 0 0 0 4.253-1.754c1.139-1.141 1.791-2.702 1.789-4.282-.006-3.307-2.654-5.997-5.901-5.997l-.119.002a5.818 5.818 0 0 0-4.375 1.796 5.978 5.978 0 0 0-1.7 4.185c.004 3.206 2.502 5.859 5.688 6.041.122.005.246-.02.365.009zm-2.524-6.055a2.511 2.511 0 0 1 .707-1.727 2.308 2.308 0 0 1 1.664-.723l.152.004.142-.003c1.283 0 2.369 1.133 2.372 2.474 0 .64-.282 1.306-.758 1.782a2.422 2.422 0 0 1-1.755.719c-.055 0-.11-.001-.166-.005-1.321-.076-2.356-1.183-2.358-2.521zM6.88 50.749c-.13.573-.329 1.126-.354 1.688-.017.378.213.767.333 1.15l.731-.74 1.892 1.771c-.329-1.668-.959-3.082-2.602-3.869zm17.845-10.645v2.709c.166.465.379 1.087.616 1.7.038.099.175.217.271.222a.513.513 0 0 0 .359-.159c.435-.489.141-2.25-.356-2.713-.251-.234-.382-.628-.487-.974-.074-.243-.015-.528-.015-.794l-.388.009zM6.793 16.1c-.145-.206-.523-.301-.806-.329-.114-.011-.306.276-.381.461-.243.595-.447 1.207-.726 1.977.543-.148.903-.234 1.257-.344.693-.214 1.078-1.169.656-1.765zM3.637 33.25c-1.037.331-.615-.847-.867-.959l-1.492 1.942.092.217 2.267-1.2zm-.199 25.525c-.049-.021-.316.268-.332.428-.011.114.209.288.36.375.343.195.708.353 1.215.6 0-.264.1-.629-.019-.725-.36-.29-.797-.492-1.224-.678zm16.019-28.016c-.298.127-.529.405-.779.61.291.12.583.32.887.339.25.016.566-.13.748-.311.1-.099.042-.569-.053-.608-.239-.096-.574-.128-.803-.03zm2.178 4.63l1.699 1.829.181-.18-1.636-1.881a26.07 26.07 0 0 0-.244.232zM9.84 30.098l-.055-.05-.016.056.071-.006z"/><path d="M59.852 52.693c-.578-2.218-1.171-4.432-1.764-6.646l-.643-2.401c-.174.583-.427 1.106-1.389.981l1.009-2.405c-.537-2.023-1.071-4.048-1.605-6.072-.349-1.319-.696-2.637-1.046-3.956a1.136 1.136 0 0 1-.27-.34c-.376-.86-.579-1.807-1.03-2.619-.4-.721-.252-1.301.011-1.897-.605-2.282-1.209-4.564-1.83-6.841a4.66 4.66 0 0 0-.505-1.176l.792.29c.018-.05.035-.1.055-.15l-.988-.404-.008.023c-.774-1.125-2.018-1.788-3.496-1.788h-.073c-.812.012-1.622.013-2.431.015-.514.975-.621 2.077-.131 3.435.012.033.01.063.02.095.866-.002 1.731-.003 2.615-.017.359 0 .609.101.745.603.098.36.191.721.289 1.081-.062.035-.12.077-.183.109-.367.189-.597.052-.62-.365l-.011-.208c-.117-.035-.23-.109-.3-.08-.102.042-.173.161-.257.246.279.269.192.553.043.844-.012.025.026.078.066.187l.171-.453c.106.164.175.277.249.385.143.203.425.208.498-.008a.807.807 0 0 1 .388-.487c.663 2.453 1.318 4.908 1.97 7.364l.344 1.3c.505 1.904 1.008 3.808 1.51 5.712a6153.61 6153.61 0 0 0 1.625 6.146c.334 1.255.67 2.51 1.006 3.764.592 2.206 1.184 4.411 1.758 6.619.065.254.031.489-.012.541-1.16.457-2.091.738-2.93.884a90.02 90.02 0 0 1-6.361.87c-1.445.149-2.947.217-4.401.284l-1.169.055c-.756.037-1.512.056-2.268.077-.478.012-.955.025-1.437.042-.212.007-.397.05-.554.103H22.553a1.884 1.884 0 0 0-.533-.102c-.451-.022-.901-.04-1.352-.058-.459-.019-.919-.037-1.379-.06l-.906-.042c-1.063-.05-2.128-.1-3.19-.179l-.385-.028c-1.429-.106-2.905-.216-4.319-.408-1.695-.232-3.506-.534-5.867-.977-.717-.134-.976-.318-1.092-.489V53.6c.016-.044.031-.09.043-.139l.383-1.489c.154-.601.311-1.2.467-1.799a60.63 60.63 0 0 1-.49-.098c.23-.687.463-1.101.854-1.286.374-1.403.75-2.806 1.126-4.208.363-1.35.726-2.699 1.086-4.049.343-1.287.683-2.575 1.022-3.862.333-1.26.665-2.52 1.001-3.78.248-.929.498-1.858.748-2.787l-1.69.155.741-1.09.965.88.188-.701a542.43 542.43 0 0 0 1.875-7.074c.371-1.452.371-1.452 1.588-1.452l.23.003c1.656.037 3.314.027 4.972.018.67-.003 1.341-.007 2.009-.008.152 0 .306-.011.469-.026l2.064-.149c-.924-1.05-.937-2.623-1.906-3.655-.178-.188-.066-.646-.089-.979l.272-.07a8.431 8.431 0 0 1-.582-4.326l-.348-.074v-1.379l.583.265c.833-3.284 2.843-5.434 6.152-6.552.308-.104.656-.186 1.026-.271l.366-.087h2.404c.106.036.219.063.335.081 2.469.345 4.462 1.534 5.923 3.534 1.858 2.543 2.308 5.34 1.335 8.313-.198.606-.501 1.223-.821 1.876-.165.335-.329.67-.482 1.008l-1.134 2.495 2.926.004c-.395-.351-.92-.587-1.641-.655.065-.599-.021-1.281.247-1.768.183-.333.86-.392 1.429-.618.209.238.449.514.69.787 1.348 1.518 2.636 1.388 3.488-.335.072.076.139.169.198.283.128-.094.311-.159.35-.273.051-.144-.004-.332-.039-.495-.024-.112-.093-.214-.141-.32l.057-.131-.167.001-1.885-.003c.101-.246.194-.498.279-.758 1.326-4.055.69-8.028-1.839-11.491-1.789-2.448-4.25-4.058-7.143-4.724-.008.08-.018.16-.025.24-1.422.095-2.879.472-4.196-.312l.028-.267h-.613l-.214.055a28.06 28.06 0 0 1-.519.124c-.327.076-.666.163-1.014.264.039.492.04 1.213.107 1.917l-1.883-1.246c-3.689 1.681-6.127 4.664-7.08 8.712-.606 2.568-.404 5.118.574 7.489-1.482.007-2.965.013-4.448-.02l-.308-.003c-3.312 0-4.344 1.506-5.008 4.108-.138.539-.283 1.082-.424 1.623.043.639.133 1.283.221 2.107h-.773c-.295 1.108-.594 2.213-.886 3.298-.319 1.185-.639 2.369-.954 3.554-.336 1.262-.67 2.525-1.004 3.788-.338 1.285-.678 2.569-1.021 3.854-.359 1.348-.722 2.695-1.083 4.043l-.305 1.14c.183.344.195.938.023 1.834-.104-.252-.207-.504-.313-.756-.233.874-.469 1.748-.701 2.621-.195.733-.383 1.469-.571 2.204.245.227.476.438.705.649l-.208.231a3.77 3.77 0 0 1-.689-.135l-.181.704-.261.282v2.299l.093.275c.552 1.632 1.855 2.653 3.876 3.032 2.423.455 4.285.764 6.043 1.006 1.521.206 3.053.32 4.535.431l.383.028c1.094.082 2.191.134 3.289.185l.896.043c.471.022.941.042 1.412.061l.973.04.253.122H38.1l.244-.117c.349-.011.697-.02 1.045-.028.782-.021 1.564-.042 2.348-.08l1.157-.055c1.503-.069 3.056-.14 4.599-.299.224-.022.445-.049.668-.073.406-.765 1.195-.317 1.96-.233.242-.031.487-.06.728-.092.145-.068.282-.174.41-.33l-1.183-1.438.155-.339c.372.191.791.326 1.107.586.452.373 1.008.771 1.191 1.275a85.79 85.79 0 0 0 1.571-.26c1.081-.188 2.23-.53 3.619-1.079 2.092-.825 2.571-3.02 2.133-4.711zM43.631 17.656l.007.358a.32.32 0 0 1-.161-.004l.154-.354zm-1.98-7.687l-1.434-1.715c1.363-.173 1.68.156 1.434 1.715zM4.707 57.057h3.07c-1.404.804-2.442.818-3.07 0zm24.868.547l-.022-.306c.506-.011 1.032-.104 1.501.022.131.035.088.716.149 1.362l-1.628-1.078zm5.101.114c-.77.051-1.557.255-2.27-.169l.041-.398 2.273.145-.044.422z"/></g></svg>