<svg xmlns="http://www.w3.org/2000/svg" width="46" height="57.727" viewBox="0 0 46 57.727"><path fill-rule="evenodd" clip-rule="evenodd" fill="#E45028" d="M23.122 57.727h-.185c-.072-.075-.135-.164-.217-.225a79.117 79.117 0 0 1-8.019-6.756 66.348 66.348 0 0 1-7.328-8.306c-1.932-2.606-3.591-5.385-4.87-8.378C1.356 31.378.543 28.608.22 25.698c-.474-4.298.14-8.417 1.964-12.349a22.933 22.933 0 0 1 5.893-7.794 22.327 22.327 0 0 1 5.453-3.483c1.698-.764 3.453-1.367 5.3-1.667.876-.144 1.754-.271 2.632-.405h3.136c.117.029.232.072.352.083 2.025.199 3.996.612 5.915 1.316 4.017 1.475 7.367 3.869 10.053 7.188a22.621 22.621 0 0 1 4.486 9.182c1.039 4.431.682 8.784-.766 13.069-1.745 5.164-4.655 9.661-8.084 13.835-1.517 1.847-3.16 3.595-4.81 5.326-2.173 2.279-4.521 4.374-6.977 6.347-.558.448-1.097.92-1.645 1.381z"/><path fill="#FFF" d="M29.899 18.672c-.405.546-1.076.881-1.873.918-1.147.053-1.704-.943-1.803-3.063-.083-1.801.299-5.251.236-6.589l-.044-.956c-.382.018-2.158 7.478-3.12 8.8-.283.428-.761.818-1.349.845-1.354.063-2.288-1.459-2.397-3.817-.072-1.546.211-4.401.06-7.651-.016-.352-.086-.492-.15-.489-1.274.06-4.118 8.638-4.255 12.923-.019.624.094 1.672.247 2.225-1.538-.104-3.183-.124-3.255-1.669-.066-1.418.672-4.438 1.554-7.114.616-1.865 3.002-8.267 5.52-8.383 2.788-.129 2.463 4.916 2.685 9.68.035.764.061 1.322.16 1.733 2.617-7.594 3.104-9.837 4.665-9.909.894-.042 1.586 1.124 1.658 2.686.042.908.031 2.745.084 3.86.232 5.018.749 4.835 1.377 5.97zm8.532-7.33c-.021 1.008-2.636 5.102-5.12 5.051-1.365-.028-2.047-.912-2.022-2.075.021-1.009.507-2.024.878-2.686-2.384-.405-2.671-1.514-2.658-2.135.025-1.242 1.219-1.87 1.979-1.854.605.012.782.513.775.839-.008.372-.172.819-.433 1.356 1.175.289 3.101.313 3.082 1.229-.017.837-1.428 2.223-1.451 3.356-.009.418.172.655.499.662 1.304.027 2.979-2.92 3.739-4.365.54.105.738.312.732.622zm1.677 10.984c-.015.735-1.92 3.718-3.729 3.681-.996-.021-1.492-.665-1.475-1.513.016-.735.37-1.475.64-1.957-1.736-.295-1.946-1.104-1.937-1.556.019-.905.888-1.362 1.442-1.351.44.009.568.374.563.611-.005.271-.125.597-.313.989.855.211 2.258.228 2.244.895-.013.611-1.04 1.62-1.057 2.446-.007.305.126.478.363.483.95.02 2.171-2.129 2.725-3.181.396.076.54.227.534.453zm.291 7.451c-.012.578-1.513 2.928-2.938 2.899-.783-.017-1.176-.523-1.161-1.192.012-.578.291-1.161.504-1.541-1.368-.232-1.533-.869-1.526-1.226.016-.713.7-1.073 1.137-1.064.348.007.448.294.444.482-.004.213-.099.471-.248.778.674.166 1.78.18 1.77.706-.01.48-.82 1.275-.834 1.927-.004.239.1.376.287.379.748.016 1.711-1.677 2.146-2.506.31.061.423.179.419.358zm-2.474-14.173c.018-.846.938-1.468 2.033-1.445 1.114.022 1.97.558 1.956 1.238-.022 1.095-1.14 2.186-2.254 2.164-1.114-.023-1.748-1.316-1.735-1.957zM21.712 33.859c.011-.529.586-.918 1.271-.904.696.015 1.231.35 1.223.774-.014.684-.712 1.367-1.409 1.353s-1.093-.824-1.085-1.223zm-8.823-9.247c.011-.53.587-.918 1.271-.904.697.014 1.232.349 1.223.774-.014.684-.712 1.366-1.409 1.352-.697-.014-1.093-.822-1.085-1.222z"/><path fill="#FFF" d="M25.817 28.532c-.025 1.276-1.092 2.851-3.67 2.798-1.468-.03-2.513-.729-2.498-1.469.004-.217.149-.419.381-.554.391.237.871.49 1.79.509 1.442.029 2.114-.965 2.134-1.96.02-.969-.565-1.672-1.434-1.715-.74-.015-1.417-.016-1.92.267-.418-.148-.617-.446-.611-.727.011-.536.449-.744 1.011-.733.243.005.498.048.75.118.901-.313 2.236-1.282 2.264-2.661.023-1.173-.97-1.909-2.616-1.943a8 8 0 0 0-1.074.067.796.796 0 0 1 .132.424c-1.659 3.082-1.956 9.459-.81 11.487-.17.188-.989.273-1.359.266-.919-.019-1.508-.566-1.604-1.463-.364-2.79.568-7.138 1.365-9.292a5.26 5.26 0 0 1 .363-.874c-.605.255-1.136.59-1.526.952-.419-.123-.707-.397-.701-.666a.497.497 0 0 1 .082-.254c.292-.492 2.488-1.749 5.385-1.689 3.765.078 4.802 1.784 4.78 2.907-.034 1.62-1.78 2.76-3.091 3.128 1.664.418 2.505 1.788 2.477 3.077zm10.127-6.001c-.011.527-1.996 3.944-3.897 3.904-.776-.016-1.268-.442-1.43-1.334-.556.669-1.304 1.292-2.136 1.274-.972-.02-1.444-.64-1.421-1.806.01-.471.127-1.413.146-2.371.013-.623-.009-.944-.097-1.404.404-.061.794-.122 1.183-.114.679.014.964.353.948 1.13-.01.458-.157 1.565-.173 2.329-.011.527.082.737.234.74.208.004.757-.345 1.287-1.153.054-.596.136-1.219.147-1.746.01-.5-.024-.875-.104-1.098a4.48 4.48 0 0 1 .766-.068c.888.018 1.28.483 1.258 1.58-.007.361-.192 1.315-.207 1.981-.013.638.064.945.314.95.471.009 1.824-1.656 2.482-3.294.338-.09.709.07.7.5zm-3.014 8.093c-.962.032-1.921.389-2.757.916l-.006.303c-.034 1.661-.711 4.543-2.497 4.506-.742-.015-1.151-.462-1.135-1.236.024-1.201.981-2.478 2.213-3.444a.943.943 0 0 0-.007-.19c-.362.37-.763.55-1.191.541-.711-.015-1.108-.504-1.092-1.328.025-1.255 1.378-2.45 2.674-2.424.429.009.853.186.846.53-.005.262-.28.423-.848.557-.069-.178-.162-.254-.256-.255-.449-.01-1.013.972-1.026 1.641-.006.293.074.409.2.411.271.006.724-.622.578-1.189.51-.324.645-.321.843-.317.439.009.632.306.688 1.122.813-.411 1.654-.656 2.365-.642.261.003.488.165.408.498zm-4.258 2.202c-.685.8-1.122 1.712-1.139 2.559-.005.22.044.366.17.369.481.009.839-1.656.969-2.928z"/><path fill="#FFF" d="M37.417 30.464c-.01.502-1.758 3.132-3.7 3.092-1.474-.03-2.519-1.076-2.489-2.508.028-1.38.929-2.458 2.057-2.435.805.017 1.275.538 1.258 1.395-.02.92-.733 1.585-1.358 2 .202.339.491.533.847.54.804.017 1.88-.965 2.693-2.422.42-.127.7-.006.692.338zm-4.55.137c-.004.199.003.387.03.555.331-.338.59-.73.6-1.211.005-.229-.075-.388-.17-.39-.198-.005-.449.514-.46 1.046z"/><path fill-rule="evenodd" clip-rule="evenodd" fill="#FFF" d="M.001 17.166L0 17.168zm7.076 9.44l.471-.47c.049.356-.01.636-.173.897l-.07.149a.564.564 0 0 1-.27.321l-.087.06-.154.095-.101.024.01.153c.523.103 1.042.128 1.548-.088.483-.206.779-.624 1.122-.988a.511.511 0 0 1 .224-.24.693.693 0 0 1 .275-.275.635.635 0 0 1 .308-.243c.204-.245.502-.265.782-.331-.036-.3-.383-.274-.506-.484-.836-.55-1.703-1.021-2.738-1.053l-.162.049c-.111.038-.22.078-.331.112-.983.313-1.859.87-2.822 1.227a5.251 5.251 0 0 1-2.238.312c-.229-.017-.443-.188-.684-.064.405.737 1.063 1.186 1.799 1.524.85.391 1.717.249 2.579.022l.638-.301.58-.408zm6.754 2.877c-.501-.168-1.014-.301-1.528-.104a39.56 39.56 0 0 1-2.188.785c-.593.188-1.192.338-1.827.276-.136-.015-.303-.093-.431.101 1.2.49 2.348 1.142 3.715.786l1.156-.465.085-.052c.539-.27 1.045-.602 1.608-.822-.036-.355-.38-.353-.59-.505zm-4.44-9.871c-.351-.195-.803-.186-1.177-.164-.514.03-1.008.032-1.507-.07l-.117-.056c.14.388.424.667.697.962.175.189.35.23.592.248.637.046 1.251-.163 1.884-.125l.289.074c-.135-.357-.34-.69-.661-.869zm7.168 14.961c-.5-.211-.979-.221-1.413.129a2.415 2.415 0 0 1-.852.44c.499.243.986.342 1.483.268.343-.05.692-.16.871-.526.069-.145.102-.231-.089-.311z"/></svg>