<svg xmlns="http://www.w3.org/2000/svg" width="88" height="75.534" viewBox="0 0 88 75.534"><g fill-rule="evenodd" clip-rule="evenodd" fill="#8BC03F"><path d="M60.186 71.927c.563-.721.885-1.131 1.098-1.406l-1.289-.968c-.396.05-.779.082-1.14.084.413.722.864 1.463 1.331 2.29zm1.876-9.226c.064-1.222.088-1.902-.103-2.563-.174.991-.38 1.984-.623 2.978l.726-.415zm-1.429 2.973c.236-.055.478-.119.723-.19.219-.484.399-.997.523-1.504l-.808.162a41.355 41.355 0 0 1-.438 1.532zM30.251 21.718c-1.13-.374-2.285-.536-1.997 1.188.113.671.093 1.214-.042 1.666.86.669 1.703 1.351 2.523 2.049l.539-1.414c-.926-.201-.926-.201-1.023-3.489zM46.722 57.51c.316.802.599 1.633.848 2.51l.729-.74a76.643 76.643 0 0 0-1.21-3.302c-.134.516-.273 1.024-.367 1.532zm-.704-3.951l.055-.032a72.704 72.704 0 0 0-.819-1.816c-.859-.115-1.47-.034-1.939.272a15.412 15.412 0 0 1 2.122 2.846l1.279.257-.698-1.527zm8.859 7.204c-.361.544-.419 1.466-.26 2.489.196-.561.383-1.122.549-1.687l-.289-.802zm2.478-25.845c.16-.176-.248-1.234-.366-1.229-.409.019-.821.074-1.264.147.297.574.58 1.157.849 1.751a4.8 4.8 0 0 0 .781-.669zm-.972-7.501c-2.072-.232-3.146.472-3.324 2.025.167.234.345.459.505.698 1.655-.003 1.608-1.982 2.819-2.723zm-16.437-4.876l-2.652 3.452.162.385 4.031-2.132c-1.844.587-1.092-1.506-1.541-1.705zM25.672 36.9l3.65-1.202c-.286-.201-.568-.403-.869-.598l-3.085.892.304.908zm23.094 29.648l.005.037c.024-.014.048-.022.072-.037h-.077zM37.04 56.83l.37-.41-2.923-2.69c-.298 2.721 1.117 2.92 2.553 3.1zM15.944 40.544l.081-.75c-1.227-.077-2.453-.156-3.68-.234.027.032.051.065.078.098.219.252.339.503.419.669l.069.141.093.173c.957.168 1.957-.031 2.94-.097zM2.257 33.967c1.041.135 1.469-.29 1.721-.868a39.572 39.572 0 0 1-.672-1.633l-1.049 2.501zm22.416 31.345l.499.736c.434.263.873.517 1.318.76l-1.287-1.921-.53.425zM80.3 60.058l.782 2.887.549-.14c.468-1.136.166-2.088-1.331-2.747zM37.087 7.978l-2.905-3.343-.435.414 3.018 3.25.322-.321zm13.61 9.012l-1.316 1.937 3.128-.284-1.812-1.653z"/><path d="M79.84 32.935l-.088-.848-.308.163-.046-.109.316-.411-.222-2.128-2.077 1.608c.021.65.049.66.28.709l-.394 1.034-.192-.313c-.324-.146-.646-.292-.971-.437-3.011 2.498-6.284 4.113-10.007 4.937-1.649.364-3.237.899-4.773 1.417-.63.212-1.26.425-1.891.625a2.785 2.785 0 0 0-1.208.764 39.715 39.715 0 0 0-1.688-4.359c-.365.261-.765.512-1.174.805l-1.41-2.246c.661-.114 1.22-.224 1.735-.31a36.412 36.412 0 0 0-2.161-3.695c-.161 0-.335-.012-.532-.052a4.617 4.617 0 0 1 .027-.646 35.971 35.971 0 0 0-6.882-7.298 37.87 37.87 0 0 0-4.399-3.019c.112.933.038 1.841-.325 2.249-.145.164-.428.293-.639.282-.171-.008-.414-.219-.481-.394-.42-1.089-.799-2.192-1.095-3.02v-.493c-2.992-1.48-6.258-2.643-9.872-3.491-3.058-.717-6.195-1.466-9.224-2.393l.03.066-2.205-.442c.037-.109.075-.2.113-.293-5.626-1.983-10.393-5.58-13.931-8.524a13.704 13.704 0 0 0-.574-.442L.621 0l-.29 3.365A93.108 93.108 0 0 0 0 10.02c1.124 2.063 1.778 4.115 1.494 6.434-.042.35-.576.774-.965.893-.069.021-.176-.028-.29-.1.187 2.211.47 4.352.867 6.424.536 2.792 1.271 5.38 2.199 7.795l.454-1.082c.268.294.915.854.849.956-.309.481-.385 1.194-.63 1.759a35.652 35.652 0 0 0 3.268 5.938l-2.624-.282-.95-.03-1.697 1.712.518 1.159c.272.608.533 1.224.793 1.838.585 1.381 1.191 2.81 1.929 4.187 1.519 2.834 3.524 5.337 6.059 7.547v2.021l-.031.685.349.52c.107.16.216.315.329.465 5.421 7.265 12.483 12.168 20.99 14.573 5.047 1.427 10.262 1.855 14.696 2.087.188.01.37.015.552.015 3.209 0 5.639-1.529 7.024-4.423.21-.439.424-.876.638-1.314.075-.15.147-.309.223-.461l1.738.236c.327.045.676.067 1.036.067l.038-.002a18.707 18.707 0 0 1-.915-1.769c-.443-1.009.69-2.741 1.841-3.111 1.24-.398 1.704-1.833 1.263-3.123-.512-1.489-.785-3.063-.938-4.648 1.111 1.613 1.631 2.373 1.854 3.151.564-3.219.766-6.422.595-9.58-.01-.18-.03-.356-.042-.534h1.669c-.034-.333-.071-.588-.087-.846a71.34 71.34 0 0 1-.08-1.662c-.008-.178-.061-.396.02-.527.452-.729 1.149-.927 2.077-.517.08-.293.278-.61.201-.83-.097-.276-.402-.494-.649-.697-.172-.142-.397-.214-.6-.317l-.084.183.641.779c-.563.694-1.498-.47-1.761.569-.143.568-1.093.918-.26 1.803-.438-.168-.647-.25-.858-.332l-.102.206c.257.112.521.209.765.345a.783.783 0 0 1 .322.323c.027.057-.113.193-.176.293-.063.101-.189.21-.174.295.075.463-.186.543-.555.574-.111.01-.223.032-.333.055-.16-2.043-.474-4.065-.788-6.026-.066-.414-.132-.828-.198-1.252.35-.115.699-.232 1.048-.351 1.179-.397 2.307-.774 3.438-1.074-.021-.329.344-.541.417-.831.186-.736.85.087 1.247-.404l-.454-.552.061-.13c.142.074.303.125.424.225.176.144.393.299.461.494.055.155-.086.382-.143.589-.657-.291-1.152-.151-1.473.367-.018.029-.016.072-.019.112.143-.035.285-.074.429-.106a26.948 26.948 0 0 0 9.382-4.051c.004 1.55-.104 3.07-.322 4.582a.932.932 0 0 0 .2-.299c.1-.223.195-.449.259-.683.114-.418.329-.434.682-.191-.572.439-.904.891-.65 1.594.105.292-.201.526-.523.429l-.103-.033c-.034.193-.061.389-.098.583-.604 3.162-1.813 5.725-3.805 8.062l-3.013 3.539 5.079-.522c-1.144 2.062-2.878 3.721-5.313 5.111l-6.654 3.8-.009.175a6.026 6.026 0 0 1-.174 1.104l4.812-.966c-1.665 1.051-3.6 1.962-5.335 2.47-.55 1.222-1.331 2.248-1.999 2.431l-.662.661 1.3.978c4.924-.614 12.368-4.763 14.081-8.858l.752-1.797c1.852-1.901 3.135-4.144 3.883-6.771l.756-2.651-2.259.236c.131-.241.243-.492.365-.739.359-.008.637-.289.512-.631a2.32 2.32 0 0 1-.076-.284c.233-.539.442-1.092.632-1.656a5.2 5.2 0 0 1 .362-.308 1.603 1.603 0 0 0-.226-.134c.256-.822.483-1.665.652-2.548.655-3.426.79-6.852.412-10.479zM1.508 5.024l-.019-.255c.42-.008.86-.085 1.25.019.109.029.073.597.125 1.133l-1.356-.897zm18.913 7.027c1.369.656 1.894 1.833 2.167 3.222-.546-.511-1.092-1.021-1.575-1.475l-.609.617c-.1-.32-.292-.644-.277-.958.021-.468.187-.928.294-1.406zm-5.979-.755l1.37 1.261-.174.192c-.672-.084-1.335-.178-1.196-1.453zM3.899 4.647l1.893.121-.038.351c-.641.043-1.296.212-1.89-.14.013-.11.024-.221.035-.332zm2.943 35.15c.897-.019 1.834-.184 2.667.04.232.062.157 1.272.266 2.419l-2.893-1.915a86.696 86.696 0 0 1-.04-.544zm36.499 32.297c-.9-.438-1.548-.719-2.159-1.066-.269-.154-.659-.463-.64-.667.027-.283.502-.796.589-.759.761.329 1.537.689 2.177 1.204.21.17.033.819.033 1.288zm6.979-5.957c.225.905.423 1.816.62 2.726-.624.156-1.261.295-1.86.357l-.281-2.413c-.007-.074-.019-.147-.027-.222-2.458 1.388-4.278 1.401-5.382-.037h5.377c-.076-.69-.151-1.374-.254-2.051a35.836 35.836 0 0 0-.942-4.478l-.359.363c-.213-.683-.62-1.373-.591-2.045.013-.276.053-.553.103-.828a25.67 25.67 0 0 0-.478-1.138 17.445 17.445 0 0 0-.809-1.544l-3.426-.686c.366-1.088.735-1.786 1.304-2.16a14.734 14.734 0 0 0-3.261-2.595l2.348.119-.942-2.632c-.168-.47-.321-.926-.471-1.369-.339-1.009-.659-1.961-1.087-2.914-.13-.29-.266-.578-.407-.861a66.878 66.878 0 0 1 2.061 3.133 68.168 68.168 0 0 1 3.698 6.847c.726.098 1.625.331 2.78.692l-1.961 1.124c.352.807.69 1.624 1.017 2.451.056-.212.11-.425.16-.64 2.92 1.399 4.039 3.911 4.622 6.877-1.164-1.091-2.33-2.181-3.36-3.148l-.212.213a84.433 84.433 0 0 1 2.02 6.859zm4.298-2.885c-.09.256-.178.512-.274.767-.137.364-.283.725-.438 1.085a86.745 86.745 0 0 0-2.573-8.459l.176-.178c.251.236.537.502.821.77-.143-.725-.416-1.339-1.131-1.681-.033.145-.071.286-.104.429-.065-.178-.139-.35-.206-.526l.181.036a31.143 31.143 0 0 1-.172-.374l.493-.283c-.359-.111-.616-.173-.813-.178-1.633-4.161-3.566-8.063-5.85-11.756a68.511 68.511 0 0 0-13.991-16.282l-.854 2.243-.683-1.107-3.432-1.547c1.387-.209 2.173-.718 2.446-1.638-3.796-2.951-7.981-5.622-12.593-8.028a5.775 5.775 0 0 0-.626-.268l-1.654-.616-1.713 2.83 9.454 8.005-4.157-.129-1.33.084-1.286 3.046 2.07.677c.185.064.371.125.565.173 3.678.888 6.824 2.069 9.617 3.613.663.366 1.291.749 1.895 1.141l1.854-.536.243.73-1.228.404c3.32 2.337 5.692 5.106 7.179 8.42.197.438.375.901.546 1.384l-7.905-.398c.043-.513-.135-1.246-.394-1.486-.177-.166-.271-.445-.346-.69-.052-.172-.01-.374-.01-.563a8.412 8.412 0 0 1-.275.007v1.921l.277.773-12.147-.614-.265 3.832 1.735.229c.762.103 1.524.199 2.286.295 1.639.209 3.333.425 4.979.681l1.619.248c2.502.383 5.09.777 7.562 1.338 4.181.948 7.022 3.187 8.685 6.843.923 2.033 1.551 4.3 1.976 7.135.066.44.122.882.173 1.326l-13.27 1.172 1.379 2.056a35.47 35.47 0 0 1-6.619-2.796l1.845 2.756-.537.36-2.626-3.876a35.142 35.142 0 0 1-7.333-5.93l2.354.505.595-1.142a3.493 3.493 0 0 0-.517-.097c.062-.575-.021-1.23.237-1.698.12-.219.467-.315.847-.424l-1.198-.618c-5.471-2.83-9.283-6.357-11.657-10.788-.53-.989-.988-2.018-1.448-3.094l7.521.81-1.568-2.936a3.188 3.188 0 0 1-1.093-.396c.025-.235.049-.472.075-.707.12.008.239.016.359.022-3.807-4.445-6.288-9.872-7.578-16.591-.923-4.81-1.239-9.997-.959-15.771 2.051 1.611 4.415 3.289 7.045 4.771.009-.032.023-.063.032-.095.188-.693.545-.719 1.128-.316-.28.215-.52.435-.716.664 1.858 1.019 3.843 1.936 5.958 2.649 3.703 1.248 7.544 2.148 11.276 3.023 6.061 1.422 11.071 3.765 15.316 7.162 5.587 4.471 9.409 10.399 11.357 17.621 1.755 6.502 1.737 12.844-.039 18.89l2.479 6.89c-1.487-.65-2.706-3.136-3.027-5.204zM38.974 48.039c-.259-.631-.506-1.268-.781-1.891-.29-.663-.605-1.314-.914-1.979 1.694-.294 2.277.825 1.695 3.87zM32.698 33.54a32.75 32.75 0 0 0-4.336-2.843 33.486 33.486 0 0 0-.976-.52l.469-1.11a66.352 66.352 0 0 1 4.843 4.473zm47.177 4.833c-.073-.178-.145-.358-.221-.534-.083-.188-.172-.372-.259-.559.48-.084.643.233.48 1.093zm-9.073-2.176a8.727 8.727 0 0 0-.013-.154c.255-.005.52-.051.755.011.065.018.045.36.075.684-.385-.255-.602-.397-.817-.541zm2.562.058c-.386.026-.782.128-1.14-.085l.021-.2 1.143.073c-.01.071-.016.141-.024.212zm2.749-1.03c-.027-.085-.057-.171-.085-.256l1.396-.404.068.207-1.379.453zm2.492 4.758l.827.76-.104.115c-.406-.05-.806-.108-.723-.875z"/><path d="M76.857 31.644l-.253.196c-.178.136-.319.247-.464.364.44-.067.67-.236.717-.56zm-9.675-.567c.058.13.266.313.347.288.155-.047.367-.216.385-.355.141-1.152-.291-2.137-.953-3.172-.175.68-.719 1.133-.336 1.822.244.439.354.952.557 1.417zm18.975 15.437c-.092.406-.233.798-.25 1.195-.012.269.15.544.234.814L86.66 48 88 49.256c-.232-1.182-.678-2.184-1.843-2.742zm-.49-.71l.803-.461c-1.665-.521-2.033-.399-2.401.694.585.116 1.166.233 1.877.376-.164-.356-.236-.51-.279-.609zm-2.419-15.445c-.052-.172-.01-.374-.01-.563l-.275.007v1.92c.118.329.269.77.437 1.204.027.07.124.153.191.158a.37.37 0 0 0 .256-.113c.307-.347.099-1.595-.253-1.922-.178-.166-.272-.446-.346-.691zm-.002 3.078l-1.059 1.376c.022.051.044.102.064.154l1.607-.851c-.734.234-.434-.6-.612-.679zm-12.03 7.861c-.044-.457-.015-.94-.106-.966-.333-.088-.706-.022-1.064-.015l.017.217c.303.202.607.403 1.153.764zm10.966.762c.122.265.248.525.364.789.109.248.208.502.312.754.231-1.215-.001-1.66-.676-1.543zm-.096 5.048l.147-.163c-.348-.319-.695-.641-1.165-1.073-.118 1.085.446 1.165 1.018 1.236zm-8.411-6.493l.033-.299-1.611-.103c-.009.093-.021.188-.029.282.504.3 1.062.157 1.607.12zm8.43-12.985l-1.157-1.333-.174.165 1.203 1.295c.044-.042.085-.085.128-.127zM31.062 60.278c-.012.268.151.544.234.815.168-.171.336-.341.519-.524l1.34 1.254c-.232-1.182-.679-2.183-1.843-2.741-.092.406-.233.798-.25 1.196zm-.241-1.906l.803-.461c-1.665-.522-2.033-.398-2.401.694l1.877.376-.279-.609zm-2.808-2.202c.232-1.214 0-1.659-.676-1.543.124.265.249.525.365.789.109.251.207.503.311.754zm-.772 3.506c.049-.055.099-.108.147-.163-.348-.32-.696-.642-1.166-1.072-.118 1.084.447 1.164 1.019 1.235zm.019-19.477l-1.158-1.334-.173.165c.401.433.802.863 1.204 1.295l.127-.126zm21.023 5.659c-.056.249-.142.489-.152.733-.008.164.093.333.144.5l.318-.322.821.771c-.142-.725-.416-1.339-1.131-1.682zm-.3-.435l.492-.283c-1.021-.319-1.246-.244-1.472.426l1.15.231-.17-.374zM46.5 35.955c-.032-.105-.007-.229-.007-.345a9.646 9.646 0 0 0-.168.004v1.177c.072.201.164.472.268.737.017.043.075.094.117.097a.223.223 0 0 0 .156-.069c.189-.213.062-.978-.154-1.179-.108-.101-.166-.272-.212-.422zm0 1.886l-.649.844.04.094.985-.521c-.452.143-.268-.367-.376-.417zm-.653 5.286c.075.163.152.322.224.483.066.153.127.309.19.463.143-.744-.001-1.018-.414-.946zm-.863-9.561l.738.794.078-.078-.71-.817-.106.101zm4.432 12.088c-.033-.105-.007-.229-.007-.347l-.168.005v1.177c.072.202.164.472.267.737.018.044.076.095.117.098a.227.227 0 0 0 .157-.069c.189-.213.061-.978-.155-1.179-.109-.102-.166-.274-.211-.422zm-.002 1.886c-.234.304-.442.573-.648.843l.04.095.985-.521c-.452.142-.268-.369-.377-.417zm-.7-3.56l-.71-.817-.105.101.737.795.078-.079z"/></g></svg>