<svg xmlns="http://www.w3.org/2000/svg" width="11" height="11" viewBox="0 0 11 11"><path fill="#E45028" d="M10.758 9.774c-.164.383-.602.633-.953.828-.461.25-.93.398-1.453.398-.727 0-1.383-.297-2.047-.539a7.313 7.313 0 0 1-1.367-.648c-1.328-.82-2.93-2.422-3.75-3.75A7.227 7.227 0 0 1 .54 4.695C.297 4.031 0 3.375 0 2.648c0-.523.148-.992.398-1.453.196-.352.446-.789.829-.953C1.485.125 2.032 0 2.313 0c.055 0 .109 0 .164.023.164.055.336.438.414.594.25.445.492.898.75 1.336.125.203.359.453.359.695 0 .477-1.414 1.172-1.414 1.594 0 .211.195.484.305.672.789 1.422 1.774 2.407 3.195 3.196.188.109.461.305.672.305C7.18 8.415 7.875 7 8.352 7c.242 0 .492.235.695.36.438.258.891.5 1.336.75.156.078.539.25.594.414a.406.406 0 0 1 .023.164c0 .281-.125.828-.242 1.086z"/></svg>