<svg xmlns="http://www.w3.org/2000/svg" width="38" height="38.638" viewBox="0 0 38 38.638"><g fill-rule="evenodd" clip-rule="evenodd" fill="#8BC03F"><path d="M11.954 35.416l-.292-.355.039-.084c.092.048.195.081.273.146.113.093.252.192.296.317.035.102-.055.246-.092.379-.422-.187-.742-.097-.947.236-.037.06-.013.16-.009.24.01.253.021.506.036.759.007.117.024.233.04.386h-.976l-.018-.092c.124-.025.248-.061.373-.071.168-.015.288-.052.252-.263-.006-.039.051-.089.08-.134.029-.046.093-.108.081-.134a.367.367 0 0 0-.147-.148c-.111-.061-.231-.105-.349-.156l.046-.094.392.15c-.38-.403.054-.563.12-.822.119-.474.545.056.802-.26zm6.106.23c-.368.283-.582.573-.418 1.026.068.188-.129.338-.336.275-.111-.034-.22-.073-.381-.128l.128.403c-.087-.053-.143-.067-.147-.093-.056-.281-.15-.523-.489-.557.012-.104-.003-.224.043-.309.032-.059.15-.068.25-.107l.121.137c.243.274.477.244.625-.086a3.07 3.07 0 0 0 .167-.439c.071-.268.21-.278.437-.122zm.172-5.924c.017.598.017.598.186.635l-.253.665a21.846 21.846 0 0 1-.124-.201l-.625-.282c.376-.056.514-.229.453-.6-.053-.314.157-.285.363-.217zm-3.725 3.736c-.249-.164-.387-.257-.526-.349l-.007-.099c.163-.004.334-.033.485.007.041.012.028.233.048.441zm2.836-1.139l.899-.26.044.133-.888.292a15.943 15.943 0 0 0-.055-.165zm-2.434.645l.735.046-.015.136c-.249.018-.503.084-.734-.054l.014-.128zm-1.77-1.013l.273-.652c.049.054.167.156.155.174-.114.177-.054.527-.428.478zm4.174 5.624l.57.851-.098.066c-.189-.279-.378-.561-.568-.84l.096-.077zm14.556-6.417l.102.076c.127-.145.245-.298.346-.467-.039.021-.078.05-.116.061l-.332.33zM8.549 13.722c.394.195.844-.044 1.04-.46.163-.346.373-.668.598-.981.022-.125.045-.25.08-.369.128-.436.482-.617.877-.399a5.55 5.55 0 0 1 1.166.888c.431.417.794.903 1.2 1.347.342.375.748.405 1.054.105.288-.284.283-.681-.055-1.031-.683-.705-1.274-1.465-1.341-2.484-.028-.43.004-.891.134-1.299.296-.93 1.189-1.231 1.982-.655.425.309.761.747 1.112 1.151.258-.27.339-.663.245-1.226-.143-.855.425-.782.987-.598.082-.559.365-.93.962-1.169a6.14 6.14 0 0 1 1.071-.321c.585-.12 1.166-.266 1.742-.44l-1.267-1.047c-.04.154-.082.303-.176.657-.226-.417-.362-.68-.508-.938-.167-.296-.312-.616-.519-.878-1.25.264-2.402.748-3.252 1.802-.061.076-.238.105-.348.085-.095-.016-.185-.015-.278-.026.039.031.085.06.122.093.03.027-.12.379-.2.384-.256.017-.52-.057-.821-.103l.085-.402c-1.649.086-2.958 1.058-3.534 2.757-.151.442-.323.65-.826.757-1.43.308-2.107 1.377-2.374 2.724a7.274 7.274 0 0 0-.108.923c.241-.491.585-.902.898-.97l-.902 1.998c.006.125.005.25.017.375.192-.295.798-.417 1.137-.25z"/><path d="M22.9 2.993l-.325-.141c-.155.269-.219.728-.699.435l.228-.791a7.83 7.83 0 0 1-.737.373.77.77 0 0 0-.151.273c-.07.258.174.601.294.95-.468.371-.459-.427-.914-.428.099.458.088.971.318 1.329.183.284.489.487.788.696.145-.048.29-.082.434-.137V3.569l.345-.008c0 .237-.053.489.013.706.094.307.211.658.434.865.014.014.026.037.04.053.03-.016.062-.026.092-.042l-.028.125c.375.54.567 1.877.214 2.276a.466.466 0 0 1-.32.142c-.085-.005-.207-.109-.241-.198l-.041-.111a8.717 8.717 0 0 0-.012 1.371c.059.213.202.369.631.233l-.578.306c.02.142.033.284.058.425.077.44.377.668.785.609.391-.056.649-.405.558-.824-.314-1.449.213-2.571 1.33-3.456.882-.699 1.791-1.367 2.948-1.538.958-.142 1.534.333 1.533 1.305-.001.461-.116.923-.184 1.383-.021.146-.066.288-.085.433-.058.408.159.732.533.812.347.073.67-.139.79-.515.028-.091.054-.183.08-.275a9.075 9.075 0 0 1-1.191-.131c.411 0 .821.008 1.232.011.023-.072.045-.145.076-.212.476-1.039 1.554-1.282 2.351-.467.146.15.268.329.395.501.231-.028.469-.057.687-.081a3076.59 3076.59 0 0 1-.639-3.352 4.627 4.627 0 0 0-1.749-.288c-.1.001-.24-.095-.3-.186-.882-1.339-2.163-1.833-3.696-1.665-.73.08-1.441.33-2.183.507-.022-.078-.053-.205-.094-.33-.313-.962-1.472-1.329-2.196-.632-.017.015-.035.026-.051.042l-.24.657c-.968-.06-.196.692-.533.973z"/><path d="M37.321 13.829c-.116-.188-.125-.307-.003-.494a4.2 4.2 0 0 0 .681-2.393c-.017-1.192-.313-2.293-.782-3.332l-1.748.138.49.88c-.662-.208-1.075-.347-1.488-.468.08.122.156.241.242.362-.448.19-.806.301-1.123.483a56.143 56.143 0 0 0-2.568 1.545c-.448.29-.51.724-.232 1.061.256.312.666.32 1.066.011a11.219 11.219 0 0 1 3.185-1.733c.526.926.204 2.042-.699 2.483-.517.253-.786.675-.78 1.251.008.594.307 1.001.844 1.252.202.095.389.224.584.337l-.058.153c-.905-.122-1.812-.244-2.719-.368-.131-.018-.262-.051-.394-.068-.417-.055-.744.163-.809.531-.066.388.131.718.551.794.801.146 1.609.25 2.415.372l.198.027c-.771.827-.768 1.094-.375 2.16.277.755.398 1.568.584 2.357.049.207-.051.307-.254.367-.985.295-1.932.217-2.831-.28-.468-.259-.915-.552-1.371-.832-.435-.266-.823-.216-1.055.141-.228.352-.113.739.315 1.014.348.225.701.44 1.057.652 1.57.934 1.678 3.008.209 4.085-.107.079-.221.147-.313.21-.708-.537-1.396-1.061-2.087-1.58a2.504 2.504 0 0 0-.407-.256.674.674 0 0 0-.869.229c.613.452 1.016 1.037 1.289 1.712a10.393 10.393 0 0 1 1.754 1.735c-.055-.459-.027-.872.139-1.121l1.385 3.848c-.58-.253-1.074-1.064-1.343-1.9-.021.045-.039.091-.067.133-.105.16-.381.273-.587.285-.285.018-.581-.068-.866-.129-.496-.105-.99-.221-1.482-.342a4.39 4.39 0 0 1-1.834-.945 13.829 13.829 0 0 0-1.168-.912c-.354-.244-.731-.162-.955.152-.232.326-.154.707.199.979.256.195.511.391.767.582.412.307.595.695.586 1.145h2.347c-1.023.586-1.823.691-2.388.313-.007.035-.005.068-.015.105-.166.648-.599 1.052-1.225 1.217.303.139.604.289.858.495.104.085.017.409.017.645-.45-.22-.774-.36-1.08-.533-.135-.077-.33-.231-.32-.334a.5.5 0 0 1 .111-.214c-1.379.094-2.773-1.07-2.874-2.511-.024-.358.004-.721.019-1.081.015-.433-.203-.733-.579-.777-.388-.047-.712.17-.765.593-.061.5-.056 1.01-.081 1.571-1.03-.095-1.844.375-2.471 1.098-.017.018-.035.033-.051.052.194.29.388.581.583.87-.089.061-.179.121-.269.18l-.547-.807c-.838.813-1.847 1.177-3.029 1.229-.907.04-1.813.134-2.719.2-.046.004-.094-.01-.227-.023.502-.516.933-1.004 1.412-1.443.996-.913 1.959-1.866 3.047-2.67-.209-.121-.344-.164-.357-.227-.079-.397-.188-.766-.399-1.043a31.308 31.308 0 0 1-1.953 1.783c-2.34 1.963-4.331 4.287-6.387 6.536-.174.19-.299.259-.528.104-.253-.169-.529-.305-.829-.475.961-.877 1.891-1.732 2.829-2.58 1.498-1.354 2.973-2.734 4.508-4.046a23.567 23.567 0 0 0 1.803-1.723 1.6 1.6 0 0 0-.389-.089c.031-.288-.01-.615.119-.85.088-.159.414-.189.688-.297.1.114.215.247.332.379l.009.01a24.575 24.575 0 0 0 3.753-5.962c.732-1.631 1.487-3.258 2.329-4.834.576-1.079 1.311-2.075 1.997-3.091.296-.439.315-.838-.021-1.098-.317-.246-.729-.155-1.043.229-1.502 1.84-2.532 3.953-3.525 6.087-.394.848-.792 1.693-1.189 2.54-.056.116-.122.227-.216.4-.233-1.224-.64-2.301-1.307-3.272-.083-.121-.166-.244-.259-.357-.274-.337-.682-.41-.989-.186-.32.235-.365.625-.113.995.112.167.238.324.343.494.703 1.141 1.12 2.366 1.02 3.723-.077 1.036-.51 1.948-1.186 2.708a45.823 45.823 0 0 1-2.756 2.854c-1.916 1.805-3.874 3.566-5.817 5.348-.175-.107-.328-.211-.49-.299-.313-.173-.421-.436-.353-.774.073-.358.326-.378.639-.361.952.05 1.629-.755 1.431-1.672-.086-.399.011-.51.428-.481.146.008.295.039.438.022.827-.097 1.362-.86 1.183-1.677-.02-.09-.036-.181-.057-.287.333-.033.65-.07.969-.092.73-.053 1.219-.401 1.391-1.005.176-.62-.042-1.147-.65-1.578-1.014-.718-1.142-2.06-.275-2.881.691-.657 1.896-.58 2.499.159.288.354.657.422.981.184.301-.223.363-.605.141-.966a4.455 4.455 0 0 0-.378-.518c-1.713-2.034-2.433-4.422-2.558-7.017-.115.204-.286.368-.606.664-.497.461-1.491.78-1.838.588l-.234.003c.076.583.183 1.165.322 1.742.025.104.061.206.088.31l.608-.371c.152.15.238.352.272.575l1.761.113-.041.375c-.582.039-1.175.173-1.73-.02a1.677 1.677 0 0 1-.165.458l-.425-.151c.122.385.248.77.366 1.158-2.057 1.356-2.833 3.206-2.094 5.648-.83.065-1.169.639-1.406 1.313-.053.15-.116.308-.12.464-.006.337-.198.481-.485.587-.602.221-.958.635-1.038 1.298-.023.192-.169.451-.332.532-.923.452-1.437 1.221-1.727 2.156-.283.914-.101 1.794.345 2.651l-.963.735c-1.004.764-.933 1.871.166 2.49 1.07.604 2.146 1.199 3.219 1.795 1.009.561 1.469.537 2.356-.215a8.084 8.084 0 0 0 1.07-1.133c.816-1.02 1.819-1.67 3.155-1.751a92.852 92.852 0 0 0 2.837-.219c1.621-.147 3.077-.67 4.194-1.919.179-.199.334-.42.5-.631l.179.003c.081.124.135.286.247.367.625.452 1.219.978 1.905 1.308 2.676 1.283 5.321.148 6.37-1.912.044-.086.255-.146.372-.127.474.08.936.22 1.41.293 1.263.199 2.363-.166 3.11-.893a8.661 8.661 0 0 1-.309-.617c-.222-.505.346-1.371.921-1.557a.96.96 0 0 0 .393-.24 4.291 4.291 0 0 0-.039-.735.677.677 0 0 1 .156-.474c.041-.045.075-.094.114-.139-.251-.739-.386-1.516-.462-2.3.588.853.84 1.229.941 1.645.24-.388.428-.802.526-1.259.097-.452.11-.922.163-1.413.078-.019.185-.032.281-.072.649-.269 1.314-.51 1.941-.823.459-.231.659-.672.688-1.193.063-1.185-.028-2.352-.405-3.482-.077-.23-.008-.357.146-.517 1.2-1.249 1.379-2.927.464-4.413zM36.016 5.54a5.059 5.059 0 0 0-1.168-1.144c.011.199.037.389.125.546.162.29.614.42 1.043.598zm-1.163.596c.577.386 1.094.942 1.708 1.085.159.038.324.051.493.05a13.36 13.36 0 0 0-.783-1.377c-.017-.026-.036-.049-.054-.075-.206.557-.92-.111-1.364.317z"/><path d="M26.354 14.139c1.049-.661 1.922-1.513 2.691-2.466.037-.542.277-.893.731-1.041a.648.648 0 0 0-.239-.767c-.318-.23-.721-.174-.979.202-.992 1.453-2.313 2.54-3.766 3.497-2.041 1.345-3.647 3.124-5.002 5.14-.507.753-1.026 1.502-1.487 2.285a30.105 30.105 0 0 1-1.856 2.748c.192-.025.428.07.718.271-1.012.777-1.6 1.574-1.15 2.82a.556.556 0 0 1 .013.363c.261-.214.506-.455.749-.688.909-.869 1.915-1.523 3.023-1.953-.061-.205-.082-.471-.043-.822l.662.61a8.88 8.88 0 0 1 1.814-.35c.17-.015.355-.034.503-.109.315-.159.411-.444.331-.78a.648.648 0 0 0-.773-.484c-.967.182-1.927.407-2.888.62-.113.024-.218.081-.384.044.428-.346.837-.717 1.287-1.031 1.196-.838 2.566-1.299 3.938-1.752 1.482-.49 2.97-.968 4.453-1.454.51-.167.719-.52.564-.929-.148-.39-.49-.541-.96-.377-2.058.716-4.176 1.269-6.201 2.076.012.284-.019.634-.103 1.071-.119-.293-.236-.587-.361-.877-.467.197-.93.404-1.383.637-.008.004-.023-.005-.074-.018.052-.091.096-.177.146-.259.277-.451.572-.884.876-1.308a3.766 3.766 0 0 0-.052-.111c.051-.009.093-.007.14-.01 1.38-1.895 3.034-3.522 5.062-4.798zM14.042 27.236l.336 1.057a11.86 11.86 0 0 1 1.036-.673.895.895 0 0 1-.325-.032c-.304-.092-.602-.202-1.047-.352zm4.463-16.304c.299-.299.277-.694-.095-1.056a3.43 3.43 0 0 1-.291-.331l-.534 1.4c.309.242.668.24.92-.013zm-.831-2.268c.037.616.112.707.363.771a2.382 2.382 0 0 1-.363-.771zm-1.723 15.711a29.63 29.63 0 0 1-1.599 1.854c.451.19.859-.029 1.149-.674.173-.386.338-.776.45-1.18zm5.889-18.23l.164-.233a5.382 5.382 0 0 0-.303-.223c-.1.033-.199.064-.299.094l.438.362zm-3.148-3.038c-.41-.357-.786-.753-1.177-1.132.397.564.909 1.013 1.361 1.516.022.025.036.059.057.085.09-.019.18-.039.27-.055-.171-.134-.344-.269-.511-.414zM6.866 9.071c-.165.156-.228.419-.337.635l.624-.013.076 1.553c.556-.856.875-1.729.496-2.755-.297.194-.614.349-.859.58zm1.598 7.914c.094.056.19.097.288.13.034-.164.032-.319.009-.468l-.26-.017-.037.355zm-1.497.014l1.195.423a20.983 20.983 0 0 1-.281-.979l-.914.556zm-1.07 1.335c.574-.12 1.148-.24 1.722-.358l-.02-.197c-.365-.102-.725-.262-1.095-.294-.578-.048-.82.313-.607.849zm9.167-14.607c.431.631.927.024 1.44.14-.506-.614-.984-.642-1.44-.14zm-9.588 7.858l-1.324-1.283c-.071.615.383 1.044 1.324 1.283zm-2.911-1.027c-.053.045-.031.211-.002.313.066.228.158.448.273.767.111-.114.307-.23.295-.321-.034-.275-.138-.544-.245-.803-.012-.03-.247-.018-.321.044zM17.577 0l-.775.161.826.666L17.577 0z"/></g></svg>