<svg xmlns="http://www.w3.org/2000/svg" width="40.189" height="43.416" viewBox="0 0 40.189 43.416"><g fill="#E35028"><path d="M15.407 6.22c.04.091.187.22.244.201.109-.033.259-.151.271-.249.099-.81-.205-1.502-.67-2.23-.123.478-.505.797-.236 1.281.17.308.248.67.391.997zm8.471 3.429l.39-1.024c-.261-.056-.261-.056-.287-.978-.316-.105-.64-.151-.56.332.096.571-.117.839-.697.927l.963.434.191.309zm3.399 7.086l1.319.265-.196-.428.565-.324c-1.171-.367-1.43-.281-1.688.487zm-.336-9.105a.253.253 0 0 0 .18-.079c.217-.244.07-1.121-.178-1.352-.125-.116-.189-.313-.242-.484-.037-.122-.008-.264-.008-.396l-.193.005v1.349c.084.231.189.542.308.846.018.049.086.108.133.111zm.189.725c-.517.164-.307-.422-.432-.479-.27.35-.506.659-.743.968.015.036.03.073.046.107.376-.197.752-.396 1.129-.596zm-3.066 3.097l-.066-.205c-.462.135-.924.268-1.385.401l.085.254c.456-.15.911-.299 1.366-.45zm-4.093 1.472l.023-.21-1.132-.072-.021.198c.355.21.747.109 1.13.084zM9.639 23.044l.011.153.811.536c-.031-.32-.009-.66-.074-.678-.234-.062-.497-.016-.748-.011zm1.421.126c.355.21.748.109 1.13.084l.023-.21-1.132-.072-.021.198zM.862 29.643c-.329.14-.586.449-.862.674.323.133.646.355.981.376.277.018.627-.144.829-.344.11-.109.047-.631-.058-.673-.264-.107-.636-.143-.89-.033zm2.412 5.126l1.881 2.024.201-.199-1.811-2.083-.271.258zm9.741 8.647l1.949-.178-1.129-1.029c-.215.315-.415.609-.82 1.207zm2.23-21.292l1.039-.342-.067-.205c-.338.099-.677.196-1.015.294l-.695-3.999a1.494 1.494 0 0 0-.598-.956c.22-.03.465 0 .746.124.057-.205.196-.429.142-.584-.068-.193-.282-.347-.457-.49-.121-.099-.279-.149-.421-.223l-.06.129.45.548c-.352.435-.91-.16-1.158.22a1.422 1.422 0 0 0-.379.012 1.5 1.5 0 0 0-1.221 1.734l2.526 14.533a1.5 1.5 0 0 0 2.956-.513l-1.788-10.282zm16.451 12.71c-.143.109.253 1.356.429 1.363.635.028 1.281-.254 2.143-.475l-.492-1.925c-.708.327-1.477.573-2.08 1.037z"/><path d="M39.365 6.225c.095-.47.205-.937.316-1.403.183-.768.372-1.561.488-2.359.071-.479-.048-1.523-.526-1.811l-.085-.043c-.586-.234-1.461.01-1.936.368-.845.64-1.654 1.345-2.438 2.026-.411.358-.822.717-1.239 1.066a1.778 1.778 0 0 1-.38.258c-1.369-.553-1.945.453-2.385 1.221l-.186.332c-.252.451-.49.877-.788 1.254-.143.182-.432.346-.618.355-1.404.061-2.48.693-3.195 1.881l-3.558 5.909c-.472.783-.942 1.566-1.413 2.35-.078.024-.145.052-.172.1a.647.647 0 0 0-.056.279c-.572.951-1.144 1.901-1.715 2.853l.732 4.373 1.84-3.059.908-1.51.335.493.15-.101-.38-.567.361-.599 1.406-2.338.344-.57c.069.414.385.465.709.505a9.86 9.86 0 0 1 .104-.115l-.674-.62 1.084-1.798.028.069c.011-.057.009-.092.017-.144.752-1.251 1.504-2.502 2.26-3.751.52-.859.709-.908 1.559-.402l.406.243.957-1.977.402 2.79.641.383c.781.47 1.561.941 2.339 1.416.827.505.874.71.355 1.572-.958 1.595-1.919 3.188-2.878 4.781l-.025 1.419a4.846 4.846 0 0 1-.611-.361c-2.326 3.866-4.651 7.733-6.98 11.599-.55.912-.733.959-1.637.421-.625-.373-1.248-.752-1.872-1.127l-.799-4.608.256.052-.196-.428c.191-.11.339-.196.565-.324a4.749 4.749 0 0 0-.78-.192.532.532 0 0 0-.007-.039l-.526-3.025c-.162-.93-.319-1.86-.477-2.791-.095-.564-.197-1.142-.294-1.713l.25-.132c-.134.043-.218.033-.273-.003-.074-.436-.147-.867-.224-1.305.054.151.112.311.174.471.019.05.087.108.134.111a.255.255 0 0 0 .18-.079c.216-.244.069-1.121-.178-1.352-.125-.116-.19-.313-.243-.484-.037-.122-.007-.264-.007-.396l-.194.006v.964a145.764 145.764 0 0 0-.63-3.316l.153.102c-.031-.32-.009-.66-.074-.678-.067-.018-.14-.015-.211-.018-.204-.711-.646-1.623-1.282-2.042.033-.115.062-.232.119-.322.019-.028-.163-.186-.238-.269l-.178.426c-1.028-.455-1.14-1.187-1.294-2.249l-.038-.284c-.042-.35-.087-.709-.223-1.053-.131-.331-.49-1.101-.995-1.1-.65.002-.853-.354-1.154-.984a6.844 6.844 0 0 0-.216-.428 43.903 43.903 0 0 1-.679-1.268c-.364-.699-.742-1.424-1.176-2.104C10.344.624 9.57-.087 9.02.009l-.093.023c-.595.207-1.098.963-1.222 1.546-.219 1.036-.37 2.099-.515 3.127-.076.54-.152 1.08-.238 1.618a1.828 1.828 0 0 1-.119.444C5.437 7.244 5.66 8.384 5.83 9.251l.076.373c.104.506.203.983.226 1.463.011.23-.1.545-.235.674-1.022.966-1.42 2.148-1.183 3.515l.003.018 2.748 3.615-.803 1.081c-.4-.366-.771-.771-1.205-1.091-.052-.038-.087-.086-.136-.126l.573 3.299.749 4.297c-.029-.023-.058-.05-.085-.072-.121-.099-.279-.149-.421-.223l-.06.129.45.548c-.395.487-1.053-.33-1.237.4-.101.399-.769.645-.183 1.267l-.604-.232-.07.145c.18.078.366.147.537.242a.566.566 0 0 1 .227.228c.019.039-.08.135-.125.206-.043.07-.132.146-.122.208.054.324-.13.381-.39.403-.193.015-.383.071-.574.11l.027.141h1.503c-.025-.233-.051-.413-.062-.595a57.04 57.04 0 0 1-.056-1.168c-.005-.125-.042-.279.014-.37.307-.497.781-.635 1.402-.382.5 2.873.997 5.746 1.501 8.619.393 2.233 2.115 3.433 4.387 3.057a362.73 362.73 0 0 0 2.571-.438c.995-.173 1.989-.35 2.982-.525l.124-.021c1.011-.18 1.79-.576 2.345-1.14l-.143-.751.371-.174c.066.13.131.261.195.392.4-.638.592-1.422.531-2.343l.262 1.564a4.9 4.9 0 0 0 1.363.528c.042-.133.078-.253.134-.403.073.165.144.319.208.466 1.438.188 2.718-.494 3.649-2.036a3114.77 3114.77 0 0 0 3.518-5.84c-.247-.19-.5-.371-.742-.567-.2-.163-.094-.707-.13-1.075.643-.031 1.293-.123 1.928-.112l.708-1.176c.486-.81.978-1.616 1.468-2.423 1.299-2.135 2.643-4.344 3.889-6.563.4-.715.845-2.088.422-2.936-.523-1.052-.119-1.683.471-2.604l.158-.24c.195-.291.398-.593.521-.941.117-.336.35-1.152-.033-1.482-.492-.424-.412-.826-.227-1.5a5.89 5.89 0 0 0 .12-.465zM22.253 21.327c-.174-.167-.514-.361-.49-.495.056-.332.277-.637.547-1.188.049.071.097.132.144.193a.915.915 0 0 1-.036.029l.395.582c-.12.317-.364.589-.56.879zM12.177 8.852l.221 1.271-3.321.577-.221-1.271 3.321-.577zM9.399 2.726l2.117 3.242-3.015.523.898-3.765zm8.407 32.489c-1.782.317-3.565.628-5.352.931-1.03.174-1.17.07-1.358-1.002-.307-1.752-.611-3.505-.915-5.257-.208.055-.436.114-.708.188.188-.518.344-.966.499-1.39l-.155-.89-.456-2.625-.468-2.689-.197-1.135c.2-.144.189-.476.316-.673.019-.028-.163-.186-.238-.269a42.63 42.63 0 0 0-.17.407c-.237-1.359-.472-2.719-.707-4.078.105-.042.232-.143.243-.232.092-.755-.173-1.408-.585-2.084.033-.406.286-.528.973-.651a489.182 489.182 0 0 1 5.456-.947c.956-.161 1.125-.037 1.299.955.241 1.384.48 2.768.722 4.152-.237-.047-.427.002-.363.383.096.571-.117.839-.697.927l.962.434.191.31.181-.476 1.329 7.648a58.381 58.381 0 0 1-.22-.203c-.055.5.098.694.321.784.353 2.031.708 4.062 1.059 6.092.18 1.049.073 1.205-.962 1.39zm17.768-24.706L32.685 8.77l.666-1.105 2.889 1.739-.666 1.105zm2.053-3.719l-2.622-1.578 3.146-2.258-.524 3.836z"/><path d="M22.427 30.894a1.499 1.499 0 0 0 2.058-.512l7.606-12.637a1.499 1.499 0 0 0-.512-2.059 1.499 1.499 0 0 0-2.058.512l-7.606 12.637a1.5 1.5 0 0 0 .512 2.059z"/></g></svg>